<?xml version="1.0" standalone="no"?>
<!DOCTYPE svg PUBLIC "-//W3C//DTD SVG 1.1//EN" "http://www.w3.org/Graphics/SVG/1.1/DTD/svg11.dtd" >
<svg xmlns="http://www.w3.org/2000/svg" xmlns:xlink="http://www.w3.org/1999/xlink" version="1.1">
<metadata>
Created by FontForge 20170731 at Thu Jan 21 16:18:27 2021
 By Aleksey,,,
Copyright (c) 1987, 1991 Adobe Systems Incorporated.  All Rights Reserved.
</metadata>
<defs>
<font id="NewsGothic" horiz-adv-x="1179" >
  <font-face 
    font-family="News Gothic"
    font-weight="500"
    font-stretch="normal"
    units-per-em="2048"
    panose-1="0 0 0 0 0 0 0 0 0 0"
    ascent="1638"
    descent="-410"
    x-height="1130"
    cap-height="1593"
    bbox="-383 -512 2048 2089"
    underline-thickness="102"
    underline-position="-307"
    unicode-range="U+0020-FB02"
  />
<missing-glyph horiz-adv-x="589" 
 />
    <glyph glyph-name=".notdef" horiz-adv-x="589" 
 />
    <glyph glyph-name=".null" horiz-adv-x="0" 
 />
    <glyph glyph-name="nonmarkingreturn" horiz-adv-x="682" 
 />
    <glyph glyph-name="space" unicode=" " horiz-adv-x="589" 
 />
    <glyph glyph-name="exclam" unicode="!" horiz-adv-x="366" 
d="M285 1593l-45 -1083h-113l-45 1083h203zM287 240v-240h-207v240h207z" />
    <glyph glyph-name="quotedbl" unicode="&#x22;" horiz-adv-x="569" 
d="M113 1130v463h112v-463h-112zM344 1130v463h113v-463h-113z" />
    <glyph glyph-name="numbersign" unicode="#" 
d="M1051 606v-143h-209l-51 -463h-148l51 463h-274l-51 -463h-144l51 463h-202v143h219l43 381h-205v143h221l51 463h144l-51 -463h274l51 463h148l-51 -463h186v-143h-203l-43 -381h193zM754 987h-275l-43 -381h275z" />
    <glyph glyph-name="dollar" unicode="$" 
d="M655 -8v-187h-143v187q-131 22 -241 101.5t-175 197.5l123 78q146 -242 375 -242q86 0 161.5 33.5t125 101.5t49.5 156q0 71 -27.5 125.5t-74 90t-107 64.5t-127.5 52.5t-133.5 48.5t-127 59t-107 78t-74 111t-27.5 153q0 170 108 278.5t279 123.5v186h143v-186
q107 -17 203 -81t158 -157l-115 -86q-77 103 -145 145.5t-185 42.5q-53 0 -103 -14.5t-93 -43t-69.5 -78t-26.5 -111.5q0 -66 27.5 -116.5t74 -83.5t107 -59.5t127 -50t133 -49t127 -63t107 -86t74 -123.5t27.5 -170q0 -91 -34 -167.5t-93.5 -129t-136 -85.5t-164.5 -44z
" />
    <glyph glyph-name="percent" unicode="%" horiz-adv-x="1425" 
d="M1079 1593h131l-862 -1593h-133zM1348 383q0 -62 -7 -117.5t-26 -112t-48.5 -96.5t-78.5 -65t-113 -25t-113 25t-78.5 65t-48 96.5t-25.5 111.5t-7 118t7 118t25.5 111.5t48 96.5t78.5 65t113 25t113 -25t78.5 -65t48.5 -96.5t26 -112t7 -117.5zM1221 383q0 39 -1.5 68.5
t-6 67.5t-14.5 65t-25.5 52t-40.5 37.5t-58 12.5t-58 -12.5t-40.5 -37.5t-25.5 -51.5t-14 -65t-5.5 -67.5t-1.5 -69t1.5 -69t5.5 -67.5t14 -65t25.5 -51.5t40.5 -37.5t58 -12.5t58 12.5t40.5 37.5t25.5 52t14.5 65t6 67.5t1.5 68.5zM623 1210q0 -80 -12 -147.5t-41 -131
t-85 -100t-135 -36.5q-64 0 -113 25t-78.5 65t-48 96t-25.5 111t-7 118t7 118t25.5 111.5t48 96.5t78.5 65t113 25t113 -25t78.5 -65t48.5 -96.5t26 -112t7 -117.5zM496 1210q0 39 -1.5 68.5t-6 67.5t-14.5 65t-25.5 52t-40.5 37.5t-58 12.5t-58 -12.5t-40.5 -37.5
t-25.5 -51.5t-14 -65t-5.5 -67.5t-1.5 -69t1.5 -69t5.5 -67.5t14 -65t25.5 -51.5t40.5 -37.5t58 -12.5t58 12.5t40.5 37.5t25.5 52t14.5 65t6 67.5t1.5 68.5z" />
    <glyph glyph-name="ampersand" unicode="&#x26;" horiz-adv-x="1294" 
d="M469 778q-114 -73 -175 -151.5t-61 -194.5q0 -134 86 -231t218 -97q88 0 158.5 37t138.5 109q-221 258 -365 528zM1071 776l143 -26q-49 -300 -170 -486q4 -3 29.5 -23.5t32.5 -25.5t29.5 -21t35 -21.5t32.5 -14.5t38 -12t37 -3v-143q-99 0 -176 36.5t-164 102.5
q-201 -172 -412 -172q-185 0 -315.5 130.5t-130.5 318.5q0 292 319 489q-3 6 -18 37.5t-18.5 39.5t-16 36.5t-16.5 40.5t-13 38t-12 43t-8 41.5t-6.5 48t-1.5 48.5q0 151 84 249.5t223 98.5q136 0 218.5 -91t82.5 -237q0 -243 -291 -436q147 -280 332 -485q76 103 133 399z
M532 987q211 135 211 338q0 74 -40.5 122t-108.5 48q-50 0 -86 -33t-51 -79.5t-15 -98.5q0 -143 90 -297z" />
    <glyph glyph-name="quotesingle" unicode="'" horiz-adv-x="454" 
d="M170 1130v463h113v-463h-113z" />
    <glyph glyph-name="parenleft" unicode="(" horiz-adv-x="532" 
d="M453 -143l-127 -54q-127 221 -186.5 441t-59.5 471t59.5 470.5t186.5 440.5l127 -53q-217 -434 -217 -858t217 -858z" />
    <glyph glyph-name="parenright" unicode=")" horiz-adv-x="532" 
d="M207 -197l-127 54q217 434 217 858t-217 858l127 53q127 -221 186.5 -440.5t59.5 -470.5t-59.5 -471t-186.5 -441z" />
    <glyph glyph-name="asterisk" unicode="*" horiz-adv-x="1114" 
d="M616 1593v-221l209 68l37 -111l-209 -67l129 -181l-94 -67l-131 178l-129 -178l-94 67l129 181l-211 67l37 111l211 -68v221h116z" />
    <glyph glyph-name="plus" unicode="+" horiz-adv-x="1351" 
d="M604 637v440h144v-440h440v-143h-440v-441h-144v441h-440v143h440z" />
    <glyph glyph-name="comma" unicode="," horiz-adv-x="589" 
d="M397 240v-224l-137 -331h-102l102 315h-70v240h207z" />
    <glyph glyph-name="hyphen" unicode="-" horiz-adv-x="419" 
d="M0 662h420v-144h-420v144z" />
    <glyph glyph-name="period" unicode="." horiz-adv-x="589" 
d="M397 240v-240h-207v240h207z" />
    <glyph glyph-name="slash" unicode="/" horiz-adv-x="899" 
d="M1010 1593l-979 -1896h-144l979 1896h144z" />
    <glyph glyph-name="zero" unicode="0" 
d="M590 1626q87 0 159.5 -28t123 -74.5t89.5 -113.5t62 -138.5t37.5 -156.5t20 -160.5t5.5 -157.5t-5.5 -157.5t-20 -160.5t-37.5 -157t-62 -139t-89.5 -113.5t-123 -74.5t-159.5 -28t-159.5 28t-123 74.5t-89.5 113.5t-62.5 139t-38 157t-20 160.5t-5.5 157.5t5.5 157.5
t20 160.5t38 156.5t62.5 138.5t89.5 113.5t123 74.5t159.5 28zM590 1483q-342 0 -342 -686t342 -686t342 686t-342 686z" />
    <glyph glyph-name="one" unicode="1" 
d="M657 1593v-1450h228v-143h-627v143h231v1266l-258 -23v99l293 108h133z" />
    <glyph glyph-name="two" unicode="2" 
d="M295 143h756v-143h-924v145q46 117 114 219t137 172.5t143 135t137.5 119.5t114.5 111.5t80.5 126t29.5 149.5q0 124 -74 214.5t-195 90.5q-85 0 -155.5 -49.5t-110.5 -123t-53 -157.5l-145 41q19 92 59.5 170t100 136.5t141.5 92t176 33.5q188 0 306 -126.5t118 -315.5
q0 -97 -34 -183.5t-91.5 -153.5t-127.5 -130t-146.5 -126t-144.5 -127t-126 -147t-86 -174z" />
    <glyph glyph-name="three" unicode="3" 
d="M506 768l-105 -10v155l134 -4q169 0 254 79t85 208q0 134 -76.5 210.5t-209.5 76.5q-96 0 -168.5 -52t-136.5 -143l-121 84q87 119 203 186.5t253 67.5q190 0 303 -118.5t113 -290.5q0 -137 -56.5 -223t-180.5 -150q136 -45 208 -150t72 -250q0 -219 -136 -348t-355 -129
q-158 0 -284 79t-200 220l129 78q70 -112 154 -172.5t203 -60.5q146 0 233.5 83.5t87.5 229.5q0 95 -29 163t-84.5 107t-126.5 56.5t-163 17.5z" />
    <glyph glyph-name="four" unicode="4" 
d="M1110 524v-143h-242v-381h-168v381h-630v143l571 1069h227v-1069h242zM700 524v895h-4l-460 -895h464z" />
    <glyph glyph-name="five" unicode="5" 
d="M948 1593v-143h-590l-43 -506q59 70 130.5 101.5t164.5 31.5q108 0 194.5 -45t141 -120t83 -169t28.5 -196q0 -115 -32.5 -218.5t-93.5 -184.5t-157.5 -129t-214.5 -48q-154 0 -259.5 76t-176.5 219l133 80q44 -103 123 -167t184 -64q68 0 124 25t93 66t62 96.5t36 114.5
t11 122q0 190 -85.5 294.5t-207.5 104.5q-169 0 -305 -211l-127 27l55 843h729z" />
    <glyph glyph-name="six" unicode="6" 
d="M1012 1522l-76 -123q-57 44 -111.5 64t-124.5 20q-54 0 -106.5 -17.5t-110 -64.5t-102 -119.5t-76.5 -194t-39 -276.5l4 -4q63 98 158.5 153.5t210.5 55.5q54 0 111 -15.5t117 -53.5t106.5 -93.5t76 -144t29.5 -197.5q0 -119 -31 -215t-79.5 -156t-112.5 -100.5t-125 -57
t-121 -16.5q-78 0 -150.5 25.5t-138.5 82.5t-114.5 140.5t-77.5 207.5t-29 275q0 183 31 336t86 261t130 183.5t163 111.5t186 36q91 0 164 -25t152 -79zM645 872q-121 0 -219.5 -85.5t-155.5 -208.5q4 -100 24 -180t51 -128.5t65.5 -82t74.5 -49t69 -21.5t58 -6
q51 0 100.5 21t96 66t74.5 128t28 194q0 66 -16 127t-47.5 112.5t-84 82t-118.5 30.5z" />
    <glyph glyph-name="seven" unicode="7" 
d="M1065 1593v-118l-582 -1475h-190l604 1450h-721v143h889z" />
    <glyph glyph-name="eight" unicode="8" 
d="M563 770q-323 -112 -323 -354q0 -144 100 -224.5t246 -80.5q96 0 174.5 32t129 102.5t50.5 168.5q0 61 -23 113.5t-58 88t-88 66.5t-100 50t-108 38zM762 850q80 -38 137 -77t105 -92t72 -122.5t24 -155.5q0 -103 -42.5 -187.5t-113.5 -138t-161 -82t-189 -28.5
q-101 0 -192 27t-163.5 78.5t-115.5 136t-43 190.5q0 85 22.5 154t68 123t101.5 94.5t134 79.5q-65 39 -108.5 73t-81.5 79.5t-56.5 102.5t-18.5 128q0 121 67 212.5t169.5 136t220.5 44.5q84 0 164.5 -27.5t144.5 -76t103 -124t39 -163.5q0 -250 -287 -385zM598 926
q58 17 107 41t92 59.5t67.5 86.5t24.5 112q0 121 -79.5 189.5t-203.5 68.5q-120 0 -212.5 -65t-92.5 -181q0 -58 26.5 -109.5t71.5 -89.5t94 -65t105 -47z" />
    <glyph glyph-name="nine" unicode="9" 
d="M168 72l76 123q57 -44 111 -64t124 -20q44 0 88 13t92 41t90 80t77.5 123t58 177.5t28.5 236.5l-4 4q-63 -97 -158 -152.5t-210 -55.5q-54 0 -111 15.5t-117 53t-106.5 93t-76.5 144t-30 197.5q0 119 31 215t79.5 156t112.5 100.5t125 57t121 16.5q78 0 150.5 -25.5
t138.5 -82.5t114.5 -140.5t77.5 -207.5t29 -275q0 -183 -31 -336t-86 -261t-130 -183.5t-163 -111.5t-186 -36q-91 0 -163 25t-152 80zM535 721q121 0 219 85.5t155 209.5q-4 100 -24 180t-51 128.5t-65.5 82t-74.5 49t-69 21.5t-58 6q-40 0 -80 -12.5t-80 -43t-70.5 -75.5
t-49.5 -117t-19 -162q0 -66 16.5 -127t47.5 -112t84 -82t119 -31z" />
    <glyph glyph-name="colon" unicode=":" horiz-adv-x="589" 
d="M397 240v-240h-207v240h207zM397 1130v-239h-207v239h207z" />
    <glyph glyph-name="semicolon" unicode=";" horiz-adv-x="589" 
d="M397 240v-224l-137 -331h-102l102 315h-70v240h207zM397 1130v-239h-207v239h207z" />
    <glyph glyph-name="less" unicode="&#x3c;" horiz-adv-x="1351" 
d="M346 565l842 -393v-141l-1024 481v109l1024 456v-141z" />
    <glyph glyph-name="equal" unicode="=" horiz-adv-x="1351" 
d="M1188 819v-143h-1024v143h1024zM1188 422v-143h-1024v143h1024z" />
    <glyph glyph-name="greater" unicode="&#x3e;" horiz-adv-x="1351" 
d="M1188 621v-109l-1024 -481v141l842 393l-842 371v141z" />
    <glyph glyph-name="question" unicode="?" horiz-adv-x="724" 
d="M360 510h-129v139q0 63 15.5 117t40.5 94t55 76.5t59.5 73t54.5 74.5t40.5 89.5t15.5 110.5q0 79 -39.5 138t-116.5 59q-36 0 -64 -11.5t-51 -38t-35 -45.5t-34 -59l-127 68q45 104 127 167.5t190 63.5q146 0 232 -91t86 -245q0 -88 -33 -168.5t-80 -141t-94 -116
t-80 -116t-33 -119.5v-119zM399 240v-240h-206v240h206z" />
    <glyph glyph-name="at" unicode="@" horiz-adv-x="1638" 
d="M1430 375h143q-104 -188 -299.5 -298t-413.5 -110q-169 0 -322.5 66t-264.5 177t-176.5 265t-65.5 322t65.5 321.5t176.5 264.5t264.5 177t322.5 66q204 0 375 -88.5t272 -248t101 -355.5q0 -124 -47 -240.5t-120.5 -197.5t-165 -130t-179.5 -49q-65 0 -117.5 32.5
t-69.5 101.5q-50 -64 -120.5 -99t-141.5 -35q-137 0 -211 86t-74 226q0 110 40 224t108 207t168 152.5t209 59.5q83 0 144 -42.5t69 -123.5h4l41 121h145l-221 -619q-15 -43 -20.5 -68.5t-3 -51t22.5 -37t58 -11.5q88 0 171.5 76.5t133.5 193.5t50 232q0 104 -33 194
t-91.5 156t-137 113t-170 70.5t-189.5 23.5q-146 0 -276 -54.5t-223.5 -148t-148 -223.5t-54.5 -276t54.5 -276t148 -224t223.5 -148.5t276 -54.5q168 0 321.5 72.5t248.5 208.5zM680 449q64 1 128.5 59.5t110.5 144t74.5 181t28.5 170.5q0 55 -34.5 102t-96.5 47
q-75 0 -144.5 -52t-115.5 -130.5t-73.5 -167t-27.5 -164.5q0 -85 36 -137.5t114 -52.5z" />
    <glyph glyph-name="A" unicode="A" horiz-adv-x="1144" 
d="M686 1593l459 -1593h-172l-146 508h-518l-137 -508h-172l449 1593h237zM788 651l-223 836h-4l-209 -836h436z" />
    <glyph glyph-name="B" unicode="B" horiz-adv-x="1212" 
d="M295 907h149q178 0 256 17q181 40 207 199q4 28 4 59q0 65 -16 113t-52 76.5t-68.5 45.5t-93 24t-95 8t-103.5 1h-26h-162v-543zM295 764v-621h199q114 0 196 14t131.5 37.5t78 62t38.5 79.5t10 98q0 76 -20 132.5t-67 103t-135.5 70.5t-215.5 24h-215zM590 0h-463v1593
h438q117 0 209.5 -26t148.5 -66.5t92 -96t50 -109.5t14 -111q0 -128 -70 -220.5t-194 -123.5q144 -43 222.5 -144.5t78.5 -251.5q0 -63 -11.5 -119t-46.5 -118t-90.5 -105.5t-152.5 -72.5t-225 -29z" />
    <glyph glyph-name="C" unicode="C" horiz-adv-x="1273" 
d="M1163 1147l-149 -37q-14 61 -31 110.5t-45.5 101.5t-64 87t-88 57.5t-115.5 22.5q-85 0 -157.5 -41t-130 -123t-90 -217t-32.5 -311q0 -141 21.5 -257t59 -196t89.5 -134.5t112 -80t128 -25.5q75 0 135.5 32t101 88t66 119.5t41.5 139.5l155 -41q-17 -100 -57 -185
t-101 -150.5t-148.5 -102.5t-192.5 -37q-124 0 -230 56.5t-183.5 161t-121 262t-43.5 350.5t43.5 350t121 261.5t183.5 161t230 56.5q203 0 329.5 -132.5t163.5 -346.5z" />
    <glyph glyph-name="D" unicode="D" horiz-adv-x="1286" 
d="M127 1593h393q136 0 247 -38.5t189.5 -108t132 -168t78.5 -217t25 -256.5q0 -393 -173 -599t-542 -206h-350v1593zM295 1450v-1307h158q298 3 434.5 162t136.5 506q0 309 -124.5 472.5t-369.5 166.5h-235z" />
    <glyph glyph-name="E" unicode="E" horiz-adv-x="1142" 
d="M991 1593v-143h-696v-543h498v-143h-498v-621h743v-143h-911v1593h864z" />
    <glyph glyph-name="F" unicode="F" horiz-adv-x="995" 
d="M930 1593v-143h-635v-526h481v-144h-481v-780h-168v1593h803z" />
    <glyph glyph-name="G" unicode="G" horiz-adv-x="1306" 
d="M1194 1163l-162 -39q-15 61 -32.5 110t-47.5 98.5t-67 82.5t-92 53.5t-123 20.5q-85 0 -157.5 -41t-130 -123t-90 -217t-32.5 -311q0 -141 21.5 -257t59 -196t89.5 -134.5t112 -80t128 -25.5q85 0 151.5 31t106.5 81t64.5 118.5t31.5 139.5t2 147h-324v143h492v-764h-143
v156q-65 -90 -164 -139.5t-217 -49.5q-124 0 -230 56.5t-183.5 161t-121 262t-43.5 350.5t43.5 350t121 261.5t183.5 161t230 56.5q211 0 346.5 -128t177.5 -335z" />
    <glyph glyph-name="H" unicode="H" horiz-adv-x="1269" 
d="M295 924h680v669h168v-1593h-168v780h-680v-780h-168v1593h168v-669z" />
    <glyph glyph-name="I" unicode="I" horiz-adv-x="421" 
d="M295 1593v-1593h-168v1593h168z" />
    <glyph glyph-name="J" unicode="J" horiz-adv-x="858" 
d="M739 1593v-1165q0 -109 -24.5 -192.5t-62.5 -133t-91 -81t-104 -43t-107 -11.5q-114 0 -207.5 64.5t-126.5 171.5l150 76q11 -66 62 -110t118 -44q101 0 163 83.5t62 221.5v1163h168z" />
    <glyph glyph-name="K" unicode="K" horiz-adv-x="1189" 
d="M295 782l625 811h186l-447 -587l498 -1006h-190l-422 858l-250 -323v-535h-168v1593h168v-811z" />
    <glyph glyph-name="L" unicode="L" horiz-adv-x="1038" 
d="M295 1593v-1450h680v-143h-848v1593h168z" />
    <glyph glyph-name="M" unicode="M" horiz-adv-x="1513" 
d="M295 1444v-1444h-168v1593h279l348 -1312h6l342 1312h284v-1593h-167v1444h-5l-389 -1444h-137l-389 1444h-4z" />
    <glyph glyph-name="N" unicode="N" horiz-adv-x="1327" 
d="M295 1448v-1448h-168v1593h266l635 -1255h4v1255h168v-1593h-168l-733 1448h-4z" />
    <glyph glyph-name="O" unicode="O" horiz-adv-x="1339" 
d="M670 1626q124 0 230 -56.5t183 -161t120.5 -261.5t43.5 -350t-43.5 -350.5t-120.5 -262t-183 -161t-230 -56.5t-230 56.5t-183.5 161t-121 262t-43.5 350.5t43.5 350t121 261.5t183.5 161t230 56.5zM670 1489q-85 0 -157.5 -41t-130 -123t-90 -217t-32.5 -311
q0 -141 21.5 -257t59 -196t89.5 -134.5t112 -80t128 -25.5q85 0 157.5 41.5t129.5 123t89.5 217t32.5 311.5t-32.5 311t-89.5 217t-129.5 123t-157.5 41z" />
    <glyph glyph-name="P" unicode="P" horiz-adv-x="1150" 
d="M127 1593h438q114 0 206 -28t149.5 -72.5t96.5 -103t54.5 -116t15.5 -116.5q0 -63 -15 -121t-53.5 -117.5t-98.5 -103t-158 -71t-223 -27.5h-244v-717h-168v1593zM295 1450v-590h139q45 0 75 0.5t74 3.5t74.5 8.5t68.5 16t64 25.5t52.5 37t42 50.5t25.5 67.5t10 86
q0 61 -17 109t-40.5 79t-68.5 52.5t-79 32t-94.5 16t-94 6t-97.5 0.5h-17h-117z" />
    <glyph glyph-name="Q" unicode="Q" horiz-adv-x="1339" 
d="M1012 -229h112v-144h-112q-59 0 -103.5 4.5t-93 16.5t-83.5 36.5t-66 62.5t-51 96t-29 134q-95 15 -173.5 60.5t-130.5 111.5t-90.5 144t-59.5 167.5t-30.5 171.5t-9.5 165q0 193 43.5 350t121 261.5t183.5 161t230 56.5t230 -56.5t183 -161t120.5 -261.5t43.5 -350
q0 -101 -13 -199t-47.5 -205t-88.5 -190.5t-143.5 -145.5t-204.5 -80q7 -57 28 -97t45.5 -61t61.5 -32t63 -13.5t64 -2.5zM670 1489q-85 0 -157.5 -41t-130 -123t-90 -217t-32.5 -311q0 -141 21.5 -257t59 -196t89.5 -134.5t112 -80t128 -25.5q85 0 157.5 41.5t129.5 123
t89.5 217t32.5 311.5t-32.5 311t-89.5 217t-129.5 123t-157.5 41z" />
    <glyph glyph-name="R" unicode="R" horiz-adv-x="1167" 
d="M127 1593h377q103 0 188 -15.5t144 -40.5t104 -61.5t71.5 -75t43 -84.5t22.5 -86t6 -83q0 -141 -82.5 -250t-218.5 -154l305 -743h-186l-289 717h-317v-717h-168v1593zM295 1450v-590h225q96 0 167.5 17t114.5 43.5t69 66t35 79t9 87.5q0 158 -93 227.5t-271 69.5h-256z
" />
    <glyph glyph-name="S" unicode="S" horiz-adv-x="1210" 
d="M1102 1210l-152 -47q-22 75 -46 127.5t-62 101t-94 73t-130 24.5q-111 0 -195.5 -79t-84.5 -193q0 -63 26.5 -113t71.5 -84t103 -62.5t122.5 -54t129 -53.5t122.5 -66t103 -86t71.5 -119.5t26.5 -160.5q0 -205 -134.5 -328t-340.5 -123q-212 0 -356.5 121.5t-186.5 329.5
l162 39q31 -149 134.5 -251t248.5 -102q125 0 215 84.5t90 210.5q0 71 -26.5 126t-71.5 91t-103 65.5t-122.5 54t-129 50.5t-122.5 61t-103 79.5t-71.5 112t-26.5 153.5q0 128 62 228t166 153t231 53q180 0 303 -116.5t170 -299.5z" />
    <glyph glyph-name="T" unicode="T" horiz-adv-x="1089" 
d="M1057 1593v-143h-428v-1450h-168v1450h-428v143h1024z" />
    <glyph glyph-name="U" unicode="U" horiz-adv-x="1249" 
d="M1130 1593v-1093q0 -123 -31.5 -219t-81 -154t-118 -95t-135 -51t-139.5 -14t-139.5 14t-135 51t-118.5 95t-81.5 154t-31.5 219v1093h168v-977q0 -62 2 -105.5t9.5 -99t21 -93t38.5 -76.5t60.5 -62t87.5 -38t119 -15t119 15t87.5 38t60.5 62t38.5 76.5t21 93t9.5 99
t2 105.5v977h167z" />
    <glyph glyph-name="V" unicode="V" horiz-adv-x="1079" 
d="M1079 1593l-471 -1593h-153l-455 1593h172l358 -1296h5l380 1296h164z" />
    <glyph glyph-name="W" unicode="W" horiz-adv-x="1585" 
d="M1585 1593l-364 -1593h-164l-271 1303h-4l-284 -1303h-164l-334 1593h160l262 -1286h4l287 1286h157l273 -1286h4l280 1286h158z" />
    <glyph glyph-name="X" unicode="X" horiz-adv-x="1114" 
d="M1047 1593l-398 -757l449 -836h-193l-352 682h-4l-354 -682h-179l437 836l-412 757h192l316 -600h4l315 600h179z" />
    <glyph glyph-name="Y" unicode="Y" horiz-adv-x="1097" 
d="M1098 1593l-455 -925v-668h-168v668l-475 925h176l385 -764h4l363 764h170z" />
    <glyph glyph-name="Z" unicode="Z" horiz-adv-x="1083" 
d="M1004 1593v-141l-719 -1309h719v-143h-924v129l727 1321h-653v143h850z" />
    <glyph glyph-name="bracketleft" unicode="[" horiz-adv-x="532" 
d="M528 1593v-135h-204v-1519h204v-136h-364v1790h364z" />
    <glyph glyph-name="backslash" unicode="\" horiz-adv-x="569" 
d="M547 0l-668 1593h144l667 -1593h-143z" />
    <glyph glyph-name="bracketright" unicode="]" horiz-adv-x="532" 
d="M4 1593h365v-1790h-365v136h205v1519h-205v135z" />
    <glyph glyph-name="asciicircum" unicode="^" horiz-adv-x="1351" 
d="M279 666h-129l471 927h106l473 -927h-127l-401 761z" />
    <glyph glyph-name="underscore" unicode="_" horiz-adv-x="1024" 
d="M1024 -256h-1024v102h1024v-102z" />
    <glyph glyph-name="grave" unicode="`" horiz-adv-x="651" 
d="M270 1593l144 -295h-115l-217 295h188z" />
    <glyph glyph-name="a" unicode="a" horiz-adv-x="1024" 
d="M928 0h-174l-17 143q-85 -83 -161 -129.5t-166 -46.5q-130 0 -222 95t-92 229q0 63 19 117.5t44 92.5t76 74t86 56t105.5 44.5t103 34t108.5 29.5q11 3 17 4.5t15 4t16 4.5l51 14v63q0 95 -58.5 147t-156.5 52q-154 0 -276 -178l-113 84q159 229 389 229
q62 0 124.5 -19.5t120 -59t94 -110.5t36.5 -163v-561q0 -11 0.5 -41.5t1 -44t2.5 -40t5 -43.5t8.5 -39.5t13.5 -41.5zM737 635l-63 -19q-11 -3 -48.5 -14t-55 -16t-55 -18t-58.5 -22t-53.5 -25t-51.5 -30.5t-42 -35.5t-35 -42.5t-20.5 -48.5t-8.5 -57q0 -73 50 -130.5
t120 -57.5q89 0 172.5 52t148.5 132v332z" />
    <glyph glyph-name="b" unicode="b" horiz-adv-x="1085" 
d="M287 842v-525q38 -81 112.5 -146t153.5 -65q35 0 70.5 13.5t71.5 46.5t63.5 82t45 126.5t17.5 172.5q0 57 -6.5 115.5t-25 125.5t-47 117.5t-78 84.5t-113.5 34q-87 0 -155.5 -51t-108.5 -131zM287 129v-129h-160v1593h160v-579q141 149 282 149q60 0 118.5 -21.5
t113.5 -69.5t96.5 -118.5t66.5 -176.5t25 -234q0 -124 -28.5 -225.5t-72.5 -165t-101 -107t-110 -61t-102 -17.5q-88 0 -156.5 42t-131.5 120z" />
    <glyph glyph-name="c" unicode="c" horiz-adv-x="1034" 
d="M909 877l-135 -62q-17 45 -35 79t-45 67.5t-64.5 50.5t-82.5 16q-71 0 -125 -30.5t-85 -76.5t-50.5 -110.5t-26 -123t-6.5 -122.5t6.5 -122.5t26 -123t50.5 -110.5t85 -76.5t125 -30.5q167 7 264 228l129 -58q-52 -134 -156.5 -219.5t-236.5 -85.5q-97 0 -177.5 34.5
t-143 104.5t-97.5 187t-35 272t35 272t97.5 187t143 104.5t177.5 34.5q259 0 362 -286z" />
    <glyph glyph-name="d" unicode="d" horiz-adv-x="1083" 
d="M797 317v525q-40 79 -109 130.5t-156 51.5q-64 0 -113.5 -34t-78 -84.5t-47 -117.5t-25 -125.5t-6.5 -115.5q0 -95 17.5 -172.5t45 -126.5t63.5 -82t71.5 -46.5t70.5 -13.5q79 0 154 65t113 146zM797 1014v579h159v-1593h-159v129q-63 -78 -132 -120t-157 -42
q-49 0 -102 17.5t-110 61t-101 107t-72.5 165t-28.5 225.5q0 128 25 234t66.5 176.5t96.5 118.5t113.5 69.5t118.5 21.5q142 0 283 -149z" />
    <glyph glyph-name="e" unicode="e" horiz-adv-x="1048" 
d="M944 539h-682q0 -228 83 -332.5t218 -104.5q83 0 156 56.5t121 138.5l114 -76q-47 -112 -156 -183t-251 -71q-97 0 -177.5 34.5t-143 104.5t-97.5 187t-35 272t35 272t97.5 187t143 104.5t177.5 34.5q94 0 168 -38.5t119.5 -101.5t73 -145.5t35.5 -167.5t1 -171zM266 674
h510q2 57 -12.5 117t-43 114t-77 88.5t-108.5 34.5q-65 0 -117.5 -32.5t-84.5 -85t-49 -113.5t-18 -123z" />
    <glyph glyph-name="f" unicode="f" horiz-adv-x="587" 
d="M557 1130v-135h-209v-995h-160v995h-172v135h172v205q0 143 77.5 217t221.5 74l84 -12v-137q-44 14 -77 14q-85 0 -115.5 -38.5t-30.5 -115.5v-207h209z" />
    <glyph glyph-name="g" unicode="g" horiz-adv-x="1132" 
d="M788 770q0 117 -62 194.5t-177 77.5q-112 0 -181 -80.5t-69 -193.5q0 -110 64.5 -188t171.5 -78q120 0 186.5 74t66.5 194zM608 53l-168 17q-36 -7 -70.5 -19.5t-68 -32.5t-54 -51t-20.5 -67q0 -164 338 -164q52 0 99.5 6.5t101 23.5t85.5 55t32 93q0 25 -11.5 45
t-27.5 33.5t-42.5 24t-48.5 16.5t-53.5 10.5t-48.5 6t-43 3.5zM1047 1169v-141h-60q-40 0 -63.5 -4t-51.5 -20q70 -104 70 -234q0 -165 -109 -277t-272 -112q-92 0 -182 35q-4 -4 -22.5 -18t-27.5 -22t-21.5 -22t-18.5 -28.5t-6 -30.5q0 -25 32.5 -40.5t85.5 -21
t120.5 -12.5t138 -14.5t138 -28.5t120.5 -52t85.5 -88t32.5 -134q0 -23 -2.5 -43.5t-13.5 -51.5t-29.5 -56.5t-55 -53.5t-85.5 -46.5t-124.5 -31t-168.5 -12.5q-133 0 -230.5 24t-150.5 65.5t-77.5 89.5t-24.5 103q0 137 196 222q-141 56 -141 157q0 35 14 64.5t32 47
t47.5 46t47.5 49.5q-68 79 -96.5 141.5t-28.5 155.5q0 170 114 279.5t286 109.5q134 0 246 -80q133 99 256 86z" />
    <glyph glyph-name="h" unicode="h" horiz-adv-x="1005" 
d="M283 1593v-579q48 39 72.5 57t67.5 44t84 37t87 11q289 0 289 -383v-780h-160v739q0 11 0.5 37t0.5 40t-1 38.5t-3.5 39.5t-7.5 36t-12.5 33.5t-19 27t-26.5 22.5t-35.5 13.5t-45.5 5.5q-68 0 -152.5 -54t-137.5 -118v-860h-160v1593h160z" />
    <glyph glyph-name="i" unicode="i" horiz-adv-x="413" 
d="M287 1130v-1130h-160v1130h160zM287 1593v-176h-160v176h160z" />
    <glyph glyph-name="j" unicode="j" horiz-adv-x="413" 
d="M287 1130v-1251q0 -150 -64 -214t-194 -64h-74v153q46 -8 65 -8q23 0 40.5 4.5t28.5 13t19 20.5t11.5 26t5.5 29.5t2 32.5v34v18v1206h160zM287 1593v-176h-160v176h160z" />
    <glyph glyph-name="k" unicode="k" horiz-adv-x="972" 
d="M287 1593v-987l420 524h178l-312 -387l359 -743h-172l-289 614l-184 -227v-387h-160v1593h160z" />
    <glyph glyph-name="l" unicode="l" horiz-adv-x="413" 
d="M287 1593v-1593h-160v1593h160z" />
    <glyph glyph-name="m" unicode="m" horiz-adv-x="1626" 
d="M283 883v-883h-160v1130h160v-100q83 68 152.5 100.5t160.5 32.5q184 0 272 -153q92 74 170.5 113t175.5 40q289 0 289 -383v-780h-160v739q0 11 0.5 36.5t0.5 40t-1 39t-3.5 39.5t-7.5 36t-12 33.5t-18.5 27t-26.5 22.5t-35.5 13.5t-45.5 5.5q-81 1 -161.5 -43
t-139.5 -106v-883h-160v739q0 11 0.5 36.5t0.5 40t-1 39t-3.5 39.5t-7.5 36t-12 33.5t-18.5 27t-26.5 22.5t-35.5 13.5t-45.5 5.5q-49 -1 -91.5 -13t-81.5 -36.5t-64 -44.5t-64 -55z" />
    <glyph glyph-name="n" unicode="n" horiz-adv-x="1005" 
d="M283 860v-860h-160v1130h160v-116q48 39 72.5 57t67.5 44t84 37t87 11q289 0 289 -383v-780h-160v739q0 11 0.5 37t0.5 40t-1 38.5t-3.5 39.5t-7.5 36t-12.5 33.5t-19 27t-26.5 22.5t-35.5 13.5t-45.5 5.5q-68 0 -152.5 -54t-137.5 -118z" />
    <glyph glyph-name="o" unicode="o" horiz-adv-x="1093" 
d="M547 -33q-97 0 -177.5 34.5t-143 104.5t-97.5 187t-35 272t35 272t97.5 187t143 104.5t177.5 34.5t177.5 -34.5t142.5 -104.5t97 -187t35 -272t-35 -272t-97 -187t-142.5 -104.5t-177.5 -34.5zM547 102q71 0 125 30.5t85 76.5t50.5 110.5t26 123t6.5 122.5t-6.5 122.5
t-26 123t-50.5 110.5t-85 76.5t-125 30.5t-125 -30.5t-85 -76.5t-50.5 -110.5t-26 -123t-6.5 -122.5t6.5 -122.5t26 -123t50.5 -110.5t85 -76.5t125 -30.5z" />
    <glyph glyph-name="p" unicode="p" horiz-adv-x="1083" 
d="M287 842v-525q38 -81 112.5 -146t153.5 -65q35 0 70.5 13.5t71.5 46.5t63.5 82t45 126.5t17.5 172.5q0 57 -6.5 115.5t-25 125.5t-47 117.5t-78 84.5t-113.5 34q-87 0 -155.5 -51t-108.5 -131zM287 129v-479h-160v1480h160v-116q141 149 282 149q60 0 118.5 -21.5
t113.5 -69.5t96.5 -118.5t66.5 -176.5t25 -234q0 -124 -28.5 -225.5t-72.5 -165t-101 -107t-110 -61t-102 -17.5q-88 0 -156.5 42t-131.5 120z" />
    <glyph glyph-name="q" unicode="q" horiz-adv-x="1083" 
d="M797 317v525q-40 79 -109 130.5t-156 51.5q-64 0 -113.5 -34t-78 -84.5t-47 -117.5t-25 -125.5t-6.5 -115.5q0 -95 17.5 -172.5t45 -126.5t63.5 -82t71.5 -46.5t70.5 -13.5q79 0 154 65t113 146zM797 1014v116h159v-1480h-159v479q-63 -78 -132 -120t-157 -42
q-49 0 -102 17.5t-110 61t-101 107t-72.5 165t-28.5 225.5q0 128 25 234t66.5 176.5t96.5 118.5t113.5 69.5t118.5 21.5q142 0 283 -149z" />
    <glyph glyph-name="r" unicode="r" horiz-adv-x="714" 
d="M287 1130v-243h4q27 57 53 98.5t63 81t87 60t110 20.5h62v-146q-60 8 -114 -11.5t-92 -54.5t-73.5 -89t-57 -100.5t-42.5 -104.5v-641h-160v1130h160z" />
    <glyph glyph-name="s" unicode="s" horiz-adv-x="983" 
d="M866 967l-112 -88q-50 74 -111 111.5t-147 37.5q-85 0 -144 -43.5t-59 -124.5q0 -56 33 -96t85.5 -64.5t116 -45.5t127 -46.5t116 -58.5t85.5 -90.5t33 -134.5q0 -163 -104 -260t-267 -97q-138 0 -246 60t-176 178l127 80q95 -183 295 -183q94 0 157.5 50.5t63.5 142.5
q0 45 -20.5 80.5t-55 58t-79 41.5t-94 35.5t-99 34.5t-94 44t-79 59.5t-55 85t-20.5 116.5q0 142 100.5 227.5t245.5 85.5q245 0 377 -196z" />
    <glyph glyph-name="t" unicode="t" horiz-adv-x="620" 
d="M348 1497v-367h256v-135h-256v-710v-36t1 -31.5t3 -30t6.5 -24.5t11 -22t16 -16t22.5 -13.5t30 -6.5t39 -3q69 0 127 15v-117q-94 -33 -160 -33q-75 0 -125.5 21t-76 47t-38.5 83.5t-14.5 94t-1.5 114.5v29v639h-172v135h172v367h160z" />
    <glyph glyph-name="u" unicode="u" horiz-adv-x="1005" 
d="M723 270v860h160v-1130h-160v117q-50 -40 -73 -57.5t-66.5 -44t-84.5 -37.5t-87 -11q-289 0 -289 383v780h160v-739q0 -293 149 -293q68 0 153 54t138 118z" />
    <glyph glyph-name="v" unicode="v" horiz-adv-x="913" 
d="M897 1130l-319 -1130h-234l-328 1130h156l291 -983l282 983h152z" />
    <glyph glyph-name="w" unicode="w" horiz-adv-x="1361" 
d="M1346 1130l-299 -1130h-158l-205 897h-4l-211 -897h-162l-291 1130h156l217 -919h4l217 919h156l207 -919h4l211 919h158z" />
    <glyph glyph-name="x" unicode="x" horiz-adv-x="937" 
d="M840 1130l-295 -534l368 -596h-192l-272 453l-250 -453h-174l331 596l-331 534h190l234 -397l221 397h170z" />
    <glyph glyph-name="y" unicode="y" horiz-adv-x="933" 
d="M918 1130l-375 -1175q-25 -78 -55.5 -137t-76 -108t-109.5 -75t-146 -26q-55 0 -123 22l24 136q62 -17 93 -17q47 0 85 16t63 39.5t47 62t34 71.5t27 81l-390 1110h162l307 -882l281 882h152z" />
    <glyph glyph-name="z" unicode="z" horiz-adv-x="950" 
d="M854 1130v-100l-565 -895h565v-135h-760v117l559 878h-508v135h709z" />
    <glyph glyph-name="braceleft" unicode="{" horiz-adv-x="681" 
d="M258 938v360q0 162 69 230t253 65v-4q-88 -27 -125 -85.5t-37 -162.5v-364q0 -118 -44 -186t-143 -91v-4q99 -23 143 -90.5t44 -185.5v-365q0 -104 37 -162.5t125 -85.5v-4q-184 -3 -253 65t-69 230v361q0 52 -5.5 87t-21.5 67.5t-48 52.5t-83 30v4q96 19 127 75t31 163z
" />
    <glyph glyph-name="bar" unicode="|" horiz-adv-x="454" 
d="M147 -512v2048h160v-2048h-160z" />
    <glyph glyph-name="braceright" unicode="}" horiz-adv-x="681" 
d="M424 1298v-360q0 -107 31 -163t127 -75v-4q-51 -10 -83 -30t-48 -52.5t-21.5 -67.5t-5.5 -87v-361q0 -162 -69 -230t-253 -65v4q88 27 125 85.5t37 162.5v365q0 118 44 185.5t143 90.5v4q-99 23 -143 91t-44 186v364q0 104 -37 162.5t-125 85.5v4q184 3 253 -65t69 -230z
" />
    <glyph glyph-name="asciitilde" unicode="~" horiz-adv-x="1351" 
d="M1106 733l82 -90q-46 -98 -118 -155.5t-169 -57.5q-74 0 -246 74q-12 5 -40 17.5t-41 18.5t-34.5 14.5t-34.5 12.5t-27.5 7.5t-24.5 3.5q-18 0 -34.5 -3.5t-32.5 -12.5t-28 -15t-27.5 -23t-23 -23.5t-23 -28t-18.5 -25.5t-19 -28l-16 -24l-67 117q54 90 122.5 145.5
t166.5 55.5q75 0 239 -74q136 -61 180 -70q17 -4 31 -4q99 0 203 168z" />
    <glyph glyph-name="exclamdown" unicode="&#xa1;" horiz-adv-x="366" 
d="M82 -391l45 1012h113l45 -1012h-203zM80 891v239h207v-239h-207z" />
    <glyph glyph-name="cent" unicode="&#xa2;" 
d="M981 1116l-135 -61q-17 45 -35 79t-45 67t-65 50.5t-83 16.5q-71 0 -124.5 -30.5t-84.5 -76.5t-50.5 -110.5t-26 -122.5t-6.5 -123t6.5 -123t26 -122.5t50.5 -110.5t84.5 -76.5t124.5 -30.5q168 7 265 227l129 -57q-48 -121 -141.5 -206.5t-211.5 -94.5v-188h-143v192
q-71 12 -133 55t-111 114t-77.5 180t-28.5 241q0 76 8 143.5t31 142.5t60.5 132.5t102 103.5t148.5 66v178h143v-172q115 -7 198 -86t124 -197z" />
    <glyph glyph-name="sterling" unicode="&#xa3;" 
d="M479 213q-40 24 -57 33.5t-51 21t-66 11.5q-43 0 -79 -27t-36 -68q0 -40 34 -64t75 -24q30 0 55.5 8.5t49 29t37 35t38.5 44.5zM586 911h327v-143h-288q1 -6 11 -47.5t13 -53.5t10 -47t9.5 -54.5t5 -47.5t2.5 -53q0 -68 -27 -195q103 -71 159 -105t71.5 -39t33.5 -5
q20 0 37 7.5t27 16t20.5 28t14.5 30t13 35.5t11 32l127 -43q-24 -112 -83 -186t-162 -74q-66 0 -116 24.5t-216 141.5q-65 -83 -131.5 -124.5t-159.5 -41.5q-102 0 -175 58.5t-73 158.5q0 101 70 163.5t172 62.5q98 0 229 -62l6 94q0 149 -71 326h-281v143h242
q-41 157 -41 271q0 67 16 131t48.5 120.5t77.5 99.5t106.5 68t132.5 25q124 0 216 -73t140 -193l-131 -62q-20 42 -37.5 70t-43.5 57.5t-60.5 44.5t-77.5 15q-77 0 -130.5 -46t-75.5 -110.5t-22 -138.5q0 -125 54 -279z" />
    <glyph glyph-name="currency" unicode="&#xa4;" 
d="M86 440l88 86q-98 143 -98 303q0 91 23 164t75 146l-88 88l107 108l90 -88q133 101 315 101q152 0 299 -101l90 88l107 -108l-88 -88q52 -74 75 -150t23 -170q0 -82 -24 -150t-74 -143l88 -86l-107 -108l-90 88q-139 -103 -317 -103q-150 0 -297 103l-90 -88zM598 1200
q-160 3 -267 -104t-104 -267q-3 -149 104 -256.5t255 -107.5q154 0 260 107t106 264q0 149 -103.5 258t-250.5 106z" />
    <glyph glyph-name="yen" unicode="&#xa5;" 
d="M1141 1593l-338 -565h266v-143h-356l-31 -58v-118h387v-144h-387v-565h-168v565h-405v144h405v118l-37 58h-368v143h280l-352 565h190l373 -614l354 614h187z" />
    <glyph glyph-name="brokenbar" unicode="&#xa6;" horiz-adv-x="454" 
d="M307 1382v-716h-160v716h160zM147 -358v716h160v-716h-160z" />
    <glyph glyph-name="section" unicode="&#xa7;" horiz-adv-x="1114" 
d="M475 477l252 -117q67 38 110.5 99.5t43.5 132.5q0 44 -19 81.5t-55 67.5t-68 49.5t-77 40.5l-252 121q-65 -42 -110.5 -106t-45.5 -131q0 -44 19.5 -81.5t56 -67t68.5 -48.5t77 -41zM975 1272l-141 -33q-26 114 -99 179t-190 65q-87 0 -159.5 -51.5t-72.5 -133.5
q0 -64 39 -114.5t101 -85t137 -66.5t150.5 -68.5t137.5 -81.5t101 -115.5t39 -160.5q0 -101 -47 -175t-137 -136q74 -61 111.5 -123.5t37.5 -148.5q0 -156 -118 -255.5t-300 -99.5q-189 0 -304.5 92t-166.5 281l133 41q35 -127 116 -198.5t208 -71.5q51 0 97.5 11.5t87.5 35
t65 65t24 96.5q0 60 -39 108t-101.5 82t-138 66t-151 69t-138 81.5t-101.5 112.5t-39 153q0 99 48.5 174t137.5 148q-72 62 -103.5 121t-31.5 147q0 100 53 180t138 122t184 42q167 0 278.5 -94.5t153.5 -259.5z" />
    <glyph glyph-name="dieresis" unicode="&#xa8;" horiz-adv-x="827" 
d="M319 1563v-174h-159v174h159zM668 1563v-174h-160v174h160z" />
    <glyph glyph-name="copyright" unicode="&#xa9;" horiz-adv-x="1720" 
d="M860 -33q-169 0 -322.5 66t-264.5 177t-176.5 265t-65.5 322t65.5 321.5t176.5 264.5t264.5 177t322.5 66t323 -66t265 -177t176.5 -264.5t65.5 -321.5t-65.5 -322t-176.5 -265t-265 -177t-323 -66zM860 94q146 0 276 54.5t224 148.5t148.5 224t54.5 276t-54.5 276
t-148.5 223.5t-224 148t-276 54.5t-276 -54.5t-223.5 -148t-148 -223.5t-54.5 -276t54.5 -276t148 -224t223.5 -148.5t276 -54.5zM1219 1026l-123 -25q-27 105 -81.5 164.5t-160.5 59.5q-262 0 -262 -426t262 -426q193 0 242 221l123 -27q-31 -135 -126 -221t-239 -86
q-180 0 -301 145.5t-121 393.5q0 247 121 392.5t301 145.5q143 0 236 -85.5t129 -225.5z" />
    <glyph glyph-name="ordfeminine" unicode="&#xaa;" horiz-adv-x="655" 
d="M455 1288l-41 -12q-2 -1 -30 -8t-37 -10t-36 -11.5t-39 -15t-34 -17t-33 -21t-23.5 -24.5t-18 -30.5t-5.5 -34.5q0 -41 30 -69.5t70 -28.5q56 0 108.5 27t88.5 71v184zM602 909h-133l-12 78q-99 -86 -205 -86q-90 0 -149.5 55.5t-59.5 145.5q0 38 12.5 70.5t31 55.5
t50.5 44.5t58 34.5t68 26.5t67 20.5t66 17q19 5 28 7l31 8v25q0 58 -34.5 87.5t-94.5 29.5q-93 0 -174 -111l-89 60q109 149 263 149q108 0 180 -61.5t72 -165.5v-326q0 -40 0.5 -58.5t6 -49.5t17.5 -56z" />
    <glyph glyph-name="guillemotleft" unicode="&#xab;" horiz-adv-x="860" 
d="M621 299l-240 291l240 289h159l-239 -289l239 -291h-159zM319 299l-239 291l239 289h160l-239 -289l239 -291h-160z" />
    <glyph glyph-name="logicalnot" unicode="&#xac;" horiz-adv-x="1351" 
d="M1044 229v447h-880v143h1024v-590h-144z" />
    <glyph glyph-name="registered" unicode="&#xae;" horiz-adv-x="1720" 
d="M860 -33q-169 0 -322.5 66t-264.5 177t-176.5 265t-65.5 322t65.5 321.5t176.5 264.5t264.5 177t322.5 66t323 -66t265 -177t176.5 -264.5t65.5 -321.5t-65.5 -322t-176.5 -265t-265 -177t-323 -66zM860 94q146 0 276 54.5t224 148.5t148.5 224t54.5 276t-54.5 276
t-148.5 223.5t-224 148t-276 54.5t-276 -54.5t-223.5 -148t-148 -223.5t-54.5 -276t54.5 -276t148 -224t223.5 -148.5t276 -54.5zM530 1296h347q82 0 145 -18t100 -46t60.5 -67.5t32 -77.5t8.5 -81q0 -95 -63 -168.5t-171 -94.5l213 -483h-139l-203 465h-203v-465h-127v1036
zM657 1184v-346h168q76 0 127 12.5t76 37t34 52.5t9 68q0 95 -57 135.5t-166 40.5h-191z" />
    <glyph glyph-name="macron" unicode="&#xaf;" horiz-adv-x="1036" 
d="M877 1593v-143h-717v143h717z" />
    <glyph glyph-name="degree" unicode="&#xb0;" horiz-adv-x="819" 
d="M717 1319q0 -127 -90.5 -217t-216.5 -90q-128 0 -218 90t-90 217q-1 126 89.5 216.5t218.5 90.5q126 0 216.5 -90.5t90.5 -216.5zM614 1319q0 85 -60 145t-146 60q-85 0 -144.5 -60t-58.5 -145q0 -86 59.5 -145.5t145.5 -59.5q85 0 144.5 59.5t59.5 145.5z" />
    <glyph glyph-name="plusminus" unicode="&#xb1;" horiz-adv-x="1351" 
d="M604 1077h144v-317h440v-144h-440v-317h-144v317h-440v144h440v317zM164 53v144h1024v-144h-1024z" />
    <glyph glyph-name="twosuperior" unicode="&#xb2;" horiz-adv-x="706" 
d="M182 754h471v-103h-602v103q31 67 74.5 125.5t87 99.5t90 78.5t86 69.5t71.5 66t50 75.5t18 89.5q0 74 -40.5 120t-118.5 46q-81 0 -127.5 -51t-59.5 -130l-114 25q24 114 105.5 186t203.5 72q123 0 198.5 -75t75.5 -189q0 -59 -20 -110.5t-53.5 -91.5t-75 -77t-88.5 -74
t-89.5 -73.5t-81 -83.5t-61.5 -98z" />
    <glyph glyph-name="threesuperior" unicode="&#xb3;" horiz-adv-x="706" 
d="M299 1108l-68 -8v106l86 -8q93 0 148 48t55 122q0 78 -43.5 117t-124.5 39q-56 0 -93.5 -24.5t-78.5 -76.5l-104 52q47 70 123.5 110.5t173.5 40.5q123 0 196.5 -71t73.5 -175q0 -83 -37 -134t-117 -89q88 -27 134.5 -89.5t46.5 -149.5q0 -132 -88 -209.5t-230 -77.5
q-215 0 -315 180l110 45q45 -65 89.5 -94t115.5 -29q90 0 142.5 43t52.5 129q0 112 -62.5 157.5t-185.5 45.5z" />
    <glyph glyph-name="acute" unicode="&#xb4;" horiz-adv-x="651" 
d="M238 1298l143 295h188l-217 -295h-114z" />
    <glyph glyph-name="mu" unicode="&#xb5;" horiz-adv-x="1005" 
d="M723 270v860h160v-1130h-160v117q-50 -40 -73 -57.5t-66.5 -44t-84.5 -37.5t-87 -11q-96 0 -129 33v-391h-160v1521h160v-739q0 -293 149 -293q68 0 153 54t138 118z" />
    <glyph glyph-name="paragraph" unicode="&#xb6;" horiz-adv-x="1085" 
d="M981 1593v-1943h-123v1831h-123v-1831h-123v1145h-49q-85 0 -155.5 12.5t-120.5 33t-88.5 51t-62 64t-38.5 74t-20.5 78.5t-5.5 80q0 186 112.5 295.5t307.5 109.5h489zM575 907h37v574h-47q-69 0 -123.5 -13.5t-89 -32.5t-59 -48.5t-36.5 -53t-18 -55.5t-7 -47t-1 -35
q0 -73 18.5 -126t48.5 -84t76.5 -49t92.5 -24t108 -6z" />
    <glyph glyph-name="periodcentered" unicode="&#xb7;" horiz-adv-x="589" 
d="M397 709v-240h-207v240h207z" />
    <glyph glyph-name="cedilla" unicode="&#xb8;" horiz-adv-x="544" 
d="M381 -137l-121 -236h-104l71 236h154z" />
    <glyph glyph-name="onesuperior" unicode="&#xb9;" horiz-adv-x="706" 
d="M424 1612v-858h141v-103h-407v103h143v731l-160 -15v76l185 66h98z" />
    <glyph glyph-name="ordmasculine" unicode="&#xba;" horiz-adv-x="702" 
d="M350 891q-79 0 -138.5 30t-93.5 82.5t-50.5 117t-16.5 139.5q0 74 16.5 138t51 116t94 82t137.5 30t137.5 -30t94 -82t51 -116t16.5 -138q0 -75 -16.5 -139.5t-50.5 -117t-93.5 -82.5t-138.5 -30zM350 989q42 0 74.5 17t51 43t30.5 62.5t16 71.5t4 74t-4 74t-16 72.5
t-30.5 64t-51 43.5t-74.5 17t-74.5 -17t-51 -43.5t-30.5 -64t-16 -72.5t-4 -74t4 -74t16 -71.5t30.5 -62.5t51 -43t74.5 -17z" />
    <glyph glyph-name="guillemotright" unicode="&#xbb;" horiz-adv-x="860" 
d="M240 299h-160l239 291l-239 289h160l239 -289zM541 299h-160l240 291l-240 289h160l239 -289z" />
    <glyph glyph-name="onequarter" unicode="&#xbc;" horiz-adv-x="1769" 
d="M1219 1593h127l-863 -1593h-129zM1485 0h-123v229h-410v86l371 641h162v-624h143v-103h-143v-229zM1362 332v469h-4l-258 -469h262zM424 1612v-858h141v-103h-407v103h143v731l-160 -17v78l185 66h98z" />
    <glyph glyph-name="onehalf" unicode="&#xbd;" horiz-adv-x="1769" 
d="M1219 1593h127l-863 -1593h-129zM1190 102h471v-102h-602v102q31 67 74.5 125.5t87 99.5t90 78.5t86 70t71.5 66.5t50 75.5t18 89.5q0 74 -40.5 119.5t-119.5 45.5q-81 0 -127 -50.5t-59 -129.5l-115 25q24 114 105.5 186t203.5 72q123 0 199 -75t76 -189
q0 -59 -20 -110.5t-53.5 -92t-75 -77.5t-88.5 -73.5t-89.5 -73t-81 -84t-61.5 -98.5zM424 1612v-858h141v-103h-407v103h143v731l-160 -17v78l185 66h98z" />
    <glyph glyph-name="threequarters" unicode="&#xbe;" horiz-adv-x="1769" 
d="M1505 0h-123v229h-409v86l370 641h162v-624h144v-103h-144v-229zM1382 332v469h-4l-258 -469h262zM299 1108l-68 -8v106l86 -8q93 0 148 48t55 122q0 78 -43.5 117t-124.5 39q-56 0 -93.5 -24.5t-78.5 -76.5l-104 52q47 70 123.5 110.5t173.5 40.5q123 0 196.5 -71
t73.5 -175q0 -83 -37 -134t-117 -89q88 -27 134.5 -89.5t46.5 -149.5q0 -132 -88 -209.5t-230 -77.5q-215 0 -315 180l110 45q45 -65 89.5 -94t115.5 -29q90 0 142.5 43t52.5 129q0 112 -62.5 157.5t-185.5 45.5zM1280 1593h127l-862 -1593h-129z" />
    <glyph glyph-name="questiondown" unicode="&#xbf;" horiz-adv-x="724" 
d="M365 621h129v-76q0 -63 -15.5 -118t-40.5 -95.5t-54.5 -77.5t-59.5 -70.5t-55 -67.5t-40.5 -76t-15.5 -89q0 -79 39.5 -138t116.5 -59q36 0 64 11.5t51 38t35 45.5t34 59l127 -68q-45 -104 -127.5 -167.5t-190.5 -63.5q-146 0 -231.5 91t-85.5 245q0 76 33 150t80 132.5
t94 113t80 113t33 111.5v56zM326 891v239h206v-239h-206z" />
    <glyph glyph-name="Agrave" unicode="&#xc0;" horiz-adv-x="1144" 
d="M686 1593l459 -1593h-172l-146 508h-518l-137 -508h-172l449 1593h237zM788 651l-223 836h-4l-209 -836h436zM518 2056l144 -295h-115l-217 295h188z" />
    <glyph glyph-name="Aacute" unicode="&#xc1;" horiz-adv-x="1144" 
d="M686 1593l459 -1593h-172l-146 508h-518l-137 -508h-172l449 1593h237zM788 651l-223 836h-4l-209 -836h436zM485 1761l144 295h188l-217 -295h-115z" />
    <glyph glyph-name="Acircumflex" unicode="&#xc2;" horiz-adv-x="1144" 
d="M686 1593l459 -1593h-172l-146 508h-518l-137 -508h-172l449 1593h237zM788 651l-223 836h-4l-209 -836h436zM631 2056l223 -295h-160l-121 164l-127 -164h-153l221 295h117z" />
    <glyph glyph-name="Atilde" unicode="&#xc3;" horiz-adv-x="1144" 
d="M686 1593l459 -1593h-172l-146 508h-518l-137 -508h-172l449 1593h237zM788 651l-223 836h-4l-209 -836h436zM817 2064l98 -51q-93 -164 -204 -164q-48 0 -144 41q-8 3 -33 13t-35.5 14t-28 8t-30.5 4q-23 0 -40.5 -6.5t-33.5 -23.5t-23 -26.5t-24 -35.5l-88 61
q46 71 98 113.5t120 42.5q43 0 131 -37q80 -39 116 -39q9 0 18 1.5t15.5 3t14.5 6t12 6.5t12 9.5t10.5 9.5t10 12t9 11.5t10 13.5t9.5 13z" />
    <glyph glyph-name="Adieresis" unicode="&#xc4;" horiz-adv-x="1144" 
d="M686 1593l459 -1593h-172l-146 508h-518l-137 -508h-172l449 1593h237zM788 651l-223 836h-4l-209 -836h436zM479 2025v-174h-160v174h160zM827 2025v-174h-159v174h159z" />
    <glyph glyph-name="Aring" unicode="&#xc5;" horiz-adv-x="1144" 
d="M686 1593l459 -1593h-172l-146 508h-518l-137 -508h-172l449 1593h237zM788 651l-223 836h-4l-209 -836h436zM383 1898q0 78 56 134.5t134 56.5t134.5 -56.5t56.5 -134.5t-56.5 -134t-134.5 -56t-134 56t-56 134zM477 1898q0 -39 28.5 -67.5t67.5 -28.5t68 29t29 67
q0 39 -29 68t-68 29t-67.5 -29t-28.5 -68z" />
    <glyph glyph-name="AE" unicode="&#xc6;" horiz-adv-x="1892" 
d="M1729 1593v-143h-654v-543h461v-143h-461v-621h713v-143h-881v506h-461l-249 -506h-197l819 1593h910zM907 649v803h-4l-387 -803h391z" />
    <glyph glyph-name="Ccedilla" unicode="&#xc7;" horiz-adv-x="1273" 
d="M1163 1147l-149 -37q-14 61 -31 110.5t-45.5 101.5t-64 87t-88 57.5t-115.5 22.5q-85 0 -157.5 -41t-130 -123t-90 -217t-32.5 -311q0 -141 21.5 -257t59 -196t89.5 -134.5t112 -80t128 -25.5q75 0 135.5 32t101 88t66 119.5t41.5 139.5l155 -41q-17 -100 -57 -185
t-101 -150.5t-148.5 -102.5t-192.5 -37q-124 0 -230 56.5t-183.5 161t-121 262t-43.5 350.5t43.5 350t121 261.5t183.5 161t230 56.5q203 0 329.5 -132.5t163.5 -346.5zM745 -137l-120 -236h-105l72 236h153z" />
    <glyph glyph-name="Egrave" unicode="&#xc8;" horiz-adv-x="1142" 
d="M991 1593v-143h-696v-543h498v-143h-498v-621h743v-143h-911v1593h864zM516 2056l143 -295h-114l-217 295h188z" />
    <glyph glyph-name="Eacute" unicode="&#xc9;" horiz-adv-x="1142" 
d="M991 1593v-143h-696v-543h498v-143h-498v-621h743v-143h-911v1593h864zM483 1761l144 295h188l-217 -295h-115z" />
    <glyph glyph-name="Ecircumflex" unicode="&#xca;" horiz-adv-x="1142" 
d="M991 1593v-143h-696v-543h498v-143h-498v-621h743v-143h-911v1593h864zM629 2056l223 -295h-160l-121 164l-127 -164h-153l221 295h117z" />
    <glyph glyph-name="Edieresis" unicode="&#xcb;" horiz-adv-x="1142" 
d="M991 1593v-143h-696v-543h498v-143h-498v-621h743v-143h-911v1593h864zM477 2025v-174h-160v174h160zM825 2025v-174h-159v174h159z" />
    <glyph glyph-name="Igrave" unicode="&#xcc;" horiz-adv-x="421" 
d="M295 1593v-1593h-168v1593h168zM156 2056l143 -295h-115l-217 295h189z" />
    <glyph glyph-name="Iacute" unicode="&#xcd;" horiz-adv-x="421" 
d="M295 1593v-1593h-168v1593h168zM123 1761l143 295h189l-217 -295h-115z" />
    <glyph glyph-name="Icircumflex" unicode="&#xce;" horiz-adv-x="421" 
d="M295 1593v-1593h-168v1593h168zM268 2056l224 -295h-160l-121 164l-127 -164h-154l222 295h116z" />
    <glyph glyph-name="Idieresis" unicode="&#xcf;" horiz-adv-x="421" 
d="M295 1593v-1593h-168v1593h168zM117 2025v-174h-160v174h160zM465 2025v-174h-160v174h160z" />
    <glyph glyph-name="Eth" unicode="&#xd0;" horiz-adv-x="1316" 
d="M158 1593h393q136 0 247 -38.5t189.5 -108t132 -168t78.5 -217t25 -256.5q0 -393 -173 -599t-542 -206h-350v764h-168v143h168v686zM326 764v-621h157q298 3 435 162t137 506q0 309 -124.5 472.5t-369.5 166.5h-235v-543h336v-143h-336z" />
    <glyph glyph-name="Ntilde" unicode="&#xd1;" horiz-adv-x="1327" 
d="M295 1448v-1448h-168v1593h266l635 -1255h4v1255h168v-1593h-168l-733 1448h-4zM907 2064l99 -51q-38 -67 -90.5 -115.5t-114.5 -48.5q-48 0 -144 41q-8 3 -33 13t-35.5 14t-28 8t-30.5 4q-22 0 -39.5 -6t-34 -24t-22.5 -26.5t-24 -35.5l-88 61q47 71 98 113.5t119 42.5
q43 0 131 -37q80 -39 116 -39q9 0 18 1.5t15.5 3t14.5 6t12 6.5t12 9.5t10.5 9.5t10 12t9 11.5t10 13.5t9.5 13z" />
    <glyph glyph-name="Ograve" unicode="&#xd2;" horiz-adv-x="1339" 
d="M670 1626q124 0 230 -56.5t183 -161t120.5 -261.5t43.5 -350t-43.5 -350.5t-120.5 -262t-183 -161t-230 -56.5t-230 56.5t-183.5 161t-121 262t-43.5 350.5t43.5 350t121 261.5t183.5 161t230 56.5zM670 1489q-85 0 -157.5 -41t-130 -123t-90 -217t-32.5 -311
q0 -141 21.5 -257t59 -196t89.5 -134.5t112 -80t128 -25.5q85 0 157.5 41.5t129.5 123t89.5 217t32.5 311.5t-32.5 311t-89.5 217t-129.5 123t-157.5 41zM614 2056l144 -295h-115l-217 295h188z" />
    <glyph glyph-name="Oacute" unicode="&#xd3;" horiz-adv-x="1339" 
d="M670 1626q124 0 230 -56.5t183 -161t120.5 -261.5t43.5 -350t-43.5 -350.5t-120.5 -262t-183 -161t-230 -56.5t-230 56.5t-183.5 161t-121 262t-43.5 350.5t43.5 350t121 261.5t183.5 161t230 56.5zM670 1489q-85 0 -157.5 -41t-130 -123t-90 -217t-32.5 -311
q0 -141 21.5 -257t59 -196t89.5 -134.5t112 -80t128 -25.5q85 0 157.5 41.5t129.5 123t89.5 217t32.5 311.5t-32.5 311t-89.5 217t-129.5 123t-157.5 41zM582 1761l143 295h188l-217 -295h-114z" />
    <glyph glyph-name="Ocircumflex" unicode="&#xd4;" horiz-adv-x="1339" 
d="M670 1626q124 0 230 -56.5t183 -161t120.5 -261.5t43.5 -350t-43.5 -350.5t-120.5 -262t-183 -161t-230 -56.5t-230 56.5t-183.5 161t-121 262t-43.5 350.5t43.5 350t121 261.5t183.5 161t230 56.5zM670 1489q-85 0 -157.5 -41t-130 -123t-90 -217t-32.5 -311
q0 -141 21.5 -257t59 -196t89.5 -134.5t112 -80t128 -25.5q85 0 157.5 41.5t129.5 123t89.5 217t32.5 311.5t-32.5 311t-89.5 217t-129.5 123t-157.5 41zM727 2056l223 -295h-159l-121 164l-127 -164h-154l221 295h117z" />
    <glyph glyph-name="Otilde" unicode="&#xd5;" horiz-adv-x="1339" 
d="M670 1626q124 0 230 -56.5t183 -161t120.5 -261.5t43.5 -350t-43.5 -350.5t-120.5 -262t-183 -161t-230 -56.5t-230 56.5t-183.5 161t-121 262t-43.5 350.5t43.5 350t121 261.5t183.5 161t230 56.5zM670 1489q-85 0 -157.5 -41t-130 -123t-90 -217t-32.5 -311
q0 -141 21.5 -257t59 -196t89.5 -134.5t112 -80t128 -25.5q85 0 157.5 41.5t129.5 123t89.5 217t32.5 311.5t-32.5 311t-89.5 217t-129.5 123t-157.5 41zM913 2064l99 -51q-38 -67 -90.5 -115.5t-114.5 -48.5q-47 0 -143 41q-8 3 -33 13t-35.5 14t-28 8t-30.5 4
q-23 0 -40.5 -6.5t-33.5 -23.5t-23 -26.5t-24 -35.5l-88 61q47 71 98 113.5t119 42.5q43 0 131 -37q80 -39 117 -39q10 0 19 1t18 5t14.5 6t13.5 9.5t11.5 10t11.5 12.5t10.5 12.5t11 15t10.5 14.5z" />
    <glyph glyph-name="Odieresis" unicode="&#xd6;" horiz-adv-x="1339" 
d="M670 1626q124 0 230 -56.5t183 -161t120.5 -261.5t43.5 -350t-43.5 -350.5t-120.5 -262t-183 -161t-230 -56.5t-230 56.5t-183.5 161t-121 262t-43.5 350.5t43.5 350t121 261.5t183.5 161t230 56.5zM670 1489q-85 0 -157.5 -41t-130 -123t-90 -217t-32.5 -311
q0 -141 21.5 -257t59 -196t89.5 -134.5t112 -80t128 -25.5q85 0 157.5 41.5t129.5 123t89.5 217t32.5 311.5t-32.5 311t-89.5 217t-129.5 123t-157.5 41zM575 2025v-174h-159v174h159zM924 2025v-174h-160v174h160z" />
    <glyph glyph-name="multiply" unicode="&#xd7;" horiz-adv-x="1351" 
d="M164 975l102 102l410 -409l409 409l103 -102l-410 -410l410 -409l-103 -103l-409 410l-410 -410l-102 103l409 409z" />
    <glyph glyph-name="Oslash" unicode="&#xd8;" horiz-adv-x="1339" 
d="M1178 1669l114 -67l-172 -252q65 -91 96 -260.5t31 -292.5q0 -193 -43.5 -350.5t-120.5 -262t-183 -161t-230 -56.5q-217 0 -367 160l-149 -221l-107 71l174 261q-129 223 -129 559q0 193 43.5 350t121 261.5t183.5 161t230 56.5q215 0 372 -170zM322 381l630 948
q-57 78 -123 119t-159 41q-85 0 -157.5 -41t-130 -123t-90 -217t-32.5 -311q0 -242 62 -416zM1018 1198l-629 -938q62 -80 125 -118t156 -38q85 0 157.5 41.5t129.5 123t89.5 217t32.5 311.5q0 120 -12.5 214t-48.5 187z" />
    <glyph glyph-name="Ugrave" unicode="&#xd9;" horiz-adv-x="1249" 
d="M1130 1593v-1093q0 -123 -31.5 -219t-81 -154t-118 -95t-135 -51t-139.5 -14t-139.5 14t-135 51t-118.5 95t-81.5 154t-31.5 219v1093h168v-977q0 -62 2 -105.5t9.5 -99t21 -93t38.5 -76.5t60.5 -62t87.5 -38t119 -15t119 15t87.5 38t60.5 62t38.5 76.5t21 93t9.5 99
t2 105.5v977h167zM569 2056l144 -295h-115l-217 295h188z" />
    <glyph glyph-name="Uacute" unicode="&#xda;" horiz-adv-x="1249" 
d="M1130 1593v-1093q0 -123 -31.5 -219t-81 -154t-118 -95t-135 -51t-139.5 -14t-139.5 14t-135 51t-118.5 95t-81.5 154t-31.5 219v1093h168v-977q0 -62 2 -105.5t9.5 -99t21 -93t38.5 -76.5t60.5 -62t87.5 -38t119 -15t119 15t87.5 38t60.5 62t38.5 76.5t21 93t9.5 99
t2 105.5v977h167zM537 1761l143 295h188l-217 -295h-114z" />
    <glyph glyph-name="Ucircumflex" unicode="&#xdb;" horiz-adv-x="1249" 
d="M1130 1593v-1093q0 -123 -31.5 -219t-81 -154t-118 -95t-135 -51t-139.5 -14t-139.5 14t-135 51t-118.5 95t-81.5 154t-31.5 219v1093h168v-977q0 -62 2 -105.5t9.5 -99t21 -93t38.5 -76.5t60.5 -62t87.5 -38t119 -15t119 15t87.5 38t60.5 62t38.5 76.5t21 93t9.5 99
t2 105.5v977h167zM682 2056l223 -295h-160l-120 164l-127 -164h-154l221 295h117z" />
    <glyph glyph-name="Udieresis" unicode="&#xdc;" horiz-adv-x="1249" 
d="M1130 1593v-1093q0 -123 -31.5 -219t-81 -154t-118 -95t-135 -51t-139.5 -14t-139.5 14t-135 51t-118.5 95t-81.5 154t-31.5 219v1093h168v-977q0 -62 2 -105.5t9.5 -99t21 -93t38.5 -76.5t60.5 -62t87.5 -38t119 -15t119 15t87.5 38t60.5 62t38.5 76.5t21 93t9.5 99
t2 105.5v977h167zM530 2025v-174h-159v174h159zM879 2025v-174h-160v174h160z" />
    <glyph glyph-name="Yacute" unicode="&#xdd;" horiz-adv-x="1097" 
d="M1098 1593l-455 -925v-668h-168v668l-475 925h176l385 -764h4l363 764h170zM461 1761l143 295h189l-218 -295h-114z" />
    <glyph glyph-name="Thorn" unicode="&#xde;" horiz-adv-x="1150" 
d="M127 1593h168v-358h270q114 0 206 -28t149.5 -72.5t96.5 -103t54.5 -116t15.5 -116.5q0 -63 -15 -121t-53.5 -118t-98.5 -103.5t-158 -71t-223 -27.5h-244v-358h-168v1593zM295 1092v-590h139q45 0 75 0.5t74 3.5t74.5 8.5t68.5 16t64 25.5t52.5 37t42 50.5t25.5 67.5
t10 86q0 61 -17 109t-40.5 79t-68.5 52.5t-79 32t-94.5 16t-94 6t-97.5 0.5h-17h-117z" />
    <glyph glyph-name="germandbls" unicode="&#xdf;" horiz-adv-x="1064" 
d="M422 872v144q128 -11 208.5 47.5t80.5 185.5q0 102 -51 172t-150 70q-26 0 -50.5 -4t-57.5 -18t-57 -37.5t-41 -67.5t-17 -102v-1262h-160v1206q0 106 27 185.5t65.5 123t91.5 70t95 34t86 7.5q174 0 272 -100t98 -273q0 -98 -41.5 -167t-128.5 -123q262 -96 262 -463
q0 -117 -26.5 -211.5t-68 -153t-95.5 -98t-104.5 -55t-98.5 -15.5q-77 0 -145 45v138q65 -44 135 -44q97 0 166 120t69 280q0 68 -9 122t-33.5 104t-64.5 81.5t-105 48t-152 10.5z" />
    <glyph glyph-name="agrave" unicode="&#xe0;" horiz-adv-x="1024" 
d="M928 0h-174l-17 143q-85 -83 -161 -129.5t-166 -46.5q-130 0 -222 95t-92 229q0 63 19 117.5t44 92.5t76 74t86 56t105.5 44.5t103 34t108.5 29.5q11 3 17 4.5t15 4t16 4.5l51 14v63q0 95 -58.5 147t-156.5 52q-154 0 -276 -178l-113 84q159 229 389 229
q62 0 124.5 -19.5t120 -59t94 -110.5t36.5 -163v-561q0 -11 0.5 -41.5t1 -44t2.5 -40t5 -43.5t8.5 -39.5t13.5 -41.5zM737 635l-63 -19q-11 -3 -48.5 -14t-55 -16t-55 -18t-58.5 -22t-53.5 -25t-51.5 -30.5t-42 -35.5t-35 -42.5t-20.5 -48.5t-8.5 -57q0 -73 50 -130.5
t120 -57.5q89 0 172.5 52t148.5 132v332zM457 1593l143 -295h-115l-217 295h189z" />
    <glyph glyph-name="aacute" unicode="&#xe1;" horiz-adv-x="1024" 
d="M928 0h-174l-17 143q-85 -83 -161 -129.5t-166 -46.5q-130 0 -222 95t-92 229q0 63 19 117.5t44 92.5t76 74t86 56t105.5 44.5t103 34t108.5 29.5q11 3 17 4.5t15 4t16 4.5l51 14v63q0 95 -58.5 147t-156.5 52q-154 0 -276 -178l-113 84q159 229 389 229
q62 0 124.5 -19.5t120 -59t94 -110.5t36.5 -163v-561q0 -11 0.5 -41.5t1 -44t2.5 -40t5 -43.5t8.5 -39.5t13.5 -41.5zM737 635l-63 -19q-11 -3 -48.5 -14t-55 -16t-55 -18t-58.5 -22t-53.5 -25t-51.5 -30.5t-42 -35.5t-35 -42.5t-20.5 -48.5t-8.5 -57q0 -73 50 -130.5
t120 -57.5q89 0 172.5 52t148.5 132v332zM424 1298l143 295h189l-217 -295h-115z" />
    <glyph glyph-name="acircumflex" unicode="&#xe2;" horiz-adv-x="1024" 
d="M928 0h-174l-17 143q-85 -83 -161 -129.5t-166 -46.5q-130 0 -222 95t-92 229q0 63 19 117.5t44 92.5t76 74t86 56t105.5 44.5t103 34t108.5 29.5q11 3 17 4.5t15 4t16 4.5l51 14v63q0 95 -58.5 147t-156.5 52q-154 0 -276 -178l-113 84q159 229 389 229
q62 0 124.5 -19.5t120 -59t94 -110.5t36.5 -163v-561q0 -11 0.5 -41.5t1 -44t2.5 -40t5 -43.5t8.5 -39.5t13.5 -41.5zM737 635l-63 -19q-11 -3 -48.5 -14t-55 -16t-55 -18t-58.5 -22t-53.5 -25t-51.5 -30.5t-42 -35.5t-35 -42.5t-20.5 -48.5t-8.5 -57q0 -73 50 -130.5
t120 -57.5q89 0 172.5 52t148.5 132v332zM569 1593l224 -295h-160l-121 164l-127 -164h-154l222 295h116z" />
    <glyph glyph-name="atilde" unicode="&#xe3;" horiz-adv-x="1024" 
d="M928 0h-174l-17 143q-85 -83 -161 -129.5t-166 -46.5q-130 0 -222 95t-92 229q0 63 19 117.5t44 92.5t76 74t86 56t105.5 44.5t103 34t108.5 29.5q11 3 17 4.5t15 4t16 4.5l51 14v63q0 95 -58.5 147t-156.5 52q-154 0 -276 -178l-113 84q159 229 389 229
q62 0 124.5 -19.5t120 -59t94 -110.5t36.5 -163v-561q0 -11 0.5 -41.5t1 -44t2.5 -40t5 -43.5t8.5 -39.5t13.5 -41.5zM737 635l-63 -19q-11 -3 -48.5 -14t-55 -16t-55 -18t-58.5 -22t-53.5 -25t-51.5 -30.5t-42 -35.5t-35 -42.5t-20.5 -48.5t-8.5 -57q0 -73 50 -130.5
t120 -57.5q89 0 172.5 52t148.5 132v332zM756 1602l98 -52q-38 -67 -90.5 -115.5t-114.5 -48.5q-47 0 -143 41q-8 3 -33 13t-35.5 14t-28 8t-30.5 4q-23 0 -40.5 -6.5t-33.5 -23.5t-23 -26.5t-24 -35.5l-88 62q46 71 97.5 113t119.5 42q43 0 131 -37q78 -38 117 -38
q9 0 18 1.5t15.5 3t14.5 6t12 6.5t12 9.5t10.5 9.5t10 12t9 11.5t10 13.5t9.5 13z" />
    <glyph glyph-name="adieresis" unicode="&#xe4;" horiz-adv-x="1024" 
d="M928 0h-174l-17 143q-85 -83 -161 -129.5t-166 -46.5q-130 0 -222 95t-92 229q0 63 19 117.5t44 92.5t76 74t86 56t105.5 44.5t103 34t108.5 29.5q11 3 17 4.5t15 4t16 4.5l51 14v63q0 95 -58.5 147t-156.5 52q-154 0 -276 -178l-113 84q159 229 389 229
q62 0 124.5 -19.5t120 -59t94 -110.5t36.5 -163v-561q0 -11 0.5 -41.5t1 -44t2.5 -40t5 -43.5t8.5 -39.5t13.5 -41.5zM737 635l-63 -19q-11 -3 -48.5 -14t-55 -16t-55 -18t-58.5 -22t-53.5 -25t-51.5 -30.5t-42 -35.5t-35 -42.5t-20.5 -48.5t-8.5 -57q0 -73 50 -130.5
t120 -57.5q89 0 172.5 52t148.5 132v332zM418 1563v-174h-160v174h160zM766 1563v-174h-160v174h160z" />
    <glyph glyph-name="aring" unicode="&#xe5;" horiz-adv-x="1024" 
d="M928 0h-174l-17 143q-85 -83 -161 -129.5t-166 -46.5q-130 0 -222 95t-92 229q0 63 19 117.5t44 92.5t76 74t86 56t105.5 44.5t103 34t108.5 29.5q11 3 17 4.5t15 4t16 4.5l51 14v63q0 95 -58.5 147t-156.5 52q-154 0 -276 -178l-113 84q159 229 389 229
q62 0 124.5 -19.5t120 -59t94 -110.5t36.5 -163v-561q0 -11 0.5 -41.5t1 -44t2.5 -40t5 -43.5t8.5 -39.5t13.5 -41.5zM737 635l-63 -19q-11 -3 -48.5 -14t-55 -16t-55 -18t-58.5 -22t-53.5 -25t-51.5 -30.5t-42 -35.5t-35 -42.5t-20.5 -48.5t-8.5 -57q0 -73 50 -130.5
t120 -57.5q89 0 172.5 52t148.5 132v332zM322 1436q0 78 56 134t134 56t134 -56t56 -134t-56 -134.5t-134 -56.5t-134 56.5t-56 134.5zM416 1436q0 -39 28.5 -68t67.5 -29t67.5 29t28.5 68t-28.5 67.5t-67.5 28.5t-67.5 -28.5t-28.5 -67.5z" />
    <glyph glyph-name="ae" unicode="&#xe6;" horiz-adv-x="1681" 
d="M774 313l-29 314q-102 -23 -183 -49t-132.5 -49.5t-88 -52t-54.5 -49.5t-28 -49t-11.5 -43.5t-1.5 -39.5q0 -85 49.5 -139t134.5 -54q185 0 344 211zM1473 297l114 -76q-47 -112 -156 -183t-251 -71q-117 0 -212.5 56.5t-150.5 162.5q-74 -96 -179.5 -157.5t-223.5 -61.5
q-138 0 -228 96t-90 234q0 33 3 58.5t17 65.5t39 71.5t73.5 70.5t115 70.5t169.5 63.5t232 57v71q0 97 -58.5 150t-160.5 53q-89 0 -158 -47t-112 -127l-119 84q78 112 170.5 168.5t220.5 56.5q203 0 318 -170q120 170 334 170q94 0 168 -38.5t119.5 -101.5t73 -145.5
t35.5 -167.5t1 -171h-682q0 -228 83 -332.5t218 -104.5q83 0 156 56.5t121 138.5zM889 674h528q3 85 -22.5 163.5t-87.5 134.5t-148 56q-53 0 -97.5 -21.5t-75 -56.5t-52.5 -81.5t-33 -95.5t-12 -99z" />
    <glyph glyph-name="ccedilla" unicode="&#xe7;" horiz-adv-x="1034" 
d="M909 877l-135 -62q-17 45 -35 79t-45 67.5t-64.5 50.5t-82.5 16q-71 0 -125 -30.5t-85 -76.5t-50.5 -110.5t-26 -123t-6.5 -122.5t6.5 -122.5t26 -123t50.5 -110.5t85 -76.5t125 -30.5q167 7 264 228l129 -58q-52 -134 -156.5 -219.5t-236.5 -85.5q-97 0 -177.5 34.5
t-143 104.5t-97.5 187t-35 272t35 272t97.5 187t143 104.5t177.5 34.5q259 0 362 -286zM627 -137l-121 -236h-105l72 236h154z" />
    <glyph glyph-name="egrave" unicode="&#xe8;" horiz-adv-x="1048" 
d="M944 539h-682q0 -228 83 -332.5t218 -104.5q83 0 156 56.5t121 138.5l114 -76q-47 -112 -156 -183t-251 -71q-97 0 -177.5 34.5t-143 104.5t-97.5 187t-35 272t35 272t97.5 187t143 104.5t177.5 34.5q94 0 168 -38.5t119.5 -101.5t73 -145.5t35.5 -167.5t1 -171zM266 674
h510q2 57 -12.5 117t-43 114t-77 88.5t-108.5 34.5q-65 0 -117.5 -32.5t-84.5 -85t-49 -113.5t-18 -123zM469 1593l143 -295h-114l-217 295h188z" />
    <glyph glyph-name="eacute" unicode="&#xe9;" horiz-adv-x="1048" 
d="M944 539h-682q0 -228 83 -332.5t218 -104.5q83 0 156 56.5t121 138.5l114 -76q-47 -112 -156 -183t-251 -71q-97 0 -177.5 34.5t-143 104.5t-97.5 187t-35 272t35 272t97.5 187t143 104.5t177.5 34.5q94 0 168 -38.5t119.5 -101.5t73 -145.5t35.5 -167.5t1 -171zM266 674
h510q2 57 -12.5 117t-43 114t-77 88.5t-108.5 34.5q-65 0 -117.5 -32.5t-84.5 -85t-49 -113.5t-18 -123zM436 1298l144 295h188l-217 -295h-115z" />
    <glyph glyph-name="ecircumflex" unicode="&#xea;" horiz-adv-x="1048" 
d="M944 539h-682q0 -228 83 -332.5t218 -104.5q83 0 156 56.5t121 138.5l114 -76q-47 -112 -156 -183t-251 -71q-97 0 -177.5 34.5t-143 104.5t-97.5 187t-35 272t35 272t97.5 187t143 104.5t177.5 34.5q94 0 168 -38.5t119.5 -101.5t73 -145.5t35.5 -167.5t1 -171zM266 674
h510q2 57 -12.5 117t-43 114t-77 88.5t-108.5 34.5q-65 0 -117.5 -32.5t-84.5 -85t-49 -113.5t-18 -123zM582 1593l223 -295h-160l-121 164l-127 -164h-153l221 295h117z" />
    <glyph glyph-name="edieresis" unicode="&#xeb;" horiz-adv-x="1048" 
d="M944 539h-682q0 -228 83 -332.5t218 -104.5q83 0 156 56.5t121 138.5l114 -76q-47 -112 -156 -183t-251 -71q-97 0 -177.5 34.5t-143 104.5t-97.5 187t-35 272t35 272t97.5 187t143 104.5t177.5 34.5q94 0 168 -38.5t119.5 -101.5t73 -145.5t35.5 -167.5t1 -171zM266 674
h510q2 57 -12.5 117t-43 114t-77 88.5t-108.5 34.5q-65 0 -117.5 -32.5t-84.5 -85t-49 -113.5t-18 -123zM430 1563v-174h-160v174h160zM778 1563v-174h-160v174h160z" />
    <glyph glyph-name="igrave" unicode="&#xec;" horiz-adv-x="413" 
d="M287 1130v-1130h-160v1130h160zM152 1593l143 -295h-115l-217 295h189z" />
    <glyph glyph-name="iacute" unicode="&#xed;" horiz-adv-x="413" 
d="M287 1130v-1130h-160v1130h160zM119 1298l143 295h189l-218 -295h-114z" />
    <glyph glyph-name="icircumflex" unicode="&#xee;" horiz-adv-x="413" 
d="M287 1130v-1130h-160v1130h160zM264 1593l223 -295h-159l-121 164l-127 -164h-154l221 295h117z" />
    <glyph glyph-name="idieresis" unicode="&#xef;" horiz-adv-x="413" 
d="M287 1130v-1130h-160v1130h160zM113 1563v-174h-160v174h160zM461 1563v-174h-160v174h160z" />
    <glyph glyph-name="eth" unicode="&#xf0;" horiz-adv-x="1095" 
d="M547 102q71 0 125 30.5t85 76.5t50.5 110.5t26 123t6.5 122.5t-6.5 122.5t-26 123t-50.5 110.5t-85 76.5t-125 30.5t-125 -30.5t-85 -76.5t-50.5 -110.5t-26 -123t-6.5 -122.5t6.5 -122.5t26 -123t50.5 -110.5t85 -76.5t125 -30.5zM920 1575l55 -88l-215 -92
q136 -160 187.5 -324t51.5 -366q0 -140 -15.5 -253.5t-41 -189t-63.5 -131.5t-75.5 -86.5t-86 -49t-86.5 -23.5t-84 -5q-97 0 -177.5 34.5t-143 104.5t-97.5 187t-35 272t35 272t97.5 187t143 104.5t177.5 34.5q152 0 264 -139q-67 195 -184 315l-299 -125l-56 89l275 114
q-84 78 -187 144l156 32q98 -66 160 -120z" />
    <glyph glyph-name="ntilde" unicode="&#xf1;" horiz-adv-x="1005" 
d="M283 860v-860h-160v1130h160v-116q48 39 72.5 57t67.5 44t84 37t87 11q289 0 289 -383v-780h-160v739q0 11 0.5 37t0.5 40t-1 38.5t-3.5 39.5t-7.5 36t-12.5 33.5t-19 27t-26.5 22.5t-35.5 13.5t-45.5 5.5q-68 0 -152.5 -54t-137.5 -118zM748 1602l98 -52
q-38 -67 -90.5 -115.5t-114.5 -48.5q-47 0 -143 41q-8 3 -33 13t-35.5 14t-28 8t-30.5 4q-23 0 -40.5 -6.5t-33.5 -23.5t-23 -26.5t-24 -35.5l-88 62q46 71 97.5 113t119.5 42q43 0 131 -37q78 -38 117 -38q9 0 18 1.5t15.5 3t14.5 6t12 6.5t12 9.5t10.5 9.5t10 12t9 11.5
t10 13.5t9.5 13z" />
    <glyph glyph-name="ograve" unicode="&#xf2;" horiz-adv-x="1093" 
d="M547 -33q-97 0 -177.5 34.5t-143 104.5t-97.5 187t-35 272t35 272t97.5 187t143 104.5t177.5 34.5t177.5 -34.5t142.5 -104.5t97 -187t35 -272t-35 -272t-97 -187t-142.5 -104.5t-177.5 -34.5zM547 102q71 0 125 30.5t85 76.5t50.5 110.5t26 123t6.5 122.5t-6.5 122.5
t-26 123t-50.5 110.5t-85 76.5t-125 30.5t-125 -30.5t-85 -76.5t-50.5 -110.5t-26 -123t-6.5 -122.5t6.5 -122.5t26 -123t50.5 -110.5t85 -76.5t125 -30.5zM492 1593l143 -295h-115l-217 295h189z" />
    <glyph glyph-name="oacute" unicode="&#xf3;" horiz-adv-x="1093" 
d="M547 -33q-97 0 -177.5 34.5t-143 104.5t-97.5 187t-35 272t35 272t97.5 187t143 104.5t177.5 34.5t177.5 -34.5t142.5 -104.5t97 -187t35 -272t-35 -272t-97 -187t-142.5 -104.5t-177.5 -34.5zM547 102q71 0 125 30.5t85 76.5t50.5 110.5t26 123t6.5 122.5t-6.5 122.5
t-26 123t-50.5 110.5t-85 76.5t-125 30.5t-125 -30.5t-85 -76.5t-50.5 -110.5t-26 -123t-6.5 -122.5t6.5 -122.5t26 -123t50.5 -110.5t85 -76.5t125 -30.5zM459 1298l143 295h189l-218 -295h-114z" />
    <glyph glyph-name="ocircumflex" unicode="&#xf4;" horiz-adv-x="1093" 
d="M547 -33q-97 0 -177.5 34.5t-143 104.5t-97.5 187t-35 272t35 272t97.5 187t143 104.5t177.5 34.5t177.5 -34.5t142.5 -104.5t97 -187t35 -272t-35 -272t-97 -187t-142.5 -104.5t-177.5 -34.5zM547 102q71 0 125 30.5t85 76.5t50.5 110.5t26 123t6.5 122.5t-6.5 122.5
t-26 123t-50.5 110.5t-85 76.5t-125 30.5t-125 -30.5t-85 -76.5t-50.5 -110.5t-26 -123t-6.5 -122.5t6.5 -122.5t26 -123t50.5 -110.5t85 -76.5t125 -30.5zM604 1593l223 -295h-159l-121 164l-127 -164h-154l221 295h117z" />
    <glyph glyph-name="otilde" unicode="&#xf5;" horiz-adv-x="1093" 
d="M547 -33q-97 0 -177.5 34.5t-143 104.5t-97.5 187t-35 272t35 272t97.5 187t143 104.5t177.5 34.5t177.5 -34.5t142.5 -104.5t97 -187t35 -272t-35 -272t-97 -187t-142.5 -104.5t-177.5 -34.5zM547 102q71 0 125 30.5t85 76.5t50.5 110.5t26 123t6.5 122.5t-6.5 122.5
t-26 123t-50.5 110.5t-85 76.5t-125 30.5t-125 -30.5t-85 -76.5t-50.5 -110.5t-26 -123t-6.5 -122.5t6.5 -122.5t26 -123t50.5 -110.5t85 -76.5t125 -30.5zM791 1602l98 -52q-38 -67 -90.5 -115.5t-114.5 -48.5q-47 0 -143 41q-8 3 -33 13t-35.5 14t-28 8t-30.5 4
q-23 0 -40.5 -6.5t-33.5 -23.5t-23 -26.5t-24 -35.5l-88 62q46 71 97.5 113t119.5 42q43 0 131 -37q78 -38 117 -38q9 0 18 1.5t15.5 3t14.5 6t12 6.5t12 9.5t10.5 9.5t10 12t9 11.5t10 13.5t9.5 13z" />
    <glyph glyph-name="odieresis" unicode="&#xf6;" horiz-adv-x="1093" 
d="M547 -33q-97 0 -177.5 34.5t-143 104.5t-97.5 187t-35 272t35 272t97.5 187t143 104.5t177.5 34.5t177.5 -34.5t142.5 -104.5t97 -187t35 -272t-35 -272t-97 -187t-142.5 -104.5t-177.5 -34.5zM547 102q71 0 125 30.5t85 76.5t50.5 110.5t26 123t6.5 122.5t-6.5 122.5
t-26 123t-50.5 110.5t-85 76.5t-125 30.5t-125 -30.5t-85 -76.5t-50.5 -110.5t-26 -123t-6.5 -122.5t6.5 -122.5t26 -123t50.5 -110.5t85 -76.5t125 -30.5zM453 1563v-174h-160v174h160zM801 1563v-174h-160v174h160z" />
    <glyph glyph-name="divide" unicode="&#xf7;" horiz-adv-x="1351" 
d="M1188 637v-143h-1024v143h1024zM780 53h-207v240h207v-240zM780 838h-207v239h207v-239z" />
    <glyph glyph-name="oslash" unicode="&#xf8;" horiz-adv-x="1093" 
d="M911 1196l111 -66l-117 -159q94 -155 94 -406q0 -155 -35 -272t-97 -187t-142.5 -104.5t-177.5 -34.5q-75 0 -145 22.5t-113 63.5l-123 -184l-94 72l131 206q-109 153 -109 418q0 155 35 272t97.5 187t143 104.5t177.5 34.5q160 0 278 -98zM299 287l436 657
q-65 84 -188 84q-71 0 -125 -30.5t-85 -76.5t-50.5 -110.5t-26 -123t-6.5 -122.5q0 -178 45 -278zM801 821l-430 -645q61 -74 176 -74q71 0 125 30.5t85 76.5t50.5 110.5t26 123t6.5 122.5q0 148 -39 256z" />
    <glyph glyph-name="ugrave" unicode="&#xf9;" horiz-adv-x="1005" 
d="M723 270v860h160v-1130h-160v117q-50 -40 -73 -57.5t-66.5 -44t-84.5 -37.5t-87 -11q-289 0 -289 383v780h160v-739q0 -293 149 -293q68 0 153 54t138 118zM449 1593l143 -295h-115l-217 295h189z" />
    <glyph glyph-name="uacute" unicode="&#xfa;" horiz-adv-x="1005" 
d="M723 270v860h160v-1130h-160v117q-50 -40 -73 -57.5t-66.5 -44t-84.5 -37.5t-87 -11q-289 0 -289 383v780h160v-739q0 -293 149 -293q68 0 153 54t138 118zM416 1298l143 295h189l-218 -295h-114z" />
    <glyph glyph-name="ucircumflex" unicode="&#xfb;" horiz-adv-x="1005" 
d="M723 270v860h160v-1130h-160v117q-50 -40 -73 -57.5t-66.5 -44t-84.5 -37.5t-87 -11q-289 0 -289 383v780h160v-739q0 -293 149 -293q68 0 153 54t138 118zM561 1593l223 -295h-159l-121 164l-127 -164h-154l221 295h117z" />
    <glyph glyph-name="udieresis" unicode="&#xfc;" horiz-adv-x="1005" 
d="M723 270v860h160v-1130h-160v117q-50 -40 -73 -57.5t-66.5 -44t-84.5 -37.5t-87 -11q-289 0 -289 383v780h160v-739q0 -293 149 -293q68 0 153 54t138 118zM410 1563v-174h-160v174h160zM758 1563v-174h-160v174h160z" />
    <glyph glyph-name="yacute" unicode="&#xfd;" horiz-adv-x="933" 
d="M918 1130l-375 -1175q-25 -78 -55.5 -137t-76 -108t-109.5 -75t-146 -26q-55 0 -123 22l24 136q62 -17 93 -17q47 0 85 16t63 39.5t47 62t34 71.5t27 81l-390 1110h162l307 -882l281 882h152zM379 1298l143 295h189l-217 -295h-115z" />
    <glyph glyph-name="thorn" unicode="&#xfe;" horiz-adv-x="1083" 
d="M287 842v-525q38 -81 112.5 -146t153.5 -65q35 0 70.5 13.5t71.5 46.5t63.5 82t45 126.5t17.5 172.5q0 57 -6.5 115.5t-25 125.5t-47 117.5t-78 84.5t-113.5 34q-87 0 -155.5 -51t-108.5 -131zM287 129v-479h-160v1943h160v-579q141 149 282 149q60 0 118.5 -21.5
t113.5 -69.5t96.5 -118.5t66.5 -176.5t25 -234q0 -124 -28.5 -225.5t-72.5 -165t-101 -107t-110 -61t-102 -17.5q-88 0 -156.5 42t-131.5 120z" />
    <glyph glyph-name="ydieresis" unicode="&#xff;" horiz-adv-x="933" 
d="M918 1130l-375 -1175q-25 -78 -55.5 -137t-76 -108t-109.5 -75t-146 -26q-55 0 -123 22l24 136q62 -17 93 -17q47 0 85 16t63 39.5t47 62t34 71.5t27 81l-390 1110h162l307 -882l281 882h152zM373 1563v-174h-160v174h160zM721 1563v-174h-160v174h160z" />
    <glyph glyph-name="dotlessi" unicode="&#x131;" horiz-adv-x="413" 
d="M287 1130v-1130h-160v1130h160z" />
    <glyph glyph-name="Lslash" unicode="&#x141;" horiz-adv-x="1038" 
d="M295 1593v-673l375 210v-153l-375 -213v-621h680v-143h-848v692l-164 -92v150l164 94v749h168z" />
    <glyph glyph-name="lslash" unicode="&#x142;" horiz-adv-x="413" 
d="M287 924l159 82v-144l-159 -84v-778h-160v711l-162 -80v139l162 84v739h160v-669z" />
    <glyph glyph-name="OE" unicode="&#x152;" horiz-adv-x="2058" 
d="M1075 0v215h-4q-62 -121 -163.5 -184.5t-237.5 -63.5q-124 0 -230 56.5t-183.5 161t-121 262t-43.5 350.5t43.5 350t121 261.5t183.5 161t230 56.5q127 0 231.5 -57.5t173.5 -159.5v184h830v-143h-662v-543h457v-143h-457v-621h711v-143h-879zM670 1489q-85 0 -157.5 -41
t-130 -123t-90 -217t-32.5 -311q0 -141 21.5 -257t59 -196t89.5 -134.5t112 -80t128 -25.5q85 0 157.5 41.5t129.5 123t89.5 217t32.5 311.5t-32.5 311t-89.5 217t-129.5 123t-157.5 41z" />
    <glyph glyph-name="oe" unicode="&#x153;" horiz-adv-x="1787" 
d="M995 668h529q3 85 -22.5 165t-87.5 137.5t-148 57.5q-65 0 -118 -33t-85 -86.5t-49 -115.5t-19 -125zM547 102q71 0 125 30.5t85 76.5t50.5 110.5t26 123t6.5 122.5t-6.5 122.5t-26 123t-50.5 110.5t-85 76.5t-125 30.5t-125 -30.5t-85 -76.5t-50.5 -110.5t-26 -123
t-6.5 -122.5t6.5 -122.5t26 -123t50.5 -110.5t85 -76.5t125 -30.5zM1683 532h-682q0 -223 83.5 -326.5t218.5 -103.5q83 0 155.5 56.5t120.5 138.5l115 -76q-47 -112 -156.5 -183t-251.5 -71q-134 0 -229 71t-142 195q-46 -127 -142.5 -196.5t-225.5 -69.5
q-97 0 -177.5 34.5t-143 104.5t-97.5 187t-35 272t35 272t97.5 187t143 104.5t177.5 34.5q127 0 222 -69.5t146 -188.5q44 122 138.5 190t232.5 68q94 0 168 -38.5t119.5 -101.5t73 -146t35.5 -169.5t1 -175.5z" />
    <glyph glyph-name="Scaron" unicode="&#x160;" horiz-adv-x="1210" 
d="M1102 1210l-152 -47q-22 75 -46 127.5t-62 101t-94 73t-130 24.5q-111 0 -195.5 -79t-84.5 -193q0 -63 26.5 -113t71.5 -84t103 -62.5t122.5 -54t129 -53.5t122.5 -66t103 -86t71.5 -119.5t26.5 -160.5q0 -205 -134.5 -328t-340.5 -123q-212 0 -356.5 121.5t-186.5 329.5
l162 39q31 -149 134.5 -251t248.5 -102q125 0 215 84.5t90 210.5q0 71 -26.5 126t-71.5 91t-103 65.5t-122.5 54t-129 50.5t-122.5 61t-103 79.5t-71.5 112t-26.5 153.5q0 128 62 228t166 153t231 53q180 0 303 -116.5t170 -299.5zM549 1761l-223 295h159l121 -164l127 164
h154l-221 -295h-117z" />
    <glyph glyph-name="scaron" unicode="&#x161;" horiz-adv-x="983" 
d="M866 967l-112 -88q-50 74 -111 111.5t-147 37.5q-85 0 -144 -43.5t-59 -124.5q0 -56 33 -96t85.5 -64.5t116 -45.5t127 -46.5t116 -58.5t85.5 -90.5t33 -134.5q0 -163 -104 -260t-267 -97q-138 0 -246 60t-176 178l127 80q95 -183 295 -183q94 0 157.5 50.5t63.5 142.5
q0 45 -20.5 80.5t-55 58t-79 41.5t-94 35.5t-99 34.5t-94 44t-79 59.5t-55 85t-20.5 116.5q0 142 100.5 227.5t245.5 85.5q245 0 377 -196zM434 1298l-223 295h160l121 -163l126 163h154l-221 -295h-117z" />
    <glyph glyph-name="Ydieresis" unicode="&#x178;" horiz-adv-x="1097" 
d="M1098 1593l-455 -925v-668h-168v668l-475 925h176l385 -764h4l363 764h170zM455 2025v-174h-160v174h160zM803 2025v-174h-160v174h160z" />
    <glyph glyph-name="Zcaron" unicode="&#x17d;" horiz-adv-x="1083" 
d="M1004 1593v-141l-719 -1309h719v-143h-924v129l727 1321h-653v143h850zM485 1761l-223 295h160l121 -164l127 164h153l-221 -295h-117z" />
    <glyph glyph-name="zcaron" unicode="&#x17e;" horiz-adv-x="950" 
d="M854 1130v-100l-565 -895h565v-135h-760v117l559 878h-508v135h709zM418 1298l-223 295h159l121 -163l127 163h154l-221 -295h-117z" />
    <glyph glyph-name="florin" unicode="&#x192;" 
d="M719 1067h199l-15 -143h-201l-100 -940q-8 -94 -37 -159t-76.5 -99t-100 -48t-120.5 -14h-90l15 150q44 -13 77 -13q43 0 73.5 11.5t47 28t26.5 46.5t13.5 56t7.5 67q0 5 0.5 8.5t1 8t0.5 8.5l95 889h-175l17 143h172l20 197q22 198 96.5 280t235.5 82h103l-19 -149
q-37 12 -78 12q-53 0 -85.5 -14t-49 -48.5t-21.5 -60.5t-11 -83q-2 -18 -3 -28z" />
    <glyph glyph-name="circumflex" unicode="&#x2c6;" horiz-adv-x="880" 
d="M498 1593l223 -295h-160l-121 164l-127 -164h-153l221 295h117z" />
    <glyph glyph-name="caron" unicode="&#x2c7;" horiz-adv-x="880" 
d="M383 1298l-223 295h159l121 -163l127 163h154l-221 -295h-117z" />
    <glyph glyph-name="breve" unicode="&#x2d8;" horiz-adv-x="997" 
d="M160 1593h104q26 -80 90 -135t144 -55t143.5 55t89.5 135h105q-24 -122 -121.5 -216.5t-216.5 -94.5t-216.5 94.5t-121.5 216.5z" />
    <glyph glyph-name="dotaccent" unicode="&#x2d9;" horiz-adv-x="477" 
d="M317 1563v-174h-159v174h159z" />
    <glyph glyph-name="ring" unicode="&#x2da;" horiz-adv-x="700" 
d="M160 1436q0 78 56 134t134 56t134.5 -56t56.5 -134t-56.5 -134.5t-134.5 -56.5t-134 56.5t-56 134.5zM254 1436q0 -39 28.5 -68t67.5 -29t67.5 29t28.5 68t-28.5 67.5t-67.5 28.5t-67.5 -28.5t-28.5 -67.5z" />
    <glyph glyph-name="ogonek" unicode="&#x2db;" horiz-adv-x="665" 
d="M506 -262v-107q-64 -45 -141 -45q-90 0 -148.5 53t-58.5 142q0 73 49 134t121 85h178v-12q-106 0 -174 -51.5t-68 -122.5q0 -52 35.5 -85.5t87.5 -33.5q64 0 119 43z" />
    <glyph glyph-name="tilde" unicode="&#x2dc;" horiz-adv-x="1003" 
d="M745 1602l99 -52q-38 -67 -90.5 -115.5t-114.5 -48.5q-47 0 -143 41q-8 3 -33 13t-35.5 14t-28 8t-30.5 4q-23 0 -40.5 -6.5t-33.5 -23.5t-23 -26.5t-24 -35.5l-88 62q46 71 97.5 113t119.5 42q43 0 131 -37q78 -38 117 -38q10 0 19 1t18 5t14.5 6t13.5 9.5t11.5 10
t11.5 12.5t10.5 12.5t11 15t10.5 14.5z" />
    <glyph glyph-name="hungarumlaut" unicode="&#x2dd;" horiz-adv-x="983" 
d="M301 1593h191l-218 -295h-114zM633 1593h190l-217 -295h-114z" />
    <glyph glyph-name="endash" unicode="&#x2013;" horiz-adv-x="1024" 
d="M0 662h1024v-144h-1024v144z" />
    <glyph glyph-name="emdash" unicode="&#x2014;" horiz-adv-x="2048" 
d="M0 662h2048v-144h-2048v144z" />
    <glyph glyph-name="quoteleft" unicode="&#x2018;" horiz-adv-x="399" 
d="M96 1038v224l137 331h103l-103 -315h70v-240h-207z" />
    <glyph glyph-name="quoteright" unicode="&#x2019;" horiz-adv-x="399" 
d="M303 1593v-223l-137 -332h-103l103 316h-70v239h207z" />
    <glyph glyph-name="quotesinglbase" unicode="&#x201a;" horiz-adv-x="399" 
d="M303 240v-224l-137 -331h-103l103 315h-70v240h207z" />
    <glyph glyph-name="quotedblleft" unicode="&#x201c;" horiz-adv-x="720" 
d="M96 1038v224l137 331h103l-103 -315h70v-240h-207zM418 1038v224l137 331h102l-102 -315h70v-240h-207z" />
    <glyph glyph-name="quotedblright" unicode="&#x201d;" horiz-adv-x="720" 
d="M303 1593v-223l-137 -332h-103l103 316h-70v239h207zM625 1593v-223l-138 -332h-102l102 316h-69v239h207z" />
    <glyph glyph-name="quotedblbase" unicode="&#x201e;" horiz-adv-x="720" 
d="M303 240v-224l-137 -331h-103l103 315h-70v240h207zM625 240v-224l-138 -331h-102l102 315h-69v240h207z" />
    <glyph glyph-name="dagger" unicode="&#x2020;" horiz-adv-x="1114" 
d="M477 -303v1323h-358v143h358v430h160v-430h358v-143h-358v-1323h-160z" />
    <glyph glyph-name="daggerdbl" unicode="&#x2021;" horiz-adv-x="1114" 
d="M477 1059h-358v143h358v391h160v-391h358v-143h-358v-828h358v-143h-358v-391h-160v391h-358v143h358v828z" />
    <glyph glyph-name="bullet" unicode="&#x2022;" horiz-adv-x="1024" 
d="M881 793q0 -151 -109 -259t-262 -108q-151 0 -259 108t-108 259q0 153 108 261.5t259 108.5q154 0 262.5 -108t108.5 -262z" />
    <glyph glyph-name="ellipsis" unicode="&#x2026;" horiz-adv-x="2048" 
d="M444 240v-240h-206v240h206zM1126 240v-240h-206v240h206zM1808 240v-240h-206v240h206z" />
    <glyph glyph-name="perthousand" unicode="&#x2030;" horiz-adv-x="2111" 
d="M1079 1593h131l-862 -1593h-133zM1348 383q0 -62 -7 -117.5t-26 -112t-48.5 -96.5t-78.5 -65t-113 -25t-113 25t-78.5 65t-48 96.5t-25.5 111.5t-7 118t7 118t25.5 111.5t48 96.5t78.5 65t113 25t113 -25t78.5 -65t48.5 -96.5t26 -112t7 -117.5zM1221 383q0 39 -1.5 68.5
t-6 67.5t-14.5 65t-25.5 52t-40.5 37.5t-58 12.5t-58 -12.5t-40.5 -37.5t-25.5 -51.5t-14 -65t-5.5 -67.5t-1.5 -69t1.5 -69t5.5 -67.5t14 -65t25.5 -51.5t40.5 -37.5t58 -12.5t58 12.5t40.5 37.5t25.5 52t14.5 65t6 67.5t1.5 68.5zM2036 383q0 -62 -7 -117.5t-26 -112
t-48.5 -96.5t-78.5 -65t-113 -25t-113 25t-78.5 65t-48 96.5t-25.5 111.5t-7 118t7 118t25.5 111.5t48 96.5t78.5 65t113 25t113 -25t78.5 -65t48.5 -96.5t26 -112t7 -117.5zM1909 383q0 39 -1.5 68.5t-6 67.5t-14.5 65t-25.5 52t-40.5 37.5t-58 12.5t-58 -12.5t-40.5 -37.5
t-25.5 -51.5t-14 -65t-5.5 -67.5t-1.5 -69t1.5 -69t5.5 -67.5t14 -65t25.5 -51.5t40.5 -37.5t58 -12.5t58 12.5t40.5 37.5t25.5 52t14.5 65t6 67.5t1.5 68.5zM623 1210q0 -80 -12 -147.5t-41 -131t-85 -100t-135 -36.5q-64 0 -113 25t-78.5 65t-48 96t-25.5 111t-7 118
t7 118t25.5 111.5t48 96.5t78.5 65t113 25t113 -25t78.5 -65t48.5 -96.5t26 -112t7 -117.5zM496 1210q0 39 -1.5 68.5t-6 67.5t-14.5 65t-25.5 52t-40.5 37.5t-58 12.5t-58 -12.5t-40.5 -37.5t-25.5 -51.5t-14 -65t-5.5 -67.5t-1.5 -69t1.5 -69t5.5 -67.5t14 -65t25.5 -51.5
t40.5 -37.5t58 -12.5t58 12.5t40.5 37.5t25.5 52t14.5 65t6 67.5t1.5 68.5z" />
    <glyph glyph-name="guilsinglleft" unicode="&#x2039;" horiz-adv-x="559" 
d="M319 299l-239 291l239 289h160l-239 -289l239 -291h-160z" />
    <glyph glyph-name="guilsinglright" unicode="&#x203a;" horiz-adv-x="559" 
d="M240 299h-160l239 291l-239 289h160l239 -289z" />
    <glyph glyph-name="fraction" unicode="&#x2044;" horiz-adv-x="227" 
d="M481 1593h127l-862 -1593h-129z" />
    <glyph glyph-name="trademark" unicode="&#x2122;" horiz-adv-x="1925" 
d="M719 1593v-92h-266v-770h-127v770h-267v92h660zM1073 1593l244 -637h4l240 637h198v-862h-127v719h-4l-268 -719h-88l-266 719h-5v-719h-127v862h199z" />
    <glyph glyph-name="minus" unicode="&#x2212;" horiz-adv-x="1351" 
d="M164 494v143h1024v-143h-1024z" />
    <glyph glyph-name="fi" unicode="&#xfb01;" horiz-adv-x="970" 
d="M844 1130v-1130h-160v995h-336v-995h-160v995h-172v135h172v205q0 139 95.5 215t244.5 76q94 0 142.5 -13t91.5 -40v-156q-49 47 -99.5 60.5t-127.5 13.5q-89 0 -138 -42t-49 -112v-207h496z" />
    <glyph glyph-name="fl" unicode="&#xfb02;" horiz-adv-x="1001" 
d="M557 1130v-135h-209v-995h-160v995h-172v135h172v205q0 139 95.5 215t244.5 76q161 0 346 -33v-1593h-159v1456q-42 35 -180 35q-89 0 -138 -42t-49 -112v-207h209z" />
    </font>
</defs>
</svg>
