<?xml version="1.0" standalone="no"?>
<!DOCTYPE svg PUBLIC "-//W3C//DTD SVG 1.1//EN" "http://www.w3.org/Graphics/SVG/1.1/DTD/svg11.dtd" >
<svg xmlns="http://www.w3.org/2000/svg" xmlns:xlink="http://www.w3.org/1999/xlink" version="1.1">
<metadata>
Created by FontForge 20170731 at Fri Jan 22 18:27:33 2021
 By Aleksey,,,
Copyright 1990 as an unpublished work by Bitstream Inc.  All rights reserved.  Confidential.
</metadata>
<defs>
<font id="NewsGothicBT-Italic" horiz-adv-x="1024" >
  <font-face 
    font-family="News Gothic"
    font-weight="500"
    font-style="italic"
    font-stretch="normal"
    units-per-em="2048"
    panose-1="0 0 0 0 0 0 0 0 0 0"
    ascent="1638"
    descent="-410"
    x-height="1067"
    cap-height="1481"
    bbox="-338 -483 2494 1964"
    underline-thickness="106"
    underline-position="-300"
    slope="12.5"
    unicode-range="U+0020-FB02"
  />
<missing-glyph horiz-adv-x="616" 
 />
    <glyph glyph-name=".notdef" horiz-adv-x="616" 
 />
    <glyph glyph-name=".null" horiz-adv-x="0" 
 />
    <glyph glyph-name="nonmarkingreturn" horiz-adv-x="682" 
 />
    <glyph glyph-name="space" unicode=" " horiz-adv-x="616" 
 />
    <glyph glyph-name="exclam" unicode="!" horiz-adv-x="632" 
d="M47 0l49 217h209l-49 -217h-209zM584 1481l-271 -1020h-120l184 1020h207z" />
    <glyph glyph-name="quotedbl" unicode="&#x22;" horiz-adv-x="589" 
d="M211 1434v-553h-117v553h117zM496 1434v-553h-119v553h119z" />
    <glyph glyph-name="numbersign" unicode="#" horiz-adv-x="1574" 
d="M922 1456l-166 -471h260l168 471h143l-164 -471h307l-43 -123h-311l-94 -272h330l-43 -123h-332l-166 -469h-145l168 469h-265l-168 -469h-143l166 469h-320l43 123h320l96 272h-342l43 123h344l168 471h146zM973 862h-264l-95 -272h263z" />
    <glyph glyph-name="dollar" unicode="$" horiz-adv-x="1232" 
d="M354 -201l52 228q-127 35 -216.5 113.5t-132.5 191.5l129 57q101 -191 248 -231l123 551q-160 83 -236.5 177.5t-76.5 215.5q0 169 112 276t291 107q51 0 84 -4l31 131h119l-37 -154q96 -25 176.5 -96t138.5 -184l-123 -66q-90 179 -219 221l-119 -528
q175 -79 257.5 -173.5t82.5 -223.5q0 -178 -115 -290t-302 -112q-31 0 -101 8l-47 -215h-119zM547 141q37 -6 69 -6q129 0 206 70t77 184q0 90 -54.5 150.5t-178.5 119.5zM592 856l113 502q-54 4 -68 4q-116 0 -186 -70.5t-70 -177.5q0 -84 50.5 -144t160.5 -114z" />
    <glyph glyph-name="percent" unicode="%" horiz-adv-x="1740" 
d="M231 1163q0 -88 61.5 -149.5t149.5 -61.5t149.5 61t61.5 150t-61 150t-150 61t-150 -61t-61 -150zM104 1163q0 143 98 241.5t240 98.5t241 -98.5t99 -241.5q0 -142 -99 -240t-241 -98q-141 0 -239.5 98t-98.5 240zM385 -25l846 1528h112l-843 -1528h-115zM948 315
q0 142 98.5 240t241.5 98q142 0 240 -97.5t98 -240.5q0 -142 -98.5 -241t-239.5 -99t-240.5 99t-99.5 241zM1077 315q0 -88 60.5 -149.5t148.5 -61.5t149.5 61t61.5 150t-61 149t-150 60t-149 -60t-60 -149z" />
    <glyph glyph-name="ampersand" unicode="&#x26;" horiz-adv-x="1345" 
d="M928 150q-112 -89 -214 -132t-212 -43q-193 0 -311.5 116t-118.5 294q0 144 89.5 265t256.5 198q-92 201 -92 342q0 134 88 224.5t227 90.5q135 0 217 -81.5t82 -211.5q0 -232 -317 -411q122 -223 303 -422q95 133 135 336l151 -39q-30 -202 -180 -406q107 -101 221 -127
v-163q-172 17 -325 170zM813 256q-182 206 -328 469q-254 -131 -254 -334q0 -111 82.5 -190.5t210.5 -79.5q69 0 146 35t143 100zM555 918q233 131 233 303q0 72 -38 114.5t-103 42.5q-72 0 -118 -53.5t-46 -142.5q0 -102 72 -264z" />
    <glyph glyph-name="quotesingle" unicode="'" horiz-adv-x="305" 
d="M211 1434v-553h-117v553h117z" />
    <glyph glyph-name="parenleft" unicode="(" horiz-adv-x="673" 
d="M264 -172q-139 313 -139 633t127 584.5t373 459.5h180q-272 -217 -404.5 -479t-132.5 -588q0 -306 138 -610h-142z" />
    <glyph glyph-name="parenright" unicode=")" horiz-adv-x="673" 
d="M383 1505q139 -313 139 -635q0 -320 -126.5 -583.5t-372.5 -458.5h-179q273 218 405 478.5t132 586.5q0 305 -139 612h141z" />
    <glyph glyph-name="asterisk" unicode="*" 
d="M567 999l-172 -294l-129 96l228 252l-330 75l47 150l311 -139l-24 342h137l-23 -342l310 139l49 -150l-332 -75l229 -252l-131 -96z" />
    <glyph glyph-name="plus" unicode="+" horiz-adv-x="1705" 
d="M913 1221v-551h539v-117h-539v-553h-118v553h-541v117h541v551h118z" />
    <glyph glyph-name="comma" unicode="," horiz-adv-x="616" 
d="M-70 -309l185 309h-76l49 223h209l-51 -233l-211 -299h-105z" />
    <glyph glyph-name="hyphen" unicode="-" horiz-adv-x="763" 
d="M70 467l30 137h498l-31 -137h-497z" />
    <glyph glyph-name="period" unicode="." horiz-adv-x="616" 
d="M39 0l49 223h209l-49 -223h-209z" />
    <glyph glyph-name="slash" unicode="/" horiz-adv-x="573" 
d="M512 1503h115l-598 -1693h-115z" />
    <glyph glyph-name="zero" unicode="0" horiz-adv-x="1232" 
d="M74 506q0 214 51 406t143 339q164 258 432 258q451 0 451 -563q0 -214 -57.5 -406.5t-161.5 -340.5q-77 -112 -183.5 -170t-228.5 -58q-212 0 -329 139t-117 396zM705 1378q-199 0 -308 -202q-79 -147 -124.5 -324.5t-45.5 -339.5q0 -200 74.5 -304t216.5 -104
q96 0 177.5 56.5t138.5 163.5q161 305 161 659q0 395 -290 395z" />
    <glyph glyph-name="one" unicode="1" horiz-adv-x="1232" 
d="M137 0l31 133h256l266 1190l-289 -37l27 103q197 54 328 114h129l-307 -1370h268l-33 -133h-676z" />
    <glyph glyph-name="two" unicode="2" horiz-adv-x="1232" 
d="M43 0q3 291 451 592q38 25 115.5 74t123 81t78.5 64q131 128 131 274q0 124 -80 204.5t-205 80.5q-118 0 -198.5 -76t-136.5 -235l-150 43q71 201 194 300t304 99q194 0 313 -116t119 -298q0 -180 -119 -317q-20 -23 -42.5 -44.5t-52.5 -44t-51 -38.5t-61.5 -40.5
t-60 -36.5t-69.5 -41t-68 -40q-135 -80 -225.5 -172.5t-125.5 -179.5h770l-18 -133h-936z" />
    <glyph glyph-name="three" unicode="3" horiz-adv-x="1232" 
d="M49 281l131 75q70 -123 154.5 -181t197.5 -58q150 0 240 87.5t90 233.5q0 143 -113 222.5t-329 80.5l29 136q68 -11 104 -11q187 0 286 71t99 198q0 108 -73.5 172.5t-198.5 64.5q-186 0 -299 -184l-125 82q140 229 428 229q198 0 312 -98.5t114 -265.5
q0 -141 -76 -232.5t-225 -126.5q103 -35 167 -130.5t64 -217.5q0 -198 -135 -323t-359 -125q-167 0 -291 77.5t-192 223.5z" />
    <glyph glyph-name="four" unicode="4" horiz-adv-x="1232" 
d="M221 479h539l188 862zM645 -25l84 375h-700l24 123l854 1006h213l-221 -1000h234l-25 -129h-240l-82 -375h-141z" />
    <glyph glyph-name="five" unicode="5" horiz-adv-x="1232" 
d="M61 281l138 73q62 -124 142.5 -182.5t190.5 -58.5q165 0 265 121.5t100 318.5q0 145 -79.5 229t-213.5 84q-88 0 -164.5 -43t-117.5 -118l-134 32l168 742h717l-24 -133h-588l-92 -424q116 79 254 79q192 0 313 -123.5t121 -328.5q0 -115 -40.5 -225.5t-111.5 -194.5
q-132 -154 -370 -154q-334 0 -474 306z" />
    <glyph glyph-name="six" unicode="6" horiz-adv-x="1232" 
d="M285 608q-9 -101 -9 -114q0 -172 86.5 -275.5t223.5 -103.5q145 0 239.5 108t94.5 277q0 132 -83 215.5t-212 83.5q-170 0 -340 -191zM313 801q161 133 326 133q199 0 318.5 -120.5t119.5 -317.5q0 -228 -132.5 -374.5t-344.5 -146.5q-231 0 -357 147t-126 423
q0 198 55.5 382t153.5 324q88 123 206 187.5t256 64.5q113 0 206.5 -44t183.5 -138l-107 -98q-139 151 -287 151q-172 0 -293.5 -145.5t-177.5 -427.5z" />
    <glyph glyph-name="seven" unicode="7" horiz-adv-x="1232" 
d="M193 -25l759 1371h-721l33 133h899l-24 -97l-762 -1407h-184z" />
    <glyph glyph-name="eight" unicode="8" horiz-adv-x="1232" 
d="M657 852q159 34 241.5 107.5t82.5 181.5q0 105 -82.5 169t-230.5 64q-125 0 -196 -62t-71 -167q0 -94 59.5 -159.5t196.5 -133.5zM614 702q-179 -26 -281 -115.5t-102 -215.5q0 -110 93 -185t239 -75q159 0 251.5 74t92.5 196q0 103 -76.5 185.5t-216.5 135.5zM455 801
q-106 69 -156.5 148t-50.5 177q0 169 114 273t304 104q217 0 342 -103t125 -274q0 -134 -78.5 -221.5t-241.5 -140.5q254 -140 254 -373q0 -189 -128.5 -302.5t-354.5 -113.5q-239 0 -374.5 107t-135.5 289q0 321 381 430z" />
    <glyph glyph-name="nine" unicode="9" horiz-adv-x="1232" 
d="M938 874q8 90 8 115q0 173 -86 276t-223 103q-145 0 -239.5 -108t-94.5 -277q0 -132 83 -215.5t212 -83.5q171 0 340 190zM909 684q-163 -135 -325 -135q-199 0 -320 120.5t-121 317.5q0 227 133 373.5t345 146.5q233 0 358 -146.5t125 -422.5q0 -199 -54.5 -383
t-152.5 -324q-179 -251 -463 -251q-113 0 -206 44t-183 138l105 98q139 -151 288 -151q172 0 293 146.5t178 428.5z" />
    <glyph glyph-name="colon" unicode=":" horiz-adv-x="632" 
d="M176 588l47 217h209l-47 -217h-209zM45 0l49 223h209l-49 -223h-209z" />
    <glyph glyph-name="semicolon" unicode=";" horiz-adv-x="632" 
d="M-72 -309l187 309h-78l51 223h209l-51 -233l-211 -299h-107zM170 588l47 217h207l-47 -217h-207z" />
    <glyph glyph-name="less" unicode="&#x3c;" horiz-adv-x="1705" 
d="M1442 1018l-1000 -408l1000 -405v-129l-1178 483v103l1178 483v-127z" />
    <glyph glyph-name="equal" unicode="=" horiz-adv-x="1705" 
d="M1452 860v-117h-1198v117h1198zM1452 477v-117h-1198v117h1198z" />
    <glyph glyph-name="greater" unicode="&#x3e;" horiz-adv-x="1705" 
d="M1442 662v-103l-1178 -483v129l1000 405l-1000 408v127z" />
    <glyph glyph-name="question" unicode="?" horiz-adv-x="899" 
d="M147 0l50 217h209l-48 -217h-211zM274 471q34 236 175 377q19 19 59.5 59t56 56t42 49t37 56t19.5 57t9 71q0 78 -45 124t-123 46q-64 0 -110.5 -33t-86.5 -106l-133 63q114 205 338 205q148 0 239 -87t91 -224q0 -36 -7 -69t-14 -57t-28 -55.5l-31 -46.5t-43.5 -49
t-44.5 -44.5t-53 -49.5q-95 -87 -143.5 -161.5t-59.5 -180.5h-144z" />
    <glyph glyph-name="at" unicode="@" horiz-adv-x="2048" 
d="M1202 473l60 242q-17 90 -72 140t-135 50q-147 0 -244.5 -132t-97.5 -327q0 -110 51 -169.5t145 -59.5q101 0 182.5 70t110.5 186zM1292 844l58 121h110l-141 -568q-12 -49 -12 -80q0 -90 110 -90q42 0 97.5 23t105.5 65q87 74 138.5 194.5t51.5 256.5q0 173 -86.5 306.5
t-249 208.5t-378.5 75q-338 0 -572 -205q-282 -246 -282 -637q0 -173 60 -304t187 -230q100 -79 239 -123.5t296 -44.5q171 0 334 48t297 140l45 -66q-296 -221 -660 -221q-383 0 -624 185q-303 233 -303 624q0 331 200 578q145 176 348.5 267t454.5 91q167 0 312.5 -44.5
t246.5 -123.5q129 -99 195.5 -230t66.5 -282q0 -171 -63 -310t-182 -235q-139 -112 -312 -112q-198 0 -198 155q0 3 1 11t1 12q-103 -178 -297 -178q-153 0 -233.5 85t-80.5 247q0 232 137.5 390t331.5 158q182 0 250 -157z" />
    <glyph glyph-name="A" unicode="A" horiz-adv-x="1236" 
d="M-53 0l700 1481h242l127 -1481h-158l-35 467h-489l-213 -467h-174zM397 604h420l-63 754h-11z" />
    <glyph glyph-name="B" unicode="B" horiz-adv-x="1341" 
d="M37 0l334 1481h348q240 0 358.5 -84t118.5 -258q0 -137 -73.5 -234t-202.5 -131l-2 -18q91 -19 149.5 -104t58.5 -203q0 -104 -42 -195t-117 -150q-80 -63 -177 -83.5t-247 -20.5h-506zM233 141h285q231 0 338 72.5t107 249.5q0 244 -336 244h-267zM391 840h260
q184 0 283.5 78t99.5 217q0 109 -78 160t-239 51h-213z" />
    <glyph glyph-name="C" unicode="C" horiz-adv-x="1236" 
d="M963 406l133 -82q-195 -355 -512 -355q-242 0 -373 148t-131 424q0 203 63 396.5t176 338.5q176 229 447 229q201 0 314.5 -108.5t150.5 -335.5l-158 -27q-25 167 -98.5 247.5t-204.5 80.5q-217 0 -348 -209q-81 -132 -127.5 -298t-46.5 -325q0 -199 88.5 -308
t243.5 -109q108 0 206 74t177 219z" />
    <glyph glyph-name="D" unicode="D" horiz-adv-x="1355" 
d="M31 0l329 1481h222q345 0 514.5 -145t169.5 -445q0 -226 -74.5 -415t-208.5 -312q-50 -46 -104.5 -77t-103 -48t-114 -26t-115 -11t-128.5 -2h-387zM223 141h201q159 0 261 27t192 111q100 94 163.5 259t63.5 347q0 224 -124.5 340t-365.5 116h-125z" />
    <glyph glyph-name="E" unicode="E" horiz-adv-x="1124" 
d="M37 0l328 1481h761l-28 -138h-602l-111 -501h498l-31 -135h-498l-125 -568h711l-31 -139h-872z" />
    <glyph glyph-name="F" unicode="F" horiz-adv-x="1118" 
d="M47 0l328 1481h760l-29 -138h-602l-111 -501h498l-29 -135h-500l-157 -707h-158z" />
    <glyph glyph-name="G" unicode="G" horiz-adv-x="1351" 
d="M1036 0h-141l27 137q-136 -164 -365 -164q-217 0 -346 148.5t-129 406.5q0 190 59 383.5t160 339.5q177 254 467 254q200 0 324.5 -114t146.5 -318l-158 -18q-15 142 -103 225.5t-222 83.5q-206 0 -340 -221q-77 -128 -123.5 -297.5t-46.5 -325.5q0 -184 90 -293.5
t233 -109.5q166 0 283.5 120t140.5 326h-342l31 139h508z" />
    <glyph glyph-name="H" unicode="H" horiz-adv-x="1464" 
d="M37 0l328 1481h159l-141 -643h741l144 643h159l-327 -1481h-160l154 700h-740l-157 -700h-160z" />
    <glyph glyph-name="I" unicode="I" horiz-adv-x="563" 
d="M37 0l328 1481h163l-327 -1481h-164z" />
    <glyph glyph-name="J" unicode="J" horiz-adv-x="901" 
d="M-90 170l133 82q50 -133 170 -133q53 0 90 18.5t63 61.5t43 95.5t35 139.5l224 1047h163l-223 -1069q-48 -233 -133 -335t-256 -102q-114 0 -194 50.5t-115 144.5z" />
    <glyph glyph-name="K" unicode="K" horiz-adv-x="1232" 
d="M37 0l336 1481h162l-162 -733l725 733h194l-581 -582l327 -899h-172l-280 782l-269 -258l-116 -524h-164z" />
    <glyph glyph-name="L" unicode="L" horiz-adv-x="1005" 
d="M37 0l328 1481h165l-297 -1340h699l-31 -141h-864z" />
    <glyph glyph-name="M" unicode="M" horiz-adv-x="1687" 
d="M39 0l336 1481h239l101 -1235l678 1235h258l-334 -1481h-158l301 1331l-733 -1331h-121l-108 1331l-301 -1331h-158z" />
    <glyph glyph-name="N" unicode="N" horiz-adv-x="1464" 
d="M35 0l336 1481h223l410 -1213l266 1213h162l-334 -1481h-144l-456 1319l-301 -1319h-162z" />
    <glyph glyph-name="O" unicode="O" horiz-adv-x="1351" 
d="M80 553q0 183 51.5 357t142.5 307q97 142 227.5 216t284.5 74q231 0 358.5 -153t127.5 -436q0 -182 -56 -359.5t-161 -329.5q-86 -123 -210.5 -189.5t-269.5 -66.5q-233 0 -364 153t-131 427zM772 1370q-108 0 -205.5 -59.5t-167.5 -171.5q-73 -117 -117 -279.5
t-44 -324.5q0 -197 92.5 -310.5t249.5 -113.5q103 0 198 55t162 156q79 118 125.5 281t46.5 327q0 207 -91.5 323.5t-248.5 116.5z" />
    <glyph glyph-name="P" unicode="P" horiz-adv-x="1241" 
d="M33 0l334 1481h338q256 0 378.5 -90t122.5 -283q0 -215 -148 -337t-415 -122h-301l-149 -649h-160zM375 788h231q434 0 434 318q0 135 -85.5 186t-280.5 51h-174z" />
    <glyph glyph-name="Q" unicode="Q" horiz-adv-x="1355" 
d="M780 172q-59 111 -164 147l52 154q150 -57 229 -203q100 127 156.5 300.5t56.5 359.5q0 206 -92 323t-248 117q-109 0 -208 -60t-165 -167q-73 -122 -117 -286t-44 -322q0 -199 93 -311.5t253 -112.5q91 0 198 61zM1163 -160q-10 -2 -28 -2q-157 0 -295 205
q-118 -70 -269 -70q-230 0 -361.5 153t-131.5 425q0 184 51 359t141 307q97 142 227.5 216t284.5 74q231 0 358.5 -154t127.5 -438q0 -225 -80 -432t-223 -354q99 -140 252 -143z" />
    <glyph glyph-name="R" unicode="R" horiz-adv-x="1341" 
d="M43 0l328 1481h323q270 0 397.5 -87t127.5 -284q0 -178 -104.5 -291t-295.5 -139l205 -680h-168l-190 662h-316l-147 -662h-160zM381 801h287q191 0 291 81.5t100 233.5q0 225 -328 225h-229z" />
    <glyph glyph-name="S" unicode="S" horiz-adv-x="1232" 
d="M68 397l153 52q43 -161 136.5 -243.5t230.5 -82.5q128 0 206 73t78 191q0 31 -4 57.5t-16.5 50.5t-22.5 41t-35.5 38t-40 33t-53 33.5t-57.5 32t-68 36.5q-90 48 -148 87.5t-107 90.5t-71 112t-22 138q0 164 114 267t300 103q377 0 477 -377l-143 -43q-37 141 -123 213
t-217 72q-115 0 -181.5 -64t-66.5 -175q0 -49 20 -89.5t67.5 -79.5t97 -69t137.5 -76q71 -38 117.5 -67.5t90 -67.5t67.5 -79t38 -95t14 -121q0 -184 -124 -299t-330 -115q-201 0 -334.5 109t-179.5 313z" />
    <glyph glyph-name="T" unicode="T" horiz-adv-x="1009" 
d="M256 0l297 1343h-406l29 138h944l-28 -138h-375l-297 -1343h-164z" />
    <glyph glyph-name="U" unicode="U" horiz-adv-x="1460" 
d="M369 1481h163l-202 -895q-31 -146 -31 -199q0 -126 83 -198t232 -72q100 0 171 25t122 82t84 136.5t60 200.5l211 920h163l-217 -953q-35 -153 -80 -254t-115 -170t-166.5 -99t-232.5 -30q-234 0 -355.5 105t-121.5 303q0 17 1 34t4 38.5t4.5 34t7 39.5t7 35t9 41t8.5 38
z" />
    <glyph glyph-name="V" unicode="V" horiz-adv-x="1236" 
d="M371 0l-152 1481h158l115 -1239l622 1239h172l-762 -1481h-153z" />
    <glyph glyph-name="W" unicode="W" horiz-adv-x="2029" 
d="M1087 1219l-598 -1219h-149l-129 1481h154l96 -1233l606 1233h143l99 -1231l598 1231h166l-732 -1481h-153z" />
    <glyph glyph-name="X" unicode="X" horiz-adv-x="1124" 
d="M-68 0l537 778l-291 703h168l229 -566l379 566h185l-498 -719l317 -762h-172l-247 625l-420 -625h-187z" />
    <glyph glyph-name="Y" unicode="Y" horiz-adv-x="1005" 
d="M266 0l144 647l-267 834h166l207 -680l424 680h180l-555 -871l-135 -610h-164z" />
    <glyph glyph-name="Z" unicode="Z" horiz-adv-x="1124" 
d="M6 0l27 119l850 1224h-629l29 138h825l-23 -113l-849 -1227h700l-33 -141h-897z" />
    <glyph glyph-name="bracketleft" unicode="[" horiz-adv-x="673" 
d="M-12 -143l360 1624h424l-20 -86h-279l-323 -1448h280l-20 -90h-422z" />
    <glyph glyph-name="backslash" unicode="\" horiz-adv-x="573" 
d="M309 1497l62 -1687h-111l-63 1687h112z" />
    <glyph glyph-name="bracketright" unicode="]" horiz-adv-x="673" 
d="M659 1481l-362 -1624h-422l19 88h278l324 1448h-281l23 88h421z" />
    <glyph glyph-name="asciicircum" unicode="^" horiz-adv-x="2048" 
d="M1104 1458l520 -557h-158l-442 438l-442 -438h-160l520 557h162z" />
    <glyph glyph-name="underscore" unicode="_" 
d="M1024 -365v-118h-1024v118h1024z" />
    <glyph glyph-name="grave" unicode="`" 
d="M741 1194h-100l-285 348h166z" />
    <glyph glyph-name="a" unicode="a" horiz-adv-x="1044" 
d="M584 0l12 123q-131 -137 -320 -137q-129 0 -207.5 76.5t-78.5 199.5q0 181 186.5 293t546.5 141q10 62 10 82q0 85 -57.5 134t-159.5 49q-179 0 -262 -154l-125 80q131 194 412 194q152 0 245 -80.5t93 -209.5q0 -68 -33 -213l-72 -326q-33 -146 -33 -238v-14h-157z
M633 283l63 284q-280 -31 -417.5 -104.5t-137.5 -194.5q0 -66 47 -109.5t119 -43.5q152 0 326 168z" />
    <glyph glyph-name="b" unicode="b" horiz-adv-x="1118" 
d="M0 0l330 1481h147l-121 -531q119 131 281 131q167 0 259.5 -108t92.5 -307q0 -138 -43 -273t-119 -237q-127 -174 -342 -174q-231 0 -303 184l-67 -166h-115zM221 338q20 -104 87 -163.5t163 -59.5q74 0 139 35t109 100q55 79 88 193.5t33 228.5q0 136 -58 210t-161 74
q-151 0 -302 -168z" />
    <glyph glyph-name="c" unicode="c" horiz-adv-x="1005" 
d="M723 299l108 -76q-70 -124 -169 -183.5t-234 -59.5q-193 0 -294 114.5t-101 333.5q0 289 142.5 471t363.5 182q154 0 250 -82.5t124 -238.5l-139 -33q-29 120 -87 177t-152 57q-151 0 -253 -156t-102 -399q0 -144 64 -224t174 -80q94 0 167 48t138 149z" />
    <glyph glyph-name="d" unicode="d" horiz-adv-x="1118" 
d="M1108 1481l-330 -1481h-137l29 127q-119 -143 -293 -143q-167 0 -259.5 107.5t-92.5 305.5q0 140 42.5 274t118.5 236q129 176 344 176q227 0 301 -186l132 584h145zM793 725q-20 104 -86.5 164.5t-161.5 60.5q-74 0 -140 -36t-110 -101q-55 -79 -88 -193.5t-33 -228.5
q0 -135 58.5 -208.5t162.5 -73.5q150 0 299 165z" />
    <glyph glyph-name="e" unicode="e" horiz-adv-x="1034" 
d="M721 291l108 -78q-157 -231 -407 -231q-195 0 -298.5 116t-103.5 334q0 290 142.5 469.5t367.5 179.5q184 0 281.5 -117.5t97.5 -342.5q0 -53 -6 -111h-729q-8 -49 -8 -113q0 -136 68 -214.5t184 -78.5q171 0 303 187zM199 633h557q0 6 1 17.5t1 17.5q0 138 -65 216.5
t-175 78.5q-111 0 -197 -87t-122 -243z" />
    <glyph glyph-name="f" unicode="f" horiz-adv-x="677" 
d="M59 0l209 944h-178l27 123h178l29 131q33 155 103 229t189 74q72 0 166 -24l-28 -125q-67 20 -119 20q-72 0 -108.5 -43t-57.5 -143l-27 -119h217l-26 -123h-217l-211 -944h-146z" />
    <glyph glyph-name="g" unicode="g" horiz-adv-x="1009" 
d="M106 131q-79 46 -79 127q0 62 44 106t136 78q-105 86 -105 238q0 172 115 287.5t291 115.5q142 0 246 -75q77 86 170 86q21 0 39 -4v-136h-25q-80 0 -117 -30q53 -85 53 -187q0 -176 -109 -285.5t-290 -109.5q-90 0 -176 45q-117 -49 -117 -106q0 -16 6.5 -28t22 -20.5
t33.5 -14.5t50.5 -12.5t63 -11.5t79.5 -14t93 -18q149 -30 217 -87.5t68 -160.5q0 -128 -121.5 -215.5t-326.5 -87.5q-209 0 -330 80t-121 203q0 87 45.5 143.5t144.5 93.5zM215 76q-158 -55 -158 -166q0 -72 84 -120t230 -48q138 0 220.5 46t82.5 112q0 25 -8 43
t-29.5 32.5t-44 23.5t-67.5 19t-82 16.5t-106 19t-122 22.5zM512 965q-112 0 -186 -81t-74 -210q0 -91 62.5 -152t158.5 -61q117 0 190.5 77t73.5 203q0 100 -62.5 162t-162.5 62z" />
    <glyph glyph-name="h" unicode="h" horiz-adv-x="1124" 
d="M12 0l328 1481h145l-125 -563q156 163 345 163q120 0 189 -69.5t69 -192.5q0 -47 -27 -174l-141 -645h-148l152 690q16 71 16 113q0 151 -153 151q-72 0 -160.5 -47.5t-173.5 -138.5l-170 -768h-146z" />
    <glyph glyph-name="i" unicode="i" horiz-adv-x="563" 
d="M35 0l237 1067h152l-236 -1067h-153zM317 1311l37 170h174l-39 -170h-172z" />
    <glyph glyph-name="j" unicode="j" horiz-adv-x="559" 
d="M-252 -371l37 133q37 -12 74 -12q81 0 113.5 36.5t58.5 156.5l250 1124h151l-250 -1130q-20 -89 -41 -145t-54.5 -98.5t-81.5 -60.5t-118 -18q-62 0 -139 14zM326 1311l36 170h173l-39 -170h-170z" />
    <glyph glyph-name="k" unicode="k" horiz-adv-x="1013" 
d="M41 0l328 1481h147l-197 -889l490 475h192l-426 -401l244 -666h-162l-200 561l-183 -170l-88 -391h-145z" />
    <glyph glyph-name="l" unicode="l" horiz-adv-x="563" 
d="M35 0l327 1481h154l-328 -1481h-153z" />
    <glyph glyph-name="m" unicode="m" horiz-adv-x="1691" 
d="M12 0l238 1067h141l-33 -147q141 159 318 159q198 0 244 -184q165 186 350 186q123 0 193.5 -67.5t70.5 -184.5q0 -67 -23 -165l-147 -664h-145l155 705q15 68 15 104q0 68 -36.5 104.5t-105.5 36.5q-156 0 -319 -174l-172 -776h-142l158 713q10 48 10 92q0 70 -34 107.5
t-99 37.5q-78 0 -161 -46.5t-158 -135.5l-172 -768h-146z" />
    <glyph glyph-name="n" unicode="n" horiz-adv-x="1124" 
d="M12 0l236 1067h141l-35 -160q157 174 351 174q120 0 189 -69.5t69 -192.5q0 -56 -25 -174l-143 -645h-148l154 690q14 62 14 113q0 151 -153 151q-72 0 -159.5 -47.5t-172.5 -138.5l-172 -768h-146z" />
    <glyph glyph-name="o" unicode="o" horiz-adv-x="1005" 
d="M12 418q0 293 145.5 479t364.5 186q175 0 277 -116t102 -320q0 -193 -67 -346.5t-181 -237t-254 -83.5q-182 0 -284.5 115t-102.5 323zM512 963q-151 0 -251.5 -155t-100.5 -398q0 -152 62 -230t184 -78q150 0 249 155.5t99 397.5q0 144 -66 226t-176 82z" />
    <glyph glyph-name="p" unicode="p" horiz-adv-x="1124" 
d="M-82 -389l326 1456h135l-29 -129q119 143 293 143q167 0 259.5 -108t92.5 -307q0 -139 -43 -273.5t-118 -236.5q-127 -174 -342 -174q-232 0 -304 184l-125 -555h-145zM227 338q20 -104 87 -163.5t163 -59.5q74 0 139 35t109 100q55 79 88 193.5t33 228.5q0 136 -58 210
t-161 74q-150 0 -301 -168z" />
    <glyph glyph-name="q" unicode="q" horiz-adv-x="1124" 
d="M1020 1067l-324 -1456h-145l111 502q-111 -129 -281 -129q-167 0 -258.5 107t-91.5 306q0 140 43 274t119 236q129 176 344 176q227 0 301 -186l75 170h107zM799 725q-20 104 -87.5 164.5t-162.5 60.5q-74 0 -139 -35.5t-109 -101.5q-55 -79 -89 -193.5t-34 -228.5
q0 -135 58.5 -208.5t162.5 -73.5q150 0 299 165z" />
    <glyph glyph-name="r" unicode="r" horiz-adv-x="677" 
d="M12 0l238 1067h147l-47 -209q116 221 316 221q15 0 47 -4l-35 -157q-10 2 -31 2q-100 0 -191.5 -84t-160.5 -246l-131 -590h-152z" />
    <glyph glyph-name="s" unicode="s" horiz-adv-x="890" 
d="M-33 227l121 80q65 -104 134 -148t171 -44q88 0 138.5 45.5t50.5 124.5q0 26 -5.5 47t-20 39.5t-27.5 31t-42 28.5t-48 25.5t-60 28.5q-74 34 -117 59.5t-80.5 60t-53 76.5t-15.5 99q0 134 86.5 218.5t228.5 84.5q261 0 379 -229l-127 -68q-54 93 -112.5 134t-143.5 41
q-70 0 -118 -43.5t-48 -108.5q0 -37 10 -62.5t35.5 -46.5t51 -35t74.5 -38q9 -4 13 -6q77 -37 126.5 -67t89.5 -68t57.5 -83.5t17.5 -103.5q0 -146 -92.5 -232.5t-249.5 -86.5q-290 0 -424 247z" />
    <glyph glyph-name="t" unicode="t" horiz-adv-x="673" 
d="M506 0q-57 -16 -141 -16q-252 0 -252 206q0 46 12 105l143 649h-180l27 123h182l74 344h153l-78 -344h211l-28 -123h-209l-144 -643q-14 -60 -14 -98q0 -94 121 -94q55 0 147 18z" />
    <glyph glyph-name="u" unicode="u" horiz-adv-x="1124" 
d="M1030 1067l-233 -1067h-142l33 156q-156 -172 -350 -172q-120 0 -189 69.5t-69 192.5q0 61 24 174l146 647h147l-153 -694q-17 -72 -17 -111q0 -153 154 -153q72 0 159.5 47.5t172.5 138.5l172 772h145z" />
    <glyph glyph-name="v" unicode="v" horiz-adv-x="901" 
d="M211 0l-127 1067h145l97 -920l403 920h156l-477 -1067h-197z" />
    <glyph glyph-name="w" unicode="w" horiz-adv-x="1345" 
d="M180 0l-114 1067h141l69 -850l345 850h139l51 -840l371 840h153l-499 -1067h-125l-56 858l-346 -858h-129z" />
    <glyph glyph-name="x" unicode="x" horiz-adv-x="890" 
d="M-84 0l399 565l-231 502h158l170 -391l266 391h168l-363 -514l258 -553h-157l-199 444l-299 -444h-170z" />
    <glyph glyph-name="y" unicode="y" horiz-adv-x="890" 
d="M334 -102q-37 -78 -66 -125t-70 -87t-93.5 -57.5t-124.5 -17.5q-83 0 -127 31l36 114q56 -20 105 -20q63 0 107 37.5t85 122.5l50 100l-154 1071h141l117 -852l389 852h156z" />
    <glyph glyph-name="z" unicode="z" horiz-adv-x="929" 
d="M-23 0l25 113l635 831h-498l29 123h680l-29 -109l-635 -833h566l-33 -125h-740z" />
    <glyph glyph-name="braceleft" unicode="{" 
d="M858 1350q-8 0 -23 1t-22 1q-67 0 -107 -12t-62.5 -42.5t-30 -73.5t-7.5 -116v-242q0 -156 -39.5 -230t-158.5 -106q119 -32 158.5 -105.5t39.5 -229.5v-242q0 -73 8 -116t31.5 -73.5t64.5 -41.5t109 -11h39v-125h-35q-182 0 -262 52q-63 41 -81.5 111t-18.5 202v244
q0 150 -54 212t-190 62q-7 0 -22 -1t-23 -1v127q8 0 23 -1t22 -1q136 0 190 62t54 214v244q0 134 18 203t82 110q80 52 262 52h35v-127z" />
    <glyph glyph-name="bar" unicode="|" 
d="M575 1565v-2048h-126v2048h126z" />
    <glyph glyph-name="braceright" unicode="}" 
d="M563 1112v-244q0 -151 55 -213.5t191 -62.5q7 0 22 1t23 1v-127q-8 0 -23 1t-22 1q-136 0 -191 -62.5t-55 -213.5v-242q0 -134 -18 -204.5t-80 -111.5q-43 -29 -103.5 -39t-154.5 -10h-41v125q8 0 23 -1t22 -1q66 0 106.5 12t63 43.5t30 74.5t7.5 116v240
q0 156 39.5 229.5t158.5 105.5q-119 32 -158.5 106t-39.5 230v242q0 73 -8 116.5t-31.5 74t-64.5 42t-109 11.5h-39v125h35q184 0 264 -52q62 -41 80 -110t18 -203z" />
    <glyph glyph-name="asciitilde" unicode="~" horiz-adv-x="1705" 
d="M1530 627q-202 -144 -387 -144q-88 0 -191 35q-29 10 -99 35t-104.5 35.5t-87.5 21.5t-98 11q-87 0 -178.5 -39.5t-206.5 -120.5v133q210 145 387 145q50 0 104.5 -10.5t91 -22t95.5 -32.5q13 -5 47 -17.5t49.5 -18t45.5 -14.5t49.5 -13t46 -7.5t51.5 -3.5q88 0 179.5 39
t205.5 119v-131z" />
    <glyph glyph-name="exclamdown" unicode="&#xa1;" horiz-adv-x="632" 
d="M584 1481l-47 -219h-209l47 219h209zM47 -2l272 1022h121l-184 -1022h-209z" />
    <glyph glyph-name="cent" unicode="&#xa2;" horiz-adv-x="1232" 
d="M729 967q-48 10 -82 10q-125 0 -211 -111q-54 -68 -92.5 -192t-38.5 -252q0 -176 111 -256zM844 326l117 -80q-63 -118 -166.5 -182t-231.5 -64q-16 0 -94 8l-92 -233h-119l104 264q-200 104 -200 410q0 189 65.5 340t177 234t246.5 83q45 0 123 -16l84 219h121
l-102 -260q137 -89 165 -269l-145 -32q-15 106 -76 170l-311 -791q16 -2 45 -2q185 0 289 201z" />
    <glyph glyph-name="sterling" unicode="&#xa3;" horiz-adv-x="1232" 
d="M37 -16v151q122 40 185 165t63 329q0 9 -1 28.5t-1 28.5h-242l18 119h234q0 13 -1 35.5t-1 33.5q0 631 491 631q201 0 312.5 -105t126.5 -310l-146 -21q-12 146 -89 224.5t-206 78.5q-177 0 -258.5 -130t-81.5 -404v-33h342l-20 -119h-322q-6 -273 -75 -420
q201 -139 372 -139q213 0 262 262l146 -35q-41 -192 -145 -282t-283 -90q-115 0 -225 40t-197 115q-105 -135 -258 -153z" />
    <glyph glyph-name="currency" unicode="&#xa4;" horiz-adv-x="1241" 
d="M365 1212q120 91 256 91q140 0 260 -91l204 207l72 -73l-205 -205q86 -115 86 -256t-86 -256l205 -205l-72 -74l-204 207q-113 -88 -260 -88q-143 0 -256 88l-207 -207l-72 74l207 205q-88 117 -88 256t88 256l-207 205l72 73zM936 887q0 129 -91.5 221t-221.5 92
t-222 -92t-92 -221q0 -131 92 -223.5t222 -92.5t221.5 93t91.5 223z" />
    <glyph glyph-name="yen" unicode="&#xa5;" horiz-adv-x="1232" 
d="M352 0l142 637h-433l21 94h385l-61 197h-281l22 94h232l-150 457h146l221 -705l438 705h160l-293 -457h270l-20 -94h-309l-127 -197h393l-21 -94h-432l-16 -27l-135 -610h-152z" />
    <glyph glyph-name="brokenbar" unicode="&#xa6;" 
d="M575 1432v-758h-126v758h126zM575 408v-758h-126v758h126z" />
    <glyph glyph-name="section" unicode="&#xa7;" 
d="M315 852q0 -84 134 -285q57 -84 93.5 -118.5t86.5 -34.5q54 0 86.5 30.5t32.5 81.5q0 86 -144 299q-50 75 -87.5 108.5t-84.5 33.5q-51 0 -84 -32.5t-33 -82.5zM98 6l105 72q98 -137 207 -137q60 0 99.5 37.5t39.5 97.5q0 51 -28 108.5t-89 149.5l-125 192
q-131 203 -131 322q0 93 60.5 156t150.5 63q28 0 76 -10q-80 140 -80 225q0 103 70.5 165t193.5 62q90 0 161 -40t136 -126l-100 -71q-91 125 -191 125q-59 0 -95 -32.5t-36 -84.5q0 -32 13 -67.5t26 -58t44.5 -69.5t43.5 -67l117 -184q119 -188 119 -302q0 -94 -59 -158.5
t-144 -64.5q-26 0 -84 10q90 -137 90 -245q0 -115 -76 -183.5t-204 -68.5q-187 0 -310 184z" />
    <glyph glyph-name="dieresis" unicode="&#xa8;" 
d="M379 1257l41 189h160l-41 -189h-160zM700 1257l41 189h160l-41 -189h-160z" />
    <glyph glyph-name="copyright" unicode="&#xa9;" horiz-adv-x="1705" 
d="M852 1460q150 0 284.5 -55t239.5 -160q103 -103 157 -236.5t54 -283.5q0 -308 -211 -516q-109 -106 -244 -162.5t-280 -56.5q-299 0 -516 217q-106 106 -161.5 239t-55.5 279t56.5 280t162.5 242q102 103 233.5 158t280.5 55zM1501 725q0 131 -48.5 249.5t-139.5 209.5
q-188 188 -461 188q-270 0 -453 -186q-93 -95 -142.5 -214t-49.5 -247q0 -127 49 -244t141 -211q92 -92 209 -141t246 -49q128 0 248 49.5t215 142.5q186 183 186 453zM1065 911q-15 77 -71 120.5t-138 43.5q-117 0 -182.5 -91.5t-65.5 -260.5q0 -162 67 -253t181 -91
q87 0 145.5 48t73.5 134h129q-11 -128 -108.5 -207.5t-245.5 -79.5q-174 0 -279.5 120.5t-105.5 326.5q0 210 108 333.5t287 123.5q137 0 230 -75t104 -192h-129z" />
    <glyph glyph-name="ordfeminine" unicode="&#xaa;" horiz-adv-x="784" 
d="M438 735l8 86q-96 -96 -239 -96q-96 0 -155.5 54t-59.5 141q0 126 141 204.5t410 98.5q8 54 8 57q0 59 -44 93t-120 34q-136 0 -197 -107l-94 56q99 137 310 137q114 0 183.5 -57t69.5 -148q0 -44 -24 -149l-53 -228q-25 -100 -25 -166v-10h-119zM475 934l47 199
q-416 -43 -416 -209q0 -46 35 -77.5t90 -31.5q113 0 244 119z" />
    <glyph glyph-name="guillemotleft" unicode="&#xab;" horiz-adv-x="983" 
d="M801 844l-262 -309l206 -316h-141l-207 316l262 309h142zM504 844l-260 -309l205 -316h-142l-205 316l260 309h142z" />
    <glyph glyph-name="logicalnot" unicode="&#xac;" horiz-adv-x="1705" 
d="M1452 858v-502h-115v385h-1083v117h1198z" />
    <glyph glyph-name="registered" unicode="&#xae;" horiz-adv-x="1705" 
d="M852 1460q307 0 524 -217q102 -102 156.5 -236t54.5 -282q0 -309 -213 -516q-109 -106 -243.5 -162.5t-278.5 -56.5q-146 0 -279 56.5t-239 162.5q-104 104 -159.5 237t-55.5 279t57 281.5t164 242.5q208 211 512 211zM1501 721q0 133 -48 252t-138 209
q-190 190 -463 190q-270 0 -451 -184q-95 -95 -144.5 -214t-49.5 -249q0 -127 49 -244t141 -211q91 -93 208.5 -141.5t244.5 -48.5q270 0 463 190q188 185 188 451zM872 1157q351 0 351 -231q0 -88 -52.5 -148.5t-144.5 -75.5l188 -385h-157l-176 365h-179v-365h-141v840
h311zM846 1065h-144v-291h148q120 0 173.5 31.5t53.5 109.5q0 81 -55.5 115.5t-175.5 34.5z" />
    <glyph glyph-name="macron" unicode="&#xaf;" 
d="M369 1288l26 127h516l-26 -127h-516z" />
    <glyph glyph-name="degree" unicode="&#xb0;" horiz-adv-x="673" 
d="M338 1454q117 0 200 -83t83 -200q0 -116 -83 -199t-202 -83q-118 0 -199.5 81.5t-81.5 200.5t82.5 201t200.5 82zM539 1171q0 84 -58.5 142.5t-142.5 58.5t-143.5 -58.5t-59.5 -142.5q0 -85 59.5 -143.5t143.5 -58.5q85 0 143 59t58 143z" />
    <glyph glyph-name="plusminus" unicode="&#xb1;" horiz-adv-x="1705" 
d="M913 1180v-344h539v-117h-539v-344h-118v344h-541v117h541v344h118zM1452 158v-117h-1198v117h1198z" />
    <glyph glyph-name="twosuperior" unicode="&#xb2;" horiz-adv-x="813" 
d="M29 592q3 176 297 354q26 16 77 45.5t81 49t51 38.5q88 76 88 164q0 74 -53 122t-136 48q-78 0 -132 -45.5t-89 -140.5l-100 26q95 240 329 240q128 0 206.5 -70t78.5 -178q0 -109 -78 -190q-13 -14 -27.5 -27t-35 -27t-33.5 -23t-41 -24.5t-39.5 -22t-46.5 -24.5
t-45 -24q-179 -98 -231 -211h507l-12 -80h-616z" />
    <glyph glyph-name="threesuperior" unicode="&#xb3;" horiz-adv-x="813" 
d="M33 760l86 45q91 -143 233 -143q98 0 157.5 52t59.5 140q0 87 -75 134.5t-218 47.5l21 82q35 -6 68 -6q123 0 188 42t65 118q0 65 -47.5 104t-130.5 39q-123 0 -198 -110l-82 49q91 137 282 137q131 0 206 -59t75 -160q0 -171 -199 -215q68 -20 111 -78t43 -131
q0 -118 -89 -193t-237 -75q-110 0 -192.5 46t-126.5 134z" />
    <glyph glyph-name="acute" unicode="&#xb4;" 
d="M584 1194h-107l236 348h178z" />
    <glyph glyph-name="mu" unicode="&#xb5;" horiz-adv-x="1128" 
d="M362 1069l-126 -596q-15 -68 -15 -137q0 -108 56.5 -167.5t160.5 -59.5q126 0 209 101.5t127 307.5l121 551h156l-162 -754q-23 -103 -23 -135q0 -65 72 -65q17 0 35 2l-27 -125q-44 -10 -92 -10q-70 0 -104.5 35t-40.5 112q-40 -69 -116 -108t-173 -39q-174 0 -262 137
l-113 -545h-156l316 1495h157z" />
    <glyph glyph-name="paragraph" unicode="&#xb6;" 
d="M948 1401h-125v-1401h-94v1401h-184v-1401h-94v782q-173 7 -274 102t-101 246q0 156 106.5 252.5t286.5 96.5h479v-78z" />
    <glyph glyph-name="periodcentered" unicode="&#xb7;" horiz-adv-x="616" 
d="M207 741q0 53 35.5 88t87.5 35q53 0 89 -35.5t36 -87.5t-37 -88.5t-88 -36.5t-87 36.5t-36 88.5z" />
    <glyph glyph-name="cedilla" unicode="&#xb8;" 
d="M35 -418l31 86q136 -41 223 -41q125 0 125 105q0 46 -38.5 64t-125.5 18h-37l63 186h72l-35 -106h19q111 0 163 -40t52 -128q0 -87 -64 -141t-174 -54q-106 0 -274 51z" />
    <glyph glyph-name="onesuperior" unicode="&#xb9;" horiz-adv-x="813" 
d="M90 592l21 80h170l174 714l-191 -22l19 61q124 30 215 68h86l-203 -821h178l-22 -80h-447z" />
    <glyph glyph-name="ordmasculine" unicode="&#xba;" horiz-adv-x="753" 
d="M10 1028q0 205 109 335t272 130q132 0 208.5 -80.5t76.5 -224.5q0 -204 -108.5 -335.5t-268.5 -131.5q-136 0 -212.5 80.5t-76.5 226.5zM385 1409q-114 0 -189 -108.5t-75 -278.5q0 -215 184 -215q111 0 185.5 109t74.5 278q0 100 -49 157.5t-131 57.5z" />
    <glyph glyph-name="guillemotright" unicode="&#xbb;" horiz-adv-x="983" 
d="M379 219l262 309l-207 316h141l207 -316l-262 -309h-141zM84 219l262 309l-207 316h142l204 -316l-260 -309h-141z" />
    <glyph glyph-name="onequarter" unicode="&#xbc;" horiz-adv-x="1894" 
d="M86 651l18 74h162l168 668l-182 -21l16 58q115 26 207 63h82l-195 -768h170l-20 -74h-426zM438 -25l908 1528h110l-907 -1528h-111zM1257 268h340l119 484zM1524 -14l53 211h-440l14 67l539 563h135l-139 -559h145l-14 -71h-152l-51 -211h-90z" />
    <glyph glyph-name="onehalf" unicode="&#xbd;" horiz-adv-x="1894" 
d="M86 651l18 74h162l168 668l-182 -21l16 58q115 26 207 63h82l-195 -768h170l-20 -74h-426zM438 -25l908 1528h110l-907 -1528h-111zM1145 0q3 162 285 332q18 10 57.5 32t57.5 32.5t42.5 27.5t40.5 31q84 69 84 153q0 69 -50.5 114.5t-129.5 45.5q-73 0 -124 -43
t-87 -131l-94 22q87 224 313 224q123 0 197.5 -65t74.5 -167q0 -101 -75 -176q-14 -15 -33 -30.5t-34.5 -26.5t-43.5 -27t-42.5 -23.5t-50.5 -26.5t-50 -26q-85 -44 -141.5 -96.5t-79.5 -101.5h485l-12 -74h-590z" />
    <glyph glyph-name="threequarters" unicode="&#xbe;" horiz-adv-x="1896" 
d="M31 809l82 41q87 -133 223 -133q94 0 150.5 49t56.5 131q0 79 -71.5 124t-207.5 46l19 76q34 -6 65 -6q119 0 181.5 39t62.5 110q0 60 -47 96.5t-125 36.5q-122 0 -189 -102l-79 45q88 129 270 129q125 0 196.5 -55.5t71.5 -149.5q0 -161 -190 -201q67 -20 107 -73
t40 -121q0 -110 -85 -181t-226 -71q-105 0 -183.5 44t-121.5 126zM438 -25l908 1528h110l-907 -1528h-111zM1257 268h340l119 484zM1524 -14l53 211h-440l14 67l539 563h135l-139 -559h145l-14 -71h-152l-51 -211h-90z" />
    <glyph glyph-name="questiondown" unicode="&#xbf;" horiz-adv-x="899" 
d="M750 1477l-48 -220h-208l47 220h209zM625 1006q-35 -238 -174 -377q-19 -20 -59.5 -59t-56.5 -56t-42.5 -49.5t-37 -55.5t-19.5 -57t-9 -71q0 -78 45 -125t123 -47q64 0 110.5 34t86.5 107l133 -64q-114 -204 -338 -204q-148 0 -239 86t-91 223q0 42 6.5 77.5t23.5 70
t31.5 58t46.5 57.5t50.5 52t60.5 58q96 88 145 162t60 180h144z" />
    <glyph glyph-name="Agrave" unicode="&#xc0;" horiz-adv-x="1236" 
d="M-53 0l700 1481h242l127 -1481h-158l-35 467h-489l-213 -467h-174zM397 604h420l-63 754h-11zM918 1616h-101l-285 348h166z" />
    <glyph glyph-name="Aacute" unicode="&#xc1;" horiz-adv-x="1236" 
d="M-53 0l700 1481h242l127 -1481h-158l-35 467h-489l-213 -467h-174zM397 604h420l-63 754h-11zM760 1616h-107l236 348h178z" />
    <glyph glyph-name="Acircumflex" unicode="&#xc2;" horiz-adv-x="1236" 
d="M-53 0l700 1481h242l127 -1481h-158l-35 467h-489l-213 -467h-174zM397 604h420l-63 754h-11zM1067 1616h-94l-139 229l-232 -229h-106l270 348h154z" />
    <glyph glyph-name="Atilde" unicode="&#xc3;" horiz-adv-x="1236" 
d="M-53 0l700 1481h242l127 -1481h-158l-35 467h-489l-213 -467h-174zM397 604h420l-63 754h-11zM1100 1882q-31 -100 -74.5 -145t-112.5 -45q-35 0 -79 12l-66 20q-40 13 -68 13q-61 0 -84 -76h-86q30 101 74.5 147.5t114.5 46.5q37 0 78 -12l67 -22q44 -13 68 -13
q65 0 82 74h86z" />
    <glyph glyph-name="Adieresis" unicode="&#xc4;" horiz-adv-x="1236" 
d="M-53 0l700 1481h242l127 -1481h-158l-35 467h-489l-213 -467h-174zM397 604h420l-63 754h-11zM555 1679l41 189h160l-41 -189h-160zM877 1679l41 189h159l-41 -189h-159z" />
    <glyph glyph-name="Aring" unicode="&#xc5;" horiz-adv-x="1236" 
d="M397 604h420l-63 785zM-53 0l704 1485q-57 28 -89 82.5t-32 126.5q0 103 73 175.5t177 72.5t176 -72t72 -176q0 -72 -35.5 -128.5t-101.5 -90.5l125 -1475h-158l-35 467h-489l-213 -467h-174zM631 1692q0 -63 43 -105.5t106 -42.5q62 0 105 42.5t43 105.5t-43 107
t-105 44q-63 0 -106 -44t-43 -107z" />
    <glyph glyph-name="AE" unicode="&#xc6;" horiz-adv-x="1753" 
d="M-123 0l926 1481h973l-29 -138h-578l-110 -501h477l-29 -135h-479l-125 -568h686l-30 -139h-844l104 467h-471l-287 -467h-184zM432 604h416l174 772h-119z" />
    <glyph glyph-name="Ccedilla" unicode="&#xc7;" horiz-adv-x="1236" 
d="M963 406l133 -82q-195 -355 -512 -355q-242 0 -373 148t-131 424q0 203 63 396.5t176 338.5q176 229 447 229q201 0 314.5 -108.5t150.5 -335.5l-158 -27q-25 167 -98.5 247.5t-204.5 80.5q-217 0 -348 -209q-81 -132 -127.5 -298t-46.5 -325q0 -199 88.5 -308
t243.5 -109q108 0 206 74t177 219zM188 -418l31 86q136 -41 223 -41q125 0 125 105q0 46 -38.5 64t-125.5 18h-36l63 186h72l-35 -106h18q111 0 163 -40t52 -128q0 -87 -63.5 -141t-173.5 -54q-107 0 -275 51z" />
    <glyph glyph-name="Egrave" unicode="&#xc8;" horiz-adv-x="1124" 
d="M37 0l328 1481h761l-28 -138h-602l-111 -501h498l-31 -135h-498l-125 -568h711l-31 -139h-872zM897 1616h-100l-285 348h166z" />
    <glyph glyph-name="Eacute" unicode="&#xc9;" horiz-adv-x="1124" 
d="M37 0l328 1481h761l-28 -138h-602l-111 -501h498l-31 -135h-498l-125 -568h711l-31 -139h-872zM739 1616h-106l235 348h179z" />
    <glyph glyph-name="Ecircumflex" unicode="&#xca;" horiz-adv-x="1124" 
d="M37 0l328 1481h761l-28 -138h-602l-111 -501h498l-31 -135h-498l-125 -568h711l-31 -139h-872zM1047 1616h-95l-139 229l-231 -229h-107l270 348h154z" />
    <glyph glyph-name="Edieresis" unicode="&#xcb;" horiz-adv-x="1124" 
d="M37 0l328 1481h761l-28 -138h-602l-111 -501h498l-31 -135h-498l-125 -568h711l-31 -139h-872zM535 1679l40 189h160l-41 -189h-159zM856 1679l41 189h160l-41 -189h-160z" />
    <glyph glyph-name="Igrave" unicode="&#xcc;" horiz-adv-x="563" 
d="M37 0l328 1481h163l-327 -1481h-164zM598 1616h-100l-285 348h166z" />
    <glyph glyph-name="Iacute" unicode="&#xcd;" horiz-adv-x="563" 
d="M37 0l328 1481h163l-327 -1481h-164zM440 1616h-106l235 348h179z" />
    <glyph glyph-name="Icircumflex" unicode="&#xce;" horiz-adv-x="563" 
d="M37 0l328 1481h163l-327 -1481h-164zM748 1616h-95l-139 229l-231 -229h-107l270 348h154z" />
    <glyph glyph-name="Idieresis" unicode="&#xcf;" horiz-adv-x="563" 
d="M37 0l328 1481h163l-327 -1481h-164zM236 1679l40 189h160l-41 -189h-159zM557 1679l41 189h160l-41 -189h-160z" />
    <glyph glyph-name="Eth" unicode="&#xd0;" horiz-adv-x="1370" 
d="M51 0l158 709h-209l27 120h209l145 652h221q345 0 514.5 -145t169.5 -445q0 -226 -74.5 -415t-207.5 -312q-61 -56 -125.5 -91t-140.5 -50t-137 -19t-161 -4h-389zM240 141h202q158 0 259.5 27t191.5 111q100 94 163.5 259t63.5 347q0 224 -124 340t-365 116h-125
l-113 -512h334l-27 -120h-333z" />
    <glyph glyph-name="Ntilde" unicode="&#xd1;" horiz-adv-x="1464" 
d="M35 0l336 1481h223l410 -1213l266 1213h162l-334 -1481h-144l-456 1319l-301 -1319h-162zM1231 1882q-31 -100 -74.5 -145t-112.5 -45q-36 0 -79 12l-66 20q-40 13 -68 13q-32 0 -51.5 -18t-31.5 -58h-86q30 101 74 147.5t114 46.5q38 0 78 -12l67 -22q44 -13 68 -13
q65 0 82 74h86z" />
    <glyph glyph-name="Ograve" unicode="&#xd2;" horiz-adv-x="1351" 
d="M80 553q0 183 51.5 357t142.5 307q97 142 227.5 216t284.5 74q231 0 358.5 -153t127.5 -436q0 -182 -56 -359.5t-161 -329.5q-86 -123 -210.5 -189.5t-269.5 -66.5q-233 0 -364 153t-131 427zM772 1370q-108 0 -205.5 -59.5t-167.5 -171.5q-73 -117 -117 -279.5
t-44 -324.5q0 -197 92.5 -310.5t249.5 -113.5q103 0 198 55t162 156q79 118 125.5 281t46.5 327q0 207 -91.5 323.5t-248.5 116.5zM963 1616h-101l-284 348h165z" />
    <glyph glyph-name="Oacute" unicode="&#xd3;" horiz-adv-x="1351" 
d="M80 553q0 183 51.5 357t142.5 307q97 142 227.5 216t284.5 74q231 0 358.5 -153t127.5 -436q0 -182 -56 -359.5t-161 -329.5q-86 -123 -210.5 -189.5t-269.5 -66.5q-233 0 -364 153t-131 427zM772 1370q-108 0 -205.5 -59.5t-167.5 -171.5q-73 -117 -117 -279.5
t-44 -324.5q0 -197 92.5 -310.5t249.5 -113.5q103 0 198 55t162 156q79 118 125.5 281t46.5 327q0 207 -91.5 323.5t-248.5 116.5zM805 1616h-107l236 348h178z" />
    <glyph glyph-name="Ocircumflex" unicode="&#xd4;" horiz-adv-x="1351" 
d="M80 553q0 183 51.5 357t142.5 307q97 142 227.5 216t284.5 74q231 0 358.5 -153t127.5 -436q0 -182 -56 -359.5t-161 -329.5q-86 -123 -210.5 -189.5t-269.5 -66.5q-233 0 -364 153t-131 427zM772 1370q-108 0 -205.5 -59.5t-167.5 -171.5q-73 -117 -117 -279.5
t-44 -324.5q0 -197 92.5 -310.5t249.5 -113.5q103 0 198 55t162 156q79 118 125.5 281t46.5 327q0 207 -91.5 323.5t-248.5 116.5zM1112 1616h-94l-139 229l-232 -229h-106l270 348h154z" />
    <glyph glyph-name="Otilde" unicode="&#xd5;" horiz-adv-x="1351" 
d="M80 553q0 183 51.5 357t142.5 307q97 142 227.5 216t284.5 74q231 0 358.5 -153t127.5 -436q0 -182 -56 -359.5t-161 -329.5q-86 -123 -210.5 -189.5t-269.5 -66.5q-233 0 -364 153t-131 427zM772 1370q-108 0 -205.5 -59.5t-167.5 -171.5q-73 -117 -117 -279.5
t-44 -324.5q0 -197 92.5 -310.5t249.5 -113.5q103 0 198 55t162 156q79 118 125.5 281t46.5 327q0 207 -91.5 323.5t-248.5 116.5zM1145 1882q-31 -100 -74.5 -145t-112.5 -45q-36 0 -79 12l-66 20q-40 13 -68 13q-32 0 -51.5 -18t-31.5 -58h-87q30 101 74.5 147.5
t114.5 46.5q38 0 78 -12l67 -22q44 -13 68 -13q65 0 82 74h86z" />
    <glyph glyph-name="Odieresis" unicode="&#xd6;" horiz-adv-x="1351" 
d="M80 553q0 183 51.5 357t142.5 307q97 142 227.5 216t284.5 74q231 0 358.5 -153t127.5 -436q0 -182 -56 -359.5t-161 -329.5q-86 -123 -210.5 -189.5t-269.5 -66.5q-233 0 -364 153t-131 427zM772 1370q-108 0 -205.5 -59.5t-167.5 -171.5q-73 -117 -117 -279.5
t-44 -324.5q0 -197 92.5 -310.5t249.5 -113.5q103 0 198 55t162 156q79 118 125.5 281t46.5 327q0 207 -91.5 323.5t-248.5 116.5zM600 1679l41 189h160l-41 -189h-160zM922 1679l41 189h159l-41 -189h-159z" />
    <glyph glyph-name="multiply" unicode="&#xd7;" horiz-adv-x="1705" 
d="M858 692l475 477l82 -82l-475 -477l475 -475l-82 -82l-475 475l-477 -475l-80 82l475 475l-475 477l80 82z" />
    <glyph glyph-name="Oslash" unicode="&#xd8;" horiz-adv-x="1351" 
d="M-20 10l172 207q-72 147 -72 328q0 187 50.5 362.5t139.5 306.5q199 291 537 291q190 0 315 -131l138 158l96 -84l-154 -182q70 -155 70 -346q0 -183 -56 -361.5t-161 -329.5q-87 -123 -212 -189.5t-274 -66.5q-204 0 -340 133l-153 -182zM266 342l758 903
q-97 123 -240 123q-243 0 -387 -231q-72 -114 -115.5 -280.5t-43.5 -334.5q0 -74 28 -180zM324 236q92 -125 249 -125q104 0 197 51.5t162 148.5q79 112 130.5 285.5t51.5 343.5q0 74 -33 199z" />
    <glyph glyph-name="Ugrave" unicode="&#xd9;" horiz-adv-x="1460" 
d="M369 1481h163l-202 -895q-31 -146 -31 -199q0 -126 83 -198t232 -72q100 0 171 25t122 82t84 136.5t60 200.5l211 920h163l-217 -953q-35 -153 -80 -254t-115 -170t-166.5 -99t-232.5 -30q-234 0 -355.5 105t-121.5 303q0 17 1 34t4 38.5t4.5 34t7 39.5t7 35t9 41t8.5 38
zM1047 1616h-101l-284 348h165z" />
    <glyph glyph-name="Uacute" unicode="&#xda;" horiz-adv-x="1460" 
d="M369 1481h163l-202 -895q-31 -146 -31 -199q0 -126 83 -198t232 -72q100 0 171 25t122 82t84 136.5t60 200.5l211 920h163l-217 -953q-35 -153 -80 -254t-115 -170t-166.5 -99t-232.5 -30q-234 0 -355.5 105t-121.5 303q0 17 1 34t4 38.5t4.5 34t7 39.5t7 35t9 41t8.5 38
zM889 1616h-107l236 348h178z" />
    <glyph glyph-name="Ucircumflex" unicode="&#xdb;" horiz-adv-x="1460" 
d="M369 1481h163l-202 -895q-31 -146 -31 -199q0 -126 83 -198t232 -72q100 0 171 25t122 82t84 136.5t60 200.5l211 920h163l-217 -953q-35 -153 -80 -254t-115 -170t-166.5 -99t-232.5 -30q-234 0 -355.5 105t-121.5 303q0 17 1 34t4 38.5t4.5 34t7 39.5t7 35t9 41t8.5 38
zM1196 1616h-94l-139 229l-232 -229h-106l270 348h154z" />
    <glyph glyph-name="Udieresis" unicode="&#xdc;" horiz-adv-x="1460" 
d="M369 1481h163l-202 -895q-31 -146 -31 -199q0 -126 83 -198t232 -72q100 0 171 25t122 82t84 136.5t60 200.5l211 920h163l-217 -953q-35 -153 -80 -254t-115 -170t-166.5 -99t-232.5 -30q-234 0 -355.5 105t-121.5 303q0 17 1 34t4 38.5t4.5 34t7 39.5t7 35t9 41t8.5 38
zM684 1679l41 189h160l-41 -189h-160zM1006 1679l41 189h159l-41 -189h-159z" />
    <glyph glyph-name="Yacute" unicode="&#xdd;" horiz-adv-x="1005" 
d="M266 0l144 647l-267 834h166l207 -680l424 680h180l-555 -871l-135 -610h-164zM662 1616h-107l236 348h178z" />
    <glyph glyph-name="Thorn" unicode="&#xde;" horiz-adv-x="1241" 
d="M33 0l334 1481h159l-65 -297h174q256 0 379 -90t123 -283q0 -215 -148.5 -337t-415.5 -122h-301l-79 -352h-160zM305 492h232q218 0 325 78.5t107 238.5q0 134 -85.5 186t-279.5 52h-174z" />
    <glyph glyph-name="germandbls" unicode="&#xdf;" horiz-adv-x="1079" 
d="M4 0l215 1018q50 238 154 351.5t282 113.5q154 0 248 -91t94 -241q0 -134 -77 -240t-187 -125q100 -29 156.5 -114t56.5 -205q0 -211 -122 -349t-308 -138q-124 0 -215 59l57 115q73 -43 152 -43q123 0 199.5 98.5t76.5 265.5q0 117 -72.5 183.5t-213.5 76.5l20 121
q5 0 14.5 -1t14.5 -1q131 0 216 85t85 212q0 94 -55 150.5t-146 56.5q-112 0 -171 -78t-97 -256l-221 -1024h-156z" />
    <glyph glyph-name="agrave" unicode="&#xe0;" horiz-adv-x="1044" 
d="M584 0l12 123q-131 -137 -320 -137q-129 0 -207.5 76.5t-78.5 199.5q0 181 186.5 293t546.5 141q10 62 10 82q0 85 -57.5 134t-159.5 49q-179 0 -262 -154l-125 80q131 194 412 194q152 0 245 -80.5t93 -209.5q0 -68 -33 -213l-72 -326q-33 -146 -33 -238v-14h-157z
M633 283l63 284q-280 -31 -417.5 -104.5t-137.5 -194.5q0 -66 47 -109.5t119 -43.5q152 0 326 168zM721 1194h-100l-285 348h166z" />
    <glyph glyph-name="aacute" unicode="&#xe1;" horiz-adv-x="1044" 
d="M584 0l12 123q-131 -137 -320 -137q-129 0 -207.5 76.5t-78.5 199.5q0 181 186.5 293t546.5 141q10 62 10 82q0 85 -57.5 134t-159.5 49q-179 0 -262 -154l-125 80q131 194 412 194q152 0 245 -80.5t93 -209.5q0 -68 -33 -213l-72 -326q-33 -146 -33 -238v-14h-157z
M633 283l63 284q-280 -31 -417.5 -104.5t-137.5 -194.5q0 -66 47 -109.5t119 -43.5q152 0 326 168zM563 1194h-106l235 348h178z" />
    <glyph glyph-name="acircumflex" unicode="&#xe2;" horiz-adv-x="1044" 
d="M584 0l12 123q-131 -137 -320 -137q-129 0 -207.5 76.5t-78.5 199.5q0 181 186.5 293t546.5 141q10 62 10 82q0 85 -57.5 134t-159.5 49q-179 0 -262 -154l-125 80q131 194 412 194q152 0 245 -80.5t93 -209.5q0 -68 -33 -213l-72 -326q-33 -146 -33 -238v-14h-157z
M633 283l63 284q-280 -31 -417.5 -104.5t-137.5 -194.5q0 -66 47 -109.5t119 -43.5q152 0 326 168zM870 1194h-94l-139 229l-231 -229h-107l270 348h154z" />
    <glyph glyph-name="atilde" unicode="&#xe3;" horiz-adv-x="1044" 
d="M584 0l12 123q-131 -137 -320 -137q-129 0 -207.5 76.5t-78.5 199.5q0 181 186.5 293t546.5 141q10 62 10 82q0 85 -57.5 134t-159.5 49q-179 0 -262 -154l-125 80q131 194 412 194q152 0 245 -80.5t93 -209.5q0 -68 -33 -213l-72 -326q-33 -146 -33 -238v-14h-157z
M633 283l63 284q-280 -31 -417.5 -104.5t-137.5 -194.5q0 -66 47 -109.5t119 -43.5q152 0 326 168zM903 1460q-31 -100 -74 -145t-112 -45q-37 0 -80 12l-66 21q-37 12 -67 12q-61 0 -84 -76h-86q30 101 74 148t114 47q34 0 78 -13l68 -22q44 -13 67 -13q65 0 82 74h86z" />
    <glyph glyph-name="adieresis" unicode="&#xe4;" horiz-adv-x="1044" 
d="M584 0l12 123q-131 -137 -320 -137q-129 0 -207.5 76.5t-78.5 199.5q0 181 186.5 293t546.5 141q10 62 10 82q0 85 -57.5 134t-159.5 49q-179 0 -262 -154l-125 80q131 194 412 194q152 0 245 -80.5t93 -209.5q0 -68 -33 -213l-72 -326q-33 -146 -33 -238v-14h-157z
M633 283l63 284q-280 -31 -417.5 -104.5t-137.5 -194.5q0 -66 47 -109.5t119 -43.5q152 0 326 168zM358 1257l41 189h160l-41 -189h-160zM680 1257l41 189h160l-41 -189h-160z" />
    <glyph glyph-name="aring" unicode="&#xe5;" horiz-adv-x="1044" 
d="M584 0l12 123q-131 -137 -320 -137q-129 0 -207.5 76.5t-78.5 199.5q0 181 186.5 293t546.5 141q10 62 10 82q0 85 -57.5 134t-159.5 49q-179 0 -262 -154l-125 80q131 194 412 194q152 0 245 -80.5t93 -209.5q0 -68 -33 -213l-72 -326q-33 -146 -33 -238v-14h-157z
M633 283l63 284q-280 -31 -417.5 -104.5t-137.5 -194.5q0 -66 47 -109.5t119 -43.5q152 0 326 168zM367 1393q0 104 71.5 175.5t175.5 71.5t176 -71.5t72 -175.5t-72 -176t-176 -72t-175.5 72t-71.5 176zM465 1391q0 -63 43 -105.5t106 -42.5q62 0 105 42.5t43 105.5
t-43 107t-105 44q-63 0 -106 -44t-43 -107z" />
    <glyph glyph-name="ae" unicode="&#xe6;" horiz-adv-x="1683" 
d="M721 184q-214 -202 -447 -202q-135 0 -214.5 75.5t-79.5 198.5q0 368 729 436q8 52 8 96q0 76 -55 123t-148 47q-173 0 -281 -155l-116 76q72 106 164 155t217 49q248 0 331 -161q145 161 340 161q190 0 288.5 -116.5t98.5 -343.5q0 -68 -2 -111h-729q-10 -68 -10 -121
q0 -132 70 -208.5t190 -76.5q174 0 293 189l113 -82q-167 -231 -414 -231q-123 0 -211.5 52t-134.5 150zM684 563q-553 -58 -553 -291q0 -74 46 -118.5t122 -44.5q142 0 324 151zM850 633h557v31q0 139 -64 216.5t-174 77.5q-113 0 -195.5 -83t-123.5 -242z" />
    <glyph glyph-name="ccedilla" unicode="&#xe7;" horiz-adv-x="1005" 
d="M723 299l108 -76q-70 -124 -169 -183.5t-234 -59.5q-193 0 -294 114.5t-101 333.5q0 289 142.5 471t363.5 182q154 0 250 -82.5t124 -238.5l-139 -33q-29 120 -87 177t-152 57q-151 0 -253 -156t-102 -399q0 -144 64 -224t174 -80q94 0 167 48t138 149zM74 -418l30 86
q136 -41 224 -41q125 0 125 105q0 46 -38.5 64t-125.5 18h-37l63 186h72l-35 -106h19q111 0 163 -40t52 -128q0 -87 -64 -141t-174 -54q-106 0 -274 51z" />
    <glyph glyph-name="egrave" unicode="&#xe8;" horiz-adv-x="1034" 
d="M721 291l108 -78q-157 -231 -407 -231q-195 0 -298.5 116t-103.5 334q0 290 142.5 469.5t367.5 179.5q184 0 281.5 -117.5t97.5 -342.5q0 -53 -6 -111h-729q-8 -49 -8 -113q0 -136 68 -214.5t184 -78.5q171 0 303 187zM199 633h557q0 6 1 17.5t1 17.5q0 138 -65 216.5
t-175 78.5q-111 0 -197 -87t-122 -243zM680 1194h-100l-285 348h166z" />
    <glyph glyph-name="eacute" unicode="&#xe9;" horiz-adv-x="1034" 
d="M721 291l108 -78q-157 -231 -407 -231q-195 0 -298.5 116t-103.5 334q0 290 142.5 469.5t367.5 179.5q184 0 281.5 -117.5t97.5 -342.5q0 -53 -6 -111h-729q-8 -49 -8 -113q0 -136 68 -214.5t184 -78.5q171 0 303 187zM199 633h557q0 6 1 17.5t1 17.5q0 138 -65 216.5
t-175 78.5q-111 0 -197 -87t-122 -243zM522 1194h-106l235 348h178z" />
    <glyph glyph-name="ecircumflex" unicode="&#xea;" horiz-adv-x="1034" 
d="M721 291l108 -78q-157 -231 -407 -231q-195 0 -298.5 116t-103.5 334q0 290 142.5 469.5t367.5 179.5q184 0 281.5 -117.5t97.5 -342.5q0 -53 -6 -111h-729q-8 -49 -8 -113q0 -136 68 -214.5t184 -78.5q171 0 303 187zM199 633h557q0 6 1 17.5t1 17.5q0 138 -65 216.5
t-175 78.5q-111 0 -197 -87t-122 -243zM829 1194h-94l-139 229l-231 -229h-107l270 348h154z" />
    <glyph glyph-name="edieresis" unicode="&#xeb;" horiz-adv-x="1034" 
d="M721 291l108 -78q-157 -231 -407 -231q-195 0 -298.5 116t-103.5 334q0 290 142.5 469.5t367.5 179.5q184 0 281.5 -117.5t97.5 -342.5q0 -53 -6 -111h-729q-8 -49 -8 -113q0 -136 68 -214.5t184 -78.5q171 0 303 187zM199 633h557q0 6 1 17.5t1 17.5q0 138 -65 216.5
t-175 78.5q-111 0 -197 -87t-122 -243zM317 1257l41 189h160l-41 -189h-160zM639 1257l41 189h160l-41 -189h-160z" />
    <glyph glyph-name="igrave" unicode="&#xec;" horiz-adv-x="563" 
d="M35 0l237 1067h152l-236 -1067h-153zM512 1194h-100l-285 348h166z" />
    <glyph glyph-name="iacute" unicode="&#xed;" horiz-adv-x="563" 
d="M35 0l237 1067h152l-236 -1067h-153zM354 1194h-106l235 348h179z" />
    <glyph glyph-name="icircumflex" unicode="&#xee;" horiz-adv-x="563" 
d="M35 0l237 1067h152l-236 -1067h-153zM662 1194h-95l-139 229l-231 -229h-107l270 348h154z" />
    <glyph glyph-name="idieresis" unicode="&#xef;" horiz-adv-x="563" 
d="M35 0l237 1067h152l-236 -1067h-153zM150 1257l40 189h160l-41 -189h-159zM471 1257l41 189h160l-41 -189h-160z" />
    <glyph glyph-name="eth" unicode="&#xf0;" horiz-adv-x="1005" 
d="M688 995q-82 148 -178 232l-291 -146l-45 72l262 131q-59 48 -182 105l39 94q134 -54 258 -142l283 140l43 -70l-256 -127q278 -244 278 -649q0 -295 -141.5 -475t-360.5 -180q-182 0 -283.5 109.5t-101.5 305.5q0 280 144.5 456.5t371.5 176.5q101 0 160 -33zM512 913
q-152 0 -252 -148t-100 -378q0 -143 62.5 -216t183.5 -73q150 0 249 148t99 375q0 136 -66 214t-176 78z" />
    <glyph glyph-name="ntilde" unicode="&#xf1;" horiz-adv-x="1124" 
d="M12 0l236 1067h141l-35 -160q157 174 351 174q120 0 189 -69.5t69 -192.5q0 -56 -25 -174l-143 -645h-148l154 690q14 62 14 113q0 151 -153 151q-72 0 -159.5 -47.5t-172.5 -138.5l-172 -768h-146zM975 1460q-31 -100 -74.5 -145t-112.5 -45q-36 0 -79 12l-66 21
q-37 12 -68 12q-32 0 -51.5 -18t-31.5 -58h-86q30 101 74 148t114 47q34 0 78 -13l67 -22q44 -13 68 -13q65 0 82 74h86z" />
    <glyph glyph-name="ograve" unicode="&#xf2;" horiz-adv-x="1005" 
d="M12 418q0 293 145.5 479t364.5 186q175 0 277 -116t102 -320q0 -193 -67 -346.5t-181 -237t-254 -83.5q-182 0 -284.5 115t-102.5 323zM512 963q-151 0 -251.5 -155t-100.5 -398q0 -152 62 -230t184 -78q150 0 249 155.5t99 397.5q0 144 -66 226t-176 82zM696 1194h-100
l-285 348h166z" />
    <glyph glyph-name="oacute" unicode="&#xf3;" horiz-adv-x="1005" 
d="M12 418q0 293 145.5 479t364.5 186q175 0 277 -116t102 -320q0 -193 -67 -346.5t-181 -237t-254 -83.5q-182 0 -284.5 115t-102.5 323zM512 963q-151 0 -251.5 -155t-100.5 -398q0 -152 62 -230t184 -78q150 0 249 155.5t99 397.5q0 144 -66 226t-176 82zM539 1194h-107
l236 348h178z" />
    <glyph glyph-name="ocircumflex" unicode="&#xf4;" horiz-adv-x="1005" 
d="M12 418q0 293 145.5 479t364.5 186q175 0 277 -116t102 -320q0 -193 -67 -346.5t-181 -237t-254 -83.5q-182 0 -284.5 115t-102.5 323zM512 963q-151 0 -251.5 -155t-100.5 -398q0 -152 62 -230t184 -78q150 0 249 155.5t99 397.5q0 144 -66 226t-176 82zM846 1194h-94
l-140 229l-231 -229h-107l271 348h153z" />
    <glyph glyph-name="otilde" unicode="&#xf5;" horiz-adv-x="1005" 
d="M12 418q0 293 145.5 479t364.5 186q175 0 277 -116t102 -320q0 -193 -67 -346.5t-181 -237t-254 -83.5q-182 0 -284.5 115t-102.5 323zM512 963q-151 0 -251.5 -155t-100.5 -398q0 -152 62 -230t184 -78q150 0 249 155.5t99 397.5q0 144 -66 226t-176 82zM879 1460
q-31 -100 -74.5 -145t-112.5 -45q-36 0 -80 12l-65 21q-37 12 -68 12q-61 0 -84 -76h-86q30 101 74.5 148t114.5 47q33 0 77 -13l68 -22q44 -13 68 -13q65 0 82 74h86z" />
    <glyph glyph-name="odieresis" unicode="&#xf6;" horiz-adv-x="1005" 
d="M12 418q0 293 145.5 479t364.5 186q175 0 277 -116t102 -320q0 -193 -67 -346.5t-181 -237t-254 -83.5q-182 0 -284.5 115t-102.5 323zM512 963q-151 0 -251.5 -155t-100.5 -398q0 -152 62 -230t184 -78q150 0 249 155.5t99 397.5q0 144 -66 226t-176 82zM334 1257
l41 189h160l-41 -189h-160zM655 1257l41 189h160l-41 -189h-160z" />
    <glyph glyph-name="divide" unicode="&#xf7;" horiz-adv-x="1705" 
d="M854 1085q47 0 81 -33.5t34 -80.5t-33 -81t-82 -34t-82 33.5t-33 81.5q0 47 34.5 80.5t80.5 33.5zM1452 670v-117h-1198v117h1198zM854 365q46 0 80.5 -34t34.5 -81t-33 -81t-82 -34q-47 0 -81 34t-34 81q0 49 34 82t81 33z" />
    <glyph glyph-name="oslash" unicode="&#xf8;" horiz-adv-x="1005" 
d="M-53 -6l127 158q-60 114 -60 254q0 303 142.5 491t363.5 188q142 0 242 -84l98 121l92 -73l-112 -140q63 -117 63 -260q0 -140 -40 -268.5t-107 -216.5q-73 -95 -162.5 -138.5t-208.5 -43.5q-131 0 -233 77l-111 -139zM178 270l502 621q-66 72 -164 72
q-155 0 -254.5 -158t-99.5 -412q0 -48 16 -123zM236 170q68 -68 170 -68q153 0 251.5 157.5t98.5 408.5q0 52 -19 123z" />
    <glyph glyph-name="ugrave" unicode="&#xf9;" horiz-adv-x="1124" 
d="M1030 1067l-233 -1067h-142l33 156q-156 -172 -350 -172q-120 0 -189 69.5t-69 192.5q0 61 24 174l146 647h147l-153 -694q-17 -72 -17 -111q0 -153 154 -153q72 0 159.5 47.5t172.5 138.5l172 772h145zM793 1194h-101l-284 348h165z" />
    <glyph glyph-name="uacute" unicode="&#xfa;" horiz-adv-x="1124" 
d="M1030 1067l-233 -1067h-142l33 156q-156 -172 -350 -172q-120 0 -189 69.5t-69 192.5q0 61 24 174l146 647h147l-153 -694q-17 -72 -17 -111q0 -153 154 -153q72 0 159.5 47.5t172.5 138.5l172 772h145zM635 1194h-107l236 348h178z" />
    <glyph glyph-name="ucircumflex" unicode="&#xfb;" horiz-adv-x="1124" 
d="M1030 1067l-233 -1067h-142l33 156q-156 -172 -350 -172q-120 0 -189 69.5t-69 192.5q0 61 24 174l146 647h147l-153 -694q-17 -72 -17 -111q0 -153 154 -153q72 0 159.5 47.5t172.5 138.5l172 772h145zM942 1194h-94l-139 229l-232 -229h-106l270 348h154z" />
    <glyph glyph-name="udieresis" unicode="&#xfc;" horiz-adv-x="1124" 
d="M1030 1067l-233 -1067h-142l33 156q-156 -172 -350 -172q-120 0 -189 69.5t-69 192.5q0 61 24 174l146 647h147l-153 -694q-17 -72 -17 -111q0 -153 154 -153q72 0 159.5 47.5t172.5 138.5l172 772h145zM430 1257l41 189h160l-41 -189h-160zM752 1257l41 189h159
l-41 -189h-159z" />
    <glyph glyph-name="yacute" unicode="&#xfd;" horiz-adv-x="890" 
d="M334 -102q-37 -78 -66 -125t-70 -87t-93.5 -57.5t-124.5 -17.5q-83 0 -127 31l36 114q56 -20 105 -20q63 0 107 37.5t85 122.5l50 100l-154 1071h141l117 -852l389 852h156zM518 1194h-106l235 348h178z" />
    <glyph glyph-name="thorn" unicode="&#xfe;" horiz-adv-x="1124" 
d="M-82 -389l422 1870h154l-117 -518q103 118 268 118q166 0 258 -108t92 -307q0 -139 -43 -273.5t-118 -236.5q-127 -174 -342 -174q-232 0 -304 184l-125 -555h-145zM227 338q20 -104 86.5 -163.5t163.5 -59.5q74 0 139 35t109 100q55 79 88 193.5t33 228.5q0 136 -58 210
t-161 74q-150 0 -301 -168z" />
    <glyph glyph-name="ydieresis" unicode="&#xff;" horiz-adv-x="890" 
d="M334 -102q-37 -78 -66 -125t-70 -87t-93.5 -57.5t-124.5 -17.5q-83 0 -127 31l36 114q56 -20 105 -20q63 0 107 37.5t85 122.5l50 100l-154 1071h141l117 -852l389 852h156zM313 1257l41 189h160l-41 -189h-160zM635 1257l41 189h160l-41 -189h-160z" />
    <glyph glyph-name="dotlessi" unicode="&#x131;" horiz-adv-x="563" 
d="M35 0l237 1067h152l-236 -1067h-153z" />
    <glyph glyph-name="Lslash" unicode="&#x141;" horiz-adv-x="1019" 
d="M51 0l135 610l-213 -125l33 152l213 125l160 719h166l-144 -647l363 208l-35 -151l-362 -211l-119 -539h698l-31 -141h-864z" />
    <glyph glyph-name="lslash" unicode="&#x142;" horiz-adv-x="587" 
d="M47 0l152 680l-187 -107l29 132l186 106l148 670h153l-135 -615l185 107l-29 -131l-187 -107l-161 -735h-154z" />
    <glyph glyph-name="OE" unicode="&#x152;" horiz-adv-x="1957" 
d="M932 174q-172 -199 -363 -199q-206 0 -334.5 155.5t-128.5 420.5q0 183 52 357t141 306q199 293 518 293q136 0 223 -53t138 -168l43 193h737l-31 -138h-581l-111 -501h481l-28 -135h-484l-125 -568h690l-30 -137h-848zM989 428l131 606q4 20 4 33q0 80 -49 156
q-97 147 -274 147q-111 0 -208 -60t-167 -173q-72 -117 -117 -279.5t-45 -322.5q0 -190 89.5 -306t224.5 -116q120 0 258 114q64 53 104.5 109t48.5 92z" />
    <glyph glyph-name="oe" unicode="&#x153;" horiz-adv-x="1720" 
d="M782 199q-151 -222 -393 -222q-177 0 -277 116t-100 323q0 294 147.5 481.5t368.5 187.5q115 0 202 -56.5t128 -156.5q72 104 169.5 158.5t211.5 54.5q188 0 287.5 -118t99.5 -346q0 -16 -2.5 -54.5t-3.5 -56.5h-729q-8 -55 -8 -109q0 -137 68.5 -217t181.5 -80
q87 0 165.5 49.5t133.5 141.5l112 -82q-83 -120 -185 -175.5t-237 -55.5q-124 0 -211.5 56t-128.5 161zM506 963q-143 0 -243.5 -155.5t-100.5 -393.5q0 -153 63 -231.5t185 -78.5q149 0 247.5 154.5t98.5 398.5q0 146 -66 226t-184 80zM915 633h560v31q0 142 -65.5 219.5
t-182.5 77.5q-105 0 -188 -85.5t-124 -242.5z" />
    <glyph glyph-name="Scaron" unicode="&#x160;" horiz-adv-x="1232" 
d="M68 397l153 52q43 -161 136.5 -243.5t230.5 -82.5q128 0 206 73t78 191q0 31 -4 57.5t-16.5 50.5t-22.5 41t-35.5 38t-40 33t-53 33.5t-57.5 32t-68 36.5q-90 48 -148 87.5t-107 90.5t-71 112t-22 138q0 164 114 267t300 103q377 0 477 -377l-143 -43q-37 141 -123 213
t-217 72q-115 0 -181.5 -64t-66.5 -175q0 -49 20 -89.5t67.5 -79.5t97 -69t137.5 -76q71 -38 117.5 -67.5t90 -67.5t67.5 -79t38 -95t14 -121q0 -184 -124 -299t-330 -115q-201 0 -334.5 109t-179.5 313zM571 1964h97l139 -227l229 227h107l-269 -348h-153z" />
    <glyph glyph-name="scaron" unicode="&#x161;" horiz-adv-x="890" 
d="M-33 227l121 80q65 -104 134 -148t171 -44q88 0 138.5 45.5t50.5 124.5q0 26 -5.5 47t-20 39.5t-27.5 31t-42 28.5t-48 25.5t-60 28.5q-74 34 -117 59.5t-80.5 60t-53 76.5t-15.5 99q0 134 86.5 218.5t228.5 84.5q261 0 379 -229l-127 -68q-54 93 -112.5 134t-143.5 41
q-70 0 -118 -43.5t-48 -108.5q0 -37 10 -62.5t35.5 -46.5t51 -35t74.5 -38q9 -4 13 -6q77 -37 126.5 -67t89.5 -68t57.5 -83.5t17.5 -103.5q0 -146 -92.5 -232.5t-249.5 -86.5q-290 0 -424 247zM315 1542h97l139 -227l229 227h107l-269 -348h-153z" />
    <glyph glyph-name="Ydieresis" unicode="&#x178;" horiz-adv-x="1005" 
d="M266 0l144 647l-267 834h166l207 -680l424 680h180l-555 -871l-135 -610h-164zM457 1679l41 189h159l-41 -189h-159zM778 1679l41 189h160l-41 -189h-160z" />
    <glyph glyph-name="Zcaron" unicode="&#x17d;" horiz-adv-x="1124" 
d="M6 0l27 119l850 1224h-629l29 138h825l-23 -113l-849 -1227h700l-33 -141h-897zM518 1964h96l140 -227l229 227h107l-269 -348h-153z" />
    <glyph glyph-name="zcaron" unicode="&#x17e;" horiz-adv-x="929" 
d="M-23 0l25 113l635 831h-498l29 123h680l-29 -109l-635 -833h566l-33 -125h-740zM334 1542h96l139 -227l230 227h106l-268 -348h-154z" />
    <glyph glyph-name="florin" unicode="&#x192;" horiz-adv-x="1232" 
d="M63 -365l27 138q63 -13 90 -13q37 0 65.5 9.5t51 35.5t38.5 54.5t32 84t27 106t28 136.5l123 635h-223v129h249l29 131q45 215 128 318.5t218 103.5q60 0 135 -16l-30 -131q-62 16 -93 16q-91 0 -137.5 -74.5t-77.5 -242.5l-20 -105h231v-129h-254l-116 -614
q-25 -131 -48 -218t-56 -162.5t-74 -117.5t-98 -65t-134 -23q-65 0 -111 14z" />
    <glyph glyph-name="circumflex" unicode="&#x2c6;" 
d="M891 1194h-94l-140 229l-231 -229h-107l271 348h153z" />
    <glyph glyph-name="caron" unicode="&#x2c7;" 
d="M381 1542h96l139 -227l230 227h106l-268 -348h-154z" />
    <glyph glyph-name="breve" unicode="&#x2d8;" 
d="M389 1505h88v-20q0 -125 156 -125q166 0 231 145h92q-82 -274 -338 -274q-231 0 -231 229q0 29 2 45z" />
    <glyph glyph-name="dotaccent" unicode="&#x2d9;" 
d="M535 1253l43 199h167l-40 -199h-170z" />
    <glyph glyph-name="ring" unicode="&#x2da;" 
d="M389 1423q0 104 72 176t176 72t176 -72t72 -176t-72 -175.5t-176 -71.5t-176 71.5t-72 175.5zM487 1421q0 -63 44.5 -105t107.5 -42q62 0 104.5 42t42.5 105t-42.5 106.5t-104.5 43.5q-63 0 -107.5 -43.5t-44.5 -106.5z" />
    <glyph glyph-name="ogonek" unicode="&#x2db;" 
d="M387 0q-137 -125 -137 -223q0 -44 22.5 -63t75.5 -19h94l-26 -129h-66q-113 0 -168 40t-55 124q0 70 44.5 130.5t143.5 139.5h72z" />
    <glyph glyph-name="tilde" unicode="&#x2dc;" 
d="M924 1460q-31 -100 -74.5 -145t-112.5 -45q-37 0 -80 12l-65 21q-37 12 -68 12q-61 0 -84 -76h-86q30 101 74.5 148t114.5 47q34 0 78 -13l67 -22q44 -13 68 -13q65 0 82 74h86z" />
    <glyph glyph-name="hungarumlaut" unicode="&#x2dd;" 
d="M598 1542h158l-242 -348h-84zM881 1542h155l-260 -348h-84z" />
    <glyph glyph-name="endash" unicode="&#x2013;" 
d="M-57 481l22 107h1024l-22 -107h-1024z" />
    <glyph glyph-name="emdash" unicode="&#x2014;" horiz-adv-x="2048" 
d="M-12 481l24 107h2048l-24 -107h-2048z" />
    <glyph glyph-name="quoteleft" unicode="&#x2018;" horiz-adv-x="473" 
d="M590 1495l-189 -309h80l-47 -217h-209l54 235l206 291h105z" />
    <glyph glyph-name="quoteright" unicode="&#x2019;" horiz-adv-x="473" 
d="M141 954l191 310h-82l49 217h209l-53 -234l-207 -293h-107z" />
    <glyph glyph-name="quotesinglbase" unicode="&#x201a;" horiz-adv-x="473" 
d="M-139 -309l190 311h-82l47 217h209l-53 -235l-205 -293h-106z" />
    <glyph glyph-name="quotedblleft" unicode="&#x201c;" horiz-adv-x="847" 
d="M965 1495l-191 -309h82l-49 -217h-209l53 235l207 291h107zM590 1495l-191 -309h82l-47 -217h-211l53 235l207 291h107z" />
    <glyph glyph-name="quotedblright" unicode="&#x201d;" horiz-adv-x="847" 
d="M141 954l191 310h-82l49 217h209l-53 -234l-207 -293h-107zM516 954l191 310h-82l49 217h209l-54 -234l-206 -293h-107z" />
    <glyph glyph-name="quotedblbase" unicode="&#x201e;" horiz-adv-x="847" 
d="M-139 -309l188 309h-80l47 217h209l-53 -235l-207 -291h-104zM240 -309l188 309h-80l47 217h209l-53 -235l-205 -291h-106z" />
    <glyph glyph-name="dagger" unicode="&#x2020;" 
d="M301 -223q44 227 65 342.5t42 267t26 258.5l121 346l-330 -49l33 172l315 -53l39 420h176l-141 -420l338 49l-39 -172l-315 51l-21 -352q-48 -102 -239 -860h-70z" />
    <glyph glyph-name="daggerdbl" unicode="&#x2021;" 
d="M250 -201l137 412l-332 -45l41 176l314 -53l24 362l121 340l-332 -45l35 168l313 -47l43 414h177l-138 -418l332 49l-39 -174l-313 49l-23 -350l-127 -348l334 51l-37 -180l-309 49l-43 -410h-178z" />
    <glyph glyph-name="bullet" unicode="&#x2022;" horiz-adv-x="1208" 
d="M307 762q0 123 87 209t210 86q122 0 208.5 -86t86.5 -209q0 -122 -87 -209.5t-210 -87.5t-209 87t-86 210z" />
    <glyph glyph-name="ellipsis" unicode="&#x2026;" horiz-adv-x="2048" 
d="M72 0l49 223h209l-49 -223h-209zM754 0l49 223h209l-49 -223h-209zM1438 0l49 223h209l-49 -223h-209z" />
    <glyph glyph-name="perthousand" unicode="&#x2030;" horiz-adv-x="2605" 
d="M233 1163q0 -88 60.5 -149.5t148.5 -61.5t149.5 61t61.5 150t-61 150t-150 61t-149 -61t-60 -150zM104 1163q0 143 98 241.5t240 98.5t241 -98.5t99 -241.5q0 -142 -99 -240t-241 -98q-141 0 -239.5 98t-98.5 240zM387 -25l844 1528h115l-846 -1528h-113zM948 315
q0 142 98.5 240t241.5 98q142 0 240 -97.5t98 -240.5q0 -142 -98.5 -241t-239.5 -99t-240.5 99t-99.5 241zM1077 315q0 -88 61.5 -149.5t149.5 -61.5t148.5 61t60.5 150t-60 149t-149 60t-150 -60t-61 -149zM1817 315q0 142 98.5 240t241.5 98q142 0 239.5 -97.5
t97.5 -240.5q0 -142 -98 -241t-239 -99t-240.5 99t-99.5 241zM1946 315q0 -88 61.5 -149.5t149.5 -61.5t148 61t60 150t-59.5 149t-148.5 60t-150 -60t-61 -149z" />
    <glyph glyph-name="guilsinglleft" unicode="&#x2039;" horiz-adv-x="688" 
d="M500 844l-262 -309l206 -316h-141l-207 316l262 309h142z" />
    <glyph glyph-name="guilsinglright" unicode="&#x203a;" horiz-adv-x="688" 
d="M84 219l262 309l-207 316h142l204 -316l-260 -309h-141z" />
    <glyph glyph-name="fraction" unicode="&#x2044;" horiz-adv-x="342" 
d="M-338 -25l907 1528h111l-907 -1528h-111z" />
    <glyph glyph-name="trademark" unicode="&#x2122;" horiz-adv-x="1705" 
d="M694 1456v-67h-172v-467h-94v467h-174v67h440zM948 1456l160 -405l149 405h132v-534h-82v458l-172 -458h-54l-180 458v-458h-82v534h129z" />
    <glyph glyph-name="minus" unicode="&#x2212;" horiz-adv-x="1705" 
d="M1452 670v-119h-1198v119h1198z" />
    <glyph glyph-name="fi" unicode="&#xfb01;" horiz-adv-x="1124" 
d="M616 0l238 1067h152l-238 -1067h-152zM39 0l207 944h-178l26 123h180l27 131q33 155 103.5 229t189.5 74q72 0 166 -24l-29 -125q-67 20 -117 20q-72 0 -109.5 -43.5t-58.5 -142.5l-24 -119h215l-25 -123h-219l-209 -944h-145zM899 1311l37 170h174l-39 -170h-172z" />
    <glyph glyph-name="fl" unicode="&#xfb02;" horiz-adv-x="1124" 
d="M39 0l207 944h-178l26 123h180l27 131q33 155 103.5 229t189.5 74q72 0 166 -24l-29 -125q-67 20 -117 20q-72 0 -109.5 -43.5t-58.5 -142.5l-24 -119h215l-25 -123h-219l-209 -944h-145zM616 0l328 1481h152l-328 -1481h-152z" />
    </font>
</defs>
</svg>
