<?xml version="1.0" encoding="utf-8"?>
<svg width="153px" height="153px" viewBox="0 0 153 153" version="1.1" xmlns:xlink="http://www.w3.org/1999/xlink" xmlns="http://www.w3.org/2000/svg">
  <desc>Created with Lunacy</desc>
  <defs>
    <path d="M0 0L150 0L150 150L0 150L0 0Z" id="path_1" />
    <path d="M0 0L147 0L147 147L0 147L0 0L0 0Z" id="path_2" />
    <path d="M0 0L144 0L144 144L0 144L0 0L0 0L0 0Z" id="path_3" />
    <clipPath id="mask_1">
      <use xlink:href="#path_1" />
    </clipPath>
    <clipPath id="mask_2">
      <use xlink:href="#path_2" />
    </clipPath>
    <clipPath id="mask_3">
      <use xlink:href="#path_3" />
    </clipPath>
  </defs>
  <g id="skip" transform="translate(1.5 1.5)">
    <path d="M0 0L150 0L150 150L0 150L0 0Z" id="Background" fill="none" fill-rule="evenodd" stroke="none" />
    <g clip-path="url(#mask_1)">
      <g id="03cf4ca3-697a-40ce-b5e4-3e0c2be83355" transform="translate(1.5 1.5)">
        <path d="M0 0L147 0L147 147L0 147L0 0L0 0Z" id="Background" fill="none" fill-rule="evenodd" stroke="none" />
        <g id="Mask-group">
          <path d="M0 0L147 0L147 147L0 147L0 0L0 0Z" id="path_1" fill="none" fill-rule="evenodd" stroke="none" />
          <g clip-path="url(#mask_2)">
            <g id="Group" transform="translate(1.5 1.5)">
              <g id="d18050cc-3c17-40f4-ad3a-8d7f52872c91">
                <path d="M0 0L144 0L144 144L0 144L0 0L0 0L0 0Z" id="Background#1" fill="none" fill-rule="evenodd" stroke="none" />
                <g id="Mask-group">
                  <path d="M0 0L144 0L144 144L0 144L0 0L0 0L0 0Z" id="path_1#1" fill="none" fill-rule="evenodd" stroke="none" />
                  <g id="Mask-group">
                    <path d="M0 0L144 0L144 144L0 144L0 0L0 0L0 0Z" fill-opacity="0" />
                    <g clip-path="url(#mask_3)">
                      <g id="Group" transform="translate(2 2)">
                        <g id="See-Wig-Results" fill="#C0218D" transform="translate(7 58)">
                          <path d="M9.80859 10.5449L8.62207 10.9229Q7.875 8.51465 5.59863 8.51465Q4.18359 8.51465 3.41016 9.23535Q2.7334 9.85938 2.7334 10.8525Q2.7334 12.0303 3.47168 12.6367Q4.11328 13.1465 5.61621 13.5156L6.14355 13.665Q8.57812 14.2803 9.43066 15.291Q10.0986 16.0732 10.0986 17.4619Q10.0986 19.2373 8.78027 20.2305Q7.60254 21.1182 5.66895 21.1182Q3.80566 21.1182 2.5752 20.1777Q1.49414 19.3428 1.02832 17.875L2.21484 17.4268Q2.92676 20.125 5.65137 20.125Q7.35644 20.125 8.19141 19.3164Q8.85937 18.6572 8.85938 17.5674Q8.85937 16.3545 8.14746 15.748Q7.46191 15.168 5.73047 14.7285L5.27344 14.5967Q3.0498 14.0254 2.21484 13.0586Q1.5293 12.2588 1.5293 10.9053Q1.5293 9.38477 2.69824 8.41797Q3.80566 7.50391 5.58105 7.50391Q8.73633 7.50391 9.80859 10.5449ZM117.606 20.8633L117.606 7.50391L116.49 7.50391L116.49 20.8633L117.606 20.8633ZM52.4531 7.74121L49.2715 20.8633L47.707 20.8633L45.7998 12.7598Q45.3867 10.9932 44.9648 8.78711L44.7715 8.78711Q44.4463 10.668 43.9453 12.7246L41.9766 20.8633L40.3945 20.8633L37.3359 7.74121L38.5928 7.74121L40.3418 15.748Q40.6143 17.0049 41.1328 19.7646L41.335 19.7646Q42.0732 16.0908 42.1436 15.8271L44.0859 7.74121L45.7207 7.74121L47.6104 15.8799Q47.6631 16.082 48.4277 19.7646L48.6211 19.7646Q48.6914 19.4395 49.0342 17.6641Q49.2363 16.6357 49.4121 15.8623L51.249 7.74121L52.4531 7.74121ZM79.3125 7.74121L75.0146 7.74121L75.0146 20.8633L76.1836 20.8633L76.1836 14.6055L79.0488 14.6055Q79.5322 14.6055 79.7432 14.5879L82.7578 20.8633L84.0674 20.8633L80.8594 14.4033Q82.1777 14.1133 82.916 13.3135Q83.7422 12.4346 83.7422 11.1074Q83.7422 7.74121 79.3125 7.74121ZM56.4521 9.9209L56.4521 8.24219L54.7998 8.24219L54.7998 9.9209L56.4521 9.9209ZM122.774 8.6377L122.774 11.8633L125.042 11.8633L125.042 12.7598L122.774 12.7598L122.774 18.6133Q122.774 20.2041 124.11 20.2041Q124.69 20.2041 125.279 20.0723L125.2 20.9863Q124.638 21.083 123.926 21.083Q121.658 21.083 121.658 18.833L121.658 12.7598L120.111 12.7598L120.111 11.8633L121.658 11.8633L121.658 8.89258L122.774 8.6377ZM76.1836 13.6299L76.1836 8.73438L79.2246 8.73438Q80.8506 8.73438 81.6504 9.27051Q82.5029 9.8418 82.5029 11.125Q82.5029 13.6299 79.1191 13.6299L76.1836 13.6299ZM67.0781 10.7646L66.9902 11.793Q66.2695 11.793 65.8213 11.9863Q65.4609 12.1445 65.083 12.5137Q66.0322 13.2783 66.0322 14.6143Q66.0322 16.0645 64.9775 16.8906Q64.0898 17.585 62.7363 17.585Q61.9277 17.585 61.2422 17.3037Q60.3457 17.8047 60.3457 18.376Q60.3457 18.8594 60.7324 19.0352Q61.1104 19.2021 62.2529 19.3164L64.0195 19.4922Q65.8477 19.6855 66.5508 20.3096Q67.0781 20.7754 67.0781 21.6191Q67.0781 22.8057 65.8828 23.4912Q64.7578 24.124 62.8682 24.124Q60.8555 24.124 59.792 23.4385Q58.8867 22.8496 58.8867 21.9092Q58.8867 21.2324 59.4404 20.6963Q59.915 20.2305 60.7236 19.9668Q59.3525 19.668 59.3525 18.6484Q59.3525 17.7607 60.6006 16.9082Q59.4668 16.0908 59.4668 14.6318Q59.4668 13.208 60.5566 12.3555Q61.4619 11.6436 62.7539 11.6436Q63.7646 11.6436 64.4854 12.0566Q65.0039 11.3271 65.6543 11.0283Q66.2344 10.7646 67.0781 10.7646ZM20.1533 16.4512L13.623 16.4512Q13.623 18.3408 14.5371 19.3604Q15.3018 20.2041 16.4883 20.2041Q18.4307 20.2041 19.0371 18.2705L20.083 18.666Q19.1514 21.083 16.4707 21.083Q14.5811 21.083 13.4912 19.6504Q12.5244 18.3848 12.5244 16.3809Q12.5244 14.0957 13.7637 12.7686Q14.8096 11.6436 16.374 11.6436Q18.1582 11.6436 19.2129 13.0234Q20.1533 14.2539 20.1533 16.1611L20.1533 16.4512ZM23.6689 16.4512L30.1992 16.4512L30.1992 16.1611Q30.1992 14.2539 29.2588 13.0234Q28.2041 11.6436 26.4199 11.6436Q24.8555 11.6436 23.8096 12.7686Q22.5703 14.0957 22.5703 16.3809Q22.5703 18.3848 23.5371 19.6504Q24.627 21.083 26.5166 21.083Q29.1973 21.083 30.1289 18.666L29.083 18.2705Q28.4766 20.2041 26.5342 20.2041Q25.3477 20.2041 24.583 19.3604Q23.6689 18.3408 23.6689 16.4512ZM93.876 16.4512L87.3457 16.4512Q87.3457 18.3408 88.2598 19.3604Q89.0244 20.2041 90.2109 20.2041Q92.1533 20.2041 92.7598 18.2705L93.8057 18.666Q92.874 21.083 90.1934 21.083Q88.3037 21.083 87.2139 19.6504Q86.2471 18.3848 86.2471 16.3809Q86.2471 14.0957 87.4863 12.7686Q88.5322 11.6436 90.0967 11.6436Q91.8809 11.6436 92.9355 13.0234Q93.876 14.2539 93.876 16.1611L93.876 16.4512ZM101.751 14.1484L102.832 13.7705Q102.006 11.6436 99.5713 11.6436Q98.1563 11.6436 97.3301 12.2676Q96.4424 12.9268 96.4424 14.0605Q96.4424 15.001 96.9258 15.5371Q97.5146 16.1963 99.1055 16.5566L99.8262 16.7236Q101.048 16.9961 101.496 17.3389Q101.971 17.708 101.971 18.543Q101.971 19.1934 101.514 19.6328Q100.916 20.2041 99.668 20.2041Q97.7783 20.2041 97.1807 18.4902L96.0996 18.9033Q96.9346 21.083 99.6504 21.083Q101.206 21.083 102.111 20.3975Q103.069 19.6768 103.069 18.4375Q103.069 17.3916 102.498 16.8203Q101.874 16.1875 100.204 15.8008L99.4834 15.6426Q98.4023 15.4053 97.9805 15.0801Q97.5059 14.7197 97.5059 13.9639Q97.5059 13.3574 97.9805 12.9707Q98.5342 12.5225 99.5537 12.5225Q101.241 12.5225 101.751 14.1484ZM132.425 14.1484L133.506 13.7705Q132.68 11.6436 130.245 11.6436Q128.83 11.6436 128.004 12.2676Q127.116 12.9268 127.116 14.0605Q127.116 15.001 127.6 15.5371Q128.188 16.1963 129.779 16.5566L130.5 16.7236Q131.722 16.9961 132.17 17.3389Q132.645 17.708 132.645 18.543Q132.645 19.1934 132.188 19.6328Q131.59 20.2041 130.342 20.2041Q128.452 20.2041 127.854 18.4902L126.773 18.9033Q127.608 21.083 130.324 21.083Q131.88 21.083 132.785 20.3975Q133.743 19.6768 133.743 18.4375Q133.743 17.3916 133.172 16.8203Q132.548 16.1875 130.878 15.8008L130.157 15.6426Q129.076 15.4053 128.654 15.0801Q128.18 14.7197 128.18 13.9639Q128.18 13.3574 128.654 12.9707Q129.208 12.5225 130.228 12.5225Q131.915 12.5225 132.425 14.1484ZM56.1885 20.8633L56.1885 11.8633L55.0723 11.8633L55.0723 20.8633L56.1885 20.8633ZM112.887 11.8633L112.887 20.8633L111.806 20.8633L111.806 19.1494Q111.199 20.1074 110.241 20.626Q109.415 21.083 108.536 21.083Q107.323 21.083 106.629 20.3535Q105.979 19.6855 105.979 18.5605L105.979 11.8633L107.112 11.8633L107.112 18.2178Q107.112 20.0898 108.835 20.0898Q109.67 20.0898 110.531 19.4834Q111.278 18.9561 111.771 18.165L111.771 11.8633L112.887 11.8633ZM62.7539 12.4346Q61.7432 12.4346 61.1104 13.085Q60.5303 13.6826 60.5303 14.6318Q60.5303 15.6953 61.2598 16.3018Q61.8574 16.7939 62.7451 16.7939Q63.7646 16.7939 64.3887 16.1523Q64.9688 15.5635 64.9688 14.6318Q64.9688 13.542 64.2305 12.9355Q63.6328 12.4346 62.7539 12.4346ZM19.0371 15.6074Q18.9141 14.043 18.123 13.2344Q17.4463 12.54 16.3916 12.54Q15.1787 12.54 14.4229 13.4805Q13.7549 14.2979 13.6582 15.6074L19.0371 15.6074ZM28.1689 13.2344Q28.96 14.043 29.083 15.6074L23.7041 15.6074Q23.8008 14.2979 24.4688 13.4805Q25.2246 12.54 26.4375 12.54Q27.4922 12.54 28.1689 13.2344ZM92.7598 15.6074Q92.6367 14.043 91.8457 13.2344Q91.1689 12.54 90.1143 12.54Q88.9014 12.54 88.1455 13.4805Q87.4775 14.2979 87.3809 15.6074L92.7598 15.6074ZM61.6729 20.1777Q59.915 20.6611 59.915 21.7686Q59.915 22.5859 60.8555 22.999Q61.6289 23.333 62.9033 23.333Q64.5029 23.333 65.3555 22.8145Q66.0498 22.3838 66.0498 21.7334Q66.0498 21.1357 65.54 20.8369Q65.0127 20.5293 63.7471 20.3975L61.6729 20.1777Z" />
                        </g>
                      </g>
                    </g>
                  </g>
                </g>
              </g>
            </g>
          </g>
        </g>
      </g>
    </g>
  </g>
</svg>